<svg version="1.1" xmlns="http://www.w3.org/2000/svg" viewBox="0 0 622.19140625 504.48828125" width="1244.3828125" height="1008.9765625">
  <!-- svg-source:excalidraw -->
  
  <defs>
    <style>
      @font-face {
        font-family: "Virgil";
        src: url("https://excalidraw.com/Virgil.woff2");
      }
      @font-face {
        font-family: "Cascadia";
        src: url("https://excalidraw.com/Cascadia.woff2");
      }
    </style>
  </defs>
  <g transform="translate(23.22345379636363 148.43114744526196) rotate(0 16.233657522219687 17.813132695781036)"><path d="M12.7553379119639 0.4187215638812347 C15.857647997467197 -0.6747731059615596, 20.610533504403197 0.6674552638280371, 23.775346159178056 2.2557308038432424 C26.940158813952916 3.8440063438584477, 30.243226765728576 6.5526852263219695, 31.744213840613057 9.948374803972467 C33.245200915497534 13.344064381622964, 33.69449014668071 18.948964208114965, 32.781268608484936 22.629868269746225 C31.868047070289162 26.310772331377486, 29.345005492735904 29.743316609896365, 26.26488461143841 32.03379917376003 C23.18476373014092 34.3242817376237, 17.913515899133312 36.59065200698876, 14.30054332069998 36.37276365292823 C10.687570742266649 36.154875298867694, 7.079971340586191 33.63455620860958, 4.587049140838424 30.726469049396815 C2.0941269410906576 27.818381890184046, -0.45838277016402296 22.94342665916789, -0.6569898777866179 18.924240697651612 C-0.8555969854092128 14.905054736135334, 0.971735722449584 9.813721921262315, 3.395406495102854 6.611353280299143 C5.819077267756125 3.408984639335971, 11.799675118516426 0.7513043399785426, 13.885034758133003 -0.289971148127421 C15.97039439774958 -1.3312466362333846, 15.937568708702175 0.042701770064853484, 15.907564332802318 0.36370035166336123 M10.839374289730403 1.5937785706371876 C14.01324213527196 0.507565443241125, 18.836596551440707 0.15413076743739107, 22.164994917620575 1.4489631532983296 C25.493393283800444 2.743795539159268, 29.26237570710529 5.852028215844099, 30.80976448680962 9.36277288580282 C32.35715326651395 12.87351755576154, 32.42066901751272 18.792290155917268, 31.449327595846555 22.513431173050652 C30.477986174180387 26.234572190184036, 27.52446893402338 29.632804681297984, 24.981715956812614 31.689618988603122 C22.43896297960185 33.74643329590826, 19.47389014875767 34.99784054374992, 16.192809732581974 34.85431701688148 C12.91172931640628 34.71079349001304, 7.836713220083578 33.464829322525205, 5.295233459758446 30.828477827392458 C2.753753699433315 28.19212633225971, 1.5247219967216852 22.853250025930354, 0.9439311706311884 19.036208046085008 C0.36314034454069155 15.219166066239664, 0.17268016168409717 11.175977139900235, 1.8104885032154652 7.926225948320388 C3.4482968447468334 4.676474756740541, 9.198821872635465 0.48851622568558606, 10.770781219819396 -0.46229910339407 C12.342740567003327 -1.413114432473726, 11.10911230810258 1.5635748760506494, 11.24224458631905 2.2213339738424516" stroke="#000000" stroke-width="2" fill="none"></path></g><g><g transform="translate(37.5806464110845 184.08697398940575) rotate(0 0.19380322208718326 20.700866834291617)"><path d="M-0.3378550987690687 -0.6034726817160845 C-0.46414433944940237 6.50472359068486, -0.7228580662965609 34.998947562639565, -0.8593253007513086 42.0052063502993 M1.6856322450377048 1.6941002150438726 C1.4951016552563046 8.488134029859483, -0.7555684647135271 33.26530557726413, -1.2980258008633356 40.09336544264737" stroke="#000000" stroke-width="2" fill="none"></path></g></g><g><g transform="translate(36.378358852120414 226.62736463988284) rotate(0 8.133486093828537 13.23947394655957)"><path d="M-0.6034726817160845 0.9701808828860521 C2.3155966771971754 5.367327731357066, 14.053312995201136 21.872205086579164, 16.870444869373184 26.045025992057013 M1.2805654310435055 0.4339219010621309 C4.133083295358377 4.513872990713564, 13.772475352650666 20.34836153291686, 16.133133246872763 24.275696274301694" stroke="#000000" stroke-width="2" fill="none"></path></g></g><g><g transform="translate(33.63318656885804 224.48362008094068) rotate(0 -6.521579597201509 12.207860239520102)"><path d="M0.9701808828860521 0.401397792622447 C-1.2099332080999823 4.402122407735451, -11.014099610706076 19.4377446168714, -13.418539644685275 23.40087500896194 M0.020387117061763993 -0.4334723115898669 C-2.2293117697569045 3.809572666448666, -11.695138821543411 21.08399828790284, -14.013340077289081 24.849192790630095" stroke="#000000" stroke-width="2" fill="none"></path></g></g><g><g transform="translate(22.300828068422902 191.87768723936074) rotate(0 7.490484612879158 7.985349790880662)"><path d="M0.401397792622447 0.6728476781398058 C3.139972626466554 3.176186000648335, 13.126995710526913 13.397612012640613, 15.82797632134856 15.990210817937228 M-0.8470070955902338 -0.019511236175894675 C1.7714990641663493 2.0488602074416438, 11.956053724383326 11.80699887545504, 14.790823388168228 14.200973270122383" stroke="#000000" stroke-width="2" fill="none"></path></g></g><g><g transform="translate(39.15029920432016 207.35492985855473) rotate(0 11.62787737494952 -7.182380971383878)"><path d="M0.6728476781398058 -0.16972851343452922 C4.459284326004683 -2.302042546789672, 19.81310363942235 -10.152937037849556, 23.688800770075314 -12.39248640750841 M-0.4330460201762616 -1.3044399283267558 C3.16603471178457 -3.824170565843161, 19.065294845061743 -12.311249618751685, 23.07409250741198 -14.195033429333275" stroke="#000000" stroke-width="2" fill="none"></path></g></g><g><g transform="translate(73.72272837309447 157.4437876838084) rotate(0 -34.6564657208082 7.1164148477539015)"><path d="M-21.15570367920036 0.6349280018359422 C-22.518362709687747 1.7145863992557187, -24.97077713410806 6.642335039756252, -28.7605315560677 7.150798062658464 C-32.55028597802734 7.659261085560677, -40.66144750990015 2.492477743351118, -43.8942302109582 3.6857061392492163 C-47.12701291201625 4.878934535147314, -47.34583442866029 12.78123737393022, -48.15722776241601 14.310168438047054 M-22.703949878092956 -0.07733874253928663 C-24.20641454975466 0.6142145294532436, -25.676285372185223 5.154174816987468, -29.388549292741054 5.486631103134309 C-33.10081321329689 5.81908738928115, -41.893560781851825 0.7827273640271588, -44.97753340142794 1.9173989743417612 C-48.06150602100406 3.052070584656364, -47.576394775502095 10.44273497281671, -47.892385010197756 12.294660765021924" stroke="#000000" stroke-width="2" fill="none"></path></g></g><g><g transform="translate(42.84453797521138 163.7927933650726) rotate(0 -22.580063715366265 3.663963389145806)"><path d="M-17.20646211401286 -5.743475973215853 C-17.35293420176088 -6.627004343444915, -17.196561513159754 -10.7380656159273, -18.047374964197115 -11.82395133079399 C-18.898188415234475 -12.909837045660682, -20.6907374671059 -13.493487378930066, -22.311342820237023 -12.258790262416005 C-23.931948173368145 -11.024093145901944, -27.115715413129212 -9.787680167149562, -27.77100708298385 -4.415768631709624 C-28.426298752838488 0.9561429037303135, -27.179856525281522 17.85560203510697, -26.24309283936484 19.972678950223617 C-25.30632915344816 22.089755865340265, -23.409712058495238 12.725839042322146, -22.150424967483765 8.286692858990264 C-20.891137876472293 3.847546675658383, -19.478038328730264 -4.0554251427086765, -18.687370293296002 -6.662198149767672 M-18.332263642388458 -6.469052191601103 C-18.619229892576776 -7.186295717550875, -17.84191739310357 -9.861746383958927, -18.537012638569756 -10.60413097265546 C-19.23210788403594 -11.346515561351993, -21.09509112176991 -12.08875166534758, -22.502835115185572 -10.923359723780305 C-23.910579108601233 -9.75796778221303, -26.68808507295165 -8.303529455870198, -26.983476599063724 -3.611779323251802 C-27.278868125175798 1.079970809366594, -25.310872359177175 15.370284058017536, -24.27518427185802 17.227141071930074 C-23.239496184538865 19.083998085842612, -21.733784142605465 11.762266957399802, -20.769348075148795 7.52936276022343 C-19.804912007692124 3.296458563047058, -18.91614961517299 -6.155333019576477, -18.488567867117993 -8.170284111128156" stroke="#000000" stroke-width="2" fill="none"></path></g></g><g transform="translate(15.219953551033655 183.09875175935605) rotate(18.529685470617636 4.564054936052827 9.490208729867277)"><path d="M0.6641899470705872 -0.4601797396790072 C3.441295296072087 -0.020370270740113855, 6.001973481751777 -0.4808548512295773, 8.807787954215001 0.7588248460954536 M-0.11757977422501531 0.16543685959911958 C2.3126066534370517 0.18374530776355025, 5.1484404735874785 0.4344982408919785, 9.11112687673282 -0.08190312823393114 M7.425520450367288 -0.4863760833349644 C9.92549295234141 4.8246487104219264, 9.197601504057895 10.347777193055858, 9.008794007918224 18.14299455051481 M9.465076920644625 -0.48136296912162696 C8.926258535155334 6.808486422735203, 9.468947100807107 13.102041108083732, 8.710598607704517 18.70143229735493 M9.744540402558613 18.88599186316812 C7.225426056975024 19.843275868148915, 4.52659978492093 19.461129777896762, -0.16543892496925228 18.348586387009583 M8.963629644005136 18.985293575885827 C6.536451775853436 19.149615748380896, 3.95859353451681 19.032614780639868, -0.4388000248336209 18.530565950040717 M1.3079611926912686 19.11451179895547 C0.43220303711131425 11.106994392408337, 1.1998311187491029 5.691199540951673, -0.4034363959280298 -0.3699541542779927 M-0.14783043360850723 19.694521603676506 C0.3632031370311405 13.623378469166248, -0.12757640309848192 10.147379909629382, 0.5700105565334882 -0.9316169491694689" stroke="#000000" stroke-width="1" fill="none"></path></g><g transform="translate(18.419813681309847 308.70851991644815) rotate(0 15.381778045662088 14.157458227438212)"><path d="M15.249904981417329 0.8327411493356696 C18.232068219451413 0.8471440154802318, 22.95108122182665 2.0902814524683357, 25.38632865315915 3.8915273531771906 C27.82157608449165 5.692773253886045, 29.266712164078623 8.85947247473876, 29.861389569412328 11.6402165535888 C30.456066974746033 14.42096063243884, 30.481644175296942 18.014865053124012, 28.954393085161385 20.575991826277427 C27.427141995025828 23.137118599430842, 23.735848156506787 25.877375294866667, 20.69788302859899 27.00697719250929 C17.659917900691195 28.136579090151912, 13.880725622184958 28.403602737620457, 10.726602317714615 27.35360321213316 C7.572479013244273 26.30360368664586, 3.6199454048208466 23.42967167048757, 1.7731432017769322 20.7069800395855 C-0.07365900126698222 17.98428840868343, -0.8530767522570952 13.9807048034331, -0.35421090054887117 11.01745342672075 C0.14465495115935284 8.054202050008398, 1.556753191364784 4.734580393268758, 4.766338312026276 2.9274717793113876 C7.975923432687768 1.120363165354017, 16.17751436157083 0.4209746277781031, 18.90329982342008 0.17480174297652518 C21.629085285269333 -0.0713711418250528, 21.262648471463596 1.2752939401498846, 21.121051083121795 1.4504344705019196 M20.895469092559487 0.0020420853723361887 C24.116318928173175 0.7555240009161381, 26.73610162690621 4.110241425926471, 28.48110381586931 6.62622637804392 C30.226106004832413 9.142211330161368, 31.973243771148557 12.138291518266856, 31.36548222633811 15.097951798077027 C30.757720681527662 18.057612077887196, 27.524529693168176 22.403765478373124, 24.834534547006626 24.384188056904943 C22.144539400845076 26.36461063543676, 18.424269714037024 26.679654439512923, 15.225511349368798 26.980487269267936 C12.026752984700574 27.28132009902295, 8.157426761602437 27.71847424159358, 5.641984358997277 26.189185035435017 C3.126541956392116 24.659895829276454, 0.5163578629085814 20.861440049657553, 0.13285693373783225 17.804752032316564 C-0.250643995432917 14.748064014975574, 1.5895912700289452 10.703546592195448, 3.3409787839727816 7.849056931389081 C5.092366297916618 4.9945672705827135, 7.9772460885885685 1.9347111422257441, 10.641182017400851 0.6778140674783639 C13.305117946213134 -0.5790830072690163, 17.86914936918541 0.06541811998035443, 19.324594356846475 0.30767448290479926 C20.78003934450754 0.5499308458292441, 19.373920110283933 1.829571798680033, 19.37385194336724 2.131352245025033" stroke="#000000" stroke-width="2" fill="none"></path></g><g><g transform="translate(31.769106905554793 336.5483210222284) rotate(0 0.10328577147279816 16.99996745280282)"><path d="M1.0937257189303635 0.03417848758399478 C0.868242744953818 5.760982602267569, 0.02431681380364814 27.874123798455326, -0.4797401500410614 33.75586298699144 M0.208792992029339 -0.9934817517735064 C-0.16100732935454748 4.940645663152492, -0.3661232141895242 29.243532540030063, -0.8871541759847876 34.99341665737916" stroke="#000000" stroke-width="2" fill="none"></path></g></g><g><g transform="translate(31.480869059062798 371.6247078148941) rotate(0 5.80515455338093 11.17723763082762)"><path d="M0.03417848758399478 1.0297741670161484 C2.3045597115249583 4.2663743419095566, 10.592009344742273 17.20577665748432, 13.017325642535775 20.513326768290813 M-1.4070165357738733 0.524801659360528 C0.7082989513964604 4.443222179178863, 9.144222429141973 18.223573715410975, 11.769408598075001 21.82967360229474" stroke="#000000" stroke-width="2" fill="none"></path></g></g><g><g transform="translate(29.58512000770719 370.0343469229308) rotate(0 -6.0935843026328484 9.937171461623109)"><path d="M1.0297741670161484 -0.5711839634925127 C-1.1604832680451282 2.8307074363666205, -9.928511392289106 17.019279026308368, -12.047818891437297 20.44552688673879 M0.11126687536016111 1.7433405103348196 C-2.3695592517892425 4.823896124208959, -11.117909991537486 16.149494707783024, -13.216942772281861 18.846674638826354" stroke="#000000" stroke-width="2" fill="none"></path></g></g><g><g transform="translate(19.29845567690444 342.6265431646483) rotate(0 6.812995360767161 6.214338164226831)"><path d="M-0.5711839634925127 -0.4211017470806837 C1.7893154027479603 1.50896853686923, 11.81231885821507 10.569417350071381, 14.197174685026832 12.61019587071563 M1.3298057263344525 -1.6877841096371413 C3.6165802695768785 0.9613552355920691, 11.785338882514692 11.719010317104768, 13.772851722265907 14.116460438090813" stroke="#000000" stroke-width="2" fill="none"></path></g></g><g><g transform="translate(33.27750933327843 355.33674759921894) rotate(0 9.270576707915893 -5.515978697548974)"><path d="M-0.4211017470806837 0.9975666683167217 C2.5676450855686994 -0.60549923434897, 15.86280009356873 -8.18380694911101, 18.96225516291245 -10.189579379486663 M1.5586811063624917 0.47568522384390244 C4.294107963278119 -1.4359293230068553, 14.805197403427083 -10.30326277660423, 17.983049015439146 -12.029524063414705" stroke="#000000" stroke-width="2" fill="none"></path></g></g><g><g transform="translate(13.254920640215232 311.0513132956147) rotate(0 22.40027605033393 4.051829565362937)"><path d="M0.9975666683167217 -0.05935368351638326 C8.549164272369529 1.3685785718913939, 37.58951058448149 6.565358617482617, 44.73840166082433 8.14649178536598 M0.06215043984353552 -1.136118312701583 C7.552810362698223 0.4590048282500174, 36.92285909981323 7.831542196152641, 44.0729862620478 9.239777443427483" stroke="#000000" stroke-width="2" fill="none"></path></g></g><g transform="translate(27.555690443644608 282.6663911708331) rotate(10.74366233694554 11.39274650330782 16.01249491745085)"><path d="M1.4370690416544676 0.7597097028046846 L22.732557091547818 0.7304437626153231 L22.036358210875363 30.53926465744972 L-1.440040783956647 31.81630746359825" stroke="none" stroke-width="0" fill="#fff"></path><path d="M0.8972383011132479 -1.4099669624119997 C5.520821069582002 0.7362256261233557, 10.403973006141577 0.534461102140354, 21.742001510842414 1.6220075320452452 M-0.6274674916639924 -0.48329011257737875 C5.853838126198315 -0.1756159238052892, 13.984579741069899 -0.023565696878485615, 22.88485203372565 0.15959762874990702 M21.13091323493299 -0.22015889175236225 C23.35433381050914 8.391738226956447, 22.549724929035598 18.52260011312131, 23.834701336606116 30.360286806625126 M21.89762960063544 -0.0544700687751174 C23.366658795359108 8.095147998514529, 23.304945844891044 17.34790880414646, 23.140499782434375 32.55706538251489 M21.59963539956388 33.49243984083533 C15.642048452807241 31.97721115199269, 9.369445713203921 32.40379211751164, -1.0808987747877836 31.960232053798435 M23.38238043772307 32.37817682317346 C18.829612095644418 32.134754069182925, 13.78290816854379 31.087591268155627, 0.6918303286656737 31.366784855638443 M-1.8779306542128325 30.434380327266453 C-0.24912199910028632 24.603125119565533, 0.4522620088304693 12.183779015258168, -0.6444451343268156 -0.011079089716076851 M-0.06741053704172373 32.050956293855606 C-0.2586829426503147 20.32265738426049, 0.6217065391325984 8.072318107538912, -0.2228424334898591 -0.8271069889888167" stroke="#000000" stroke-width="2" fill="none"></path></g><g><g transform="translate(66.6107181609043 330.6576301759583) rotate(0 -32.60412133772547 0.39461230434892514)" fill-rule="evenodd"><path d="M-32.09850804456564 -3.8406837147760795 L-18.99639007020494 1.3072018477782485 L-12.67976331948708 -3.0865825828403386 L-17.077355771884818 3.6666268497040875 L-19.074419994181056 3.1760203431713476 L-33.03039574297974 3.075651453843223 L-44.50409518348987 4.491440995341122 L-48.88665685995511 -3.3709897378362257 L-43.22577623534393 -0.5306545730054478 L-34.19300769218298 -3.433173851399462" stroke="none" stroke-width="0" fill="#000" fill-rule="evenodd"></path><path d="M-32.27030128561946 -3.6722226237047124 C-30.624071338964796 -2.887653337110023, -24.286982271366647 0.9940997938304034, -21.933697918042704 1.821819589794242 C-19.58041356471876 2.6495393857580805, -19.41370039419266 1.6725119229334646, -18.150595165675792 1.2940961520783194 C-16.887489937158925 0.9156803812231742, -14.673144037835904 -0.9061968344757925, -14.355066546941504 -0.44867503533662867 C-14.036989056047105 0.008846763802535185, -14.926817387212324 3.3262380126838718, -16.242130220309395 4.039226946913303 C-17.557443053406466 4.7522158811427335, -19.370397958821773 4.394362715517603, -22.246943545523933 3.8292585700399577 C-25.123489132226094 3.264154424562313, -29.775109780433787 0.6461997297691227, -33.50140374052236 0.6486020740474334 C-37.22769770061094 0.6510044183257442, -41.7027504924031 4.612068390874679, -44.60470730605538 3.8436726357098223 C-47.506664119707665 3.0752768805449655, -50.99752747743358 -3.28055912052569, -50.913144622436086 -3.961772456941708 C-50.82876176743859 -4.642985793357726, -47.027586175989356 -0.5647725281733479, -44.098410176070445 -0.243607382786284 C-41.169234176151534 0.07755776260077993, -35.05425829738486 -1.5823265181988833, -33.33808862292262 -2.0347815846193242 M-33.44680995010825 -1.5019661622035905 C-32.07293861169944 -1.079775511015395, -25.988219443851047 -0.7854532005400571, -23.044044797405764 -0.07239414447490011 C-20.09987015096048 0.6406649115902568, -17.21629165069195 3.1799694456833656, -15.781762071436557 2.7763881741873515 C-14.347232492181165 2.3728069026913374, -14.111063377373522 -2.750635654957093, -14.436867321873411 -2.493881773450986 C-14.7626712663733 -2.237127891944879, -16.633120840061714 2.8922655198698077, -17.736585738435885 4.316911463223994 C-18.840050636810055 5.741557406578181, -18.486598586506364 6.373863752519212, -21.057656712118437 6.053993886674136 C-23.62871483773051 5.73412402082906, -29.04055267572702 2.772201029984844, -33.16293449210832 2.3976922681535355 C-37.28531630848962 2.023183506322227, -43.15398777932841 5.086991218952949, -45.79194761040623 3.8069413156862857 C-48.429907441484055 2.526891412419622, -49.41769331126441 -4.525523968686433, -48.99069347857527 -5.282607151446445 C-48.563693645886126 -6.039690334206457, -45.845771743249145 -0.9002897254246678, -43.2299486142714 -0.7355577808737855 C-40.614125485293656 -0.5708258363229033, -35.15488681584705 -3.8415412061423413, -33.29575470470878 -4.2942154841411515" stroke="#000000" stroke-width="1" fill="none"></path></g></g><g transform="translate(21.757170918989686 317.4281891262201) rotate(0 5.039178840062817 4.012753215986777)"><path d="M5.425736612624704 0.87672809720386 C6.579066154064707 0.9000524221527288, 8.167401693975261 0.8520464694311445, 8.883837976280416 1.2746242775983005 C9.600274258585571 1.6972020857654566, 9.805941373936715 2.672026875033309, 9.724354306455636 3.412194946206797 C9.642767238974557 4.152363017380284, 9.0775958068891 4.875668092531775, 8.39431557139394 5.715632704639226 C7.711035335898781 6.5555973167466774, 6.6260288651478865 8.142300449996828, 5.624672893484675 8.451982618851504 C4.623316921821464 8.76166478770618, 3.24828420625283 8.09955352486723, 2.3861797414146717 7.573725717767285 C1.5240752765765135 7.0478979106673405, 0.8706826984529079 6.013535734872358, 0.4520461044557269 5.297015776251835 C0.033409510458545955 4.580495817631313, -0.33723567599723514 4.08841674982677, -0.12563982256841388 3.2746059660441498 C0.08595603086040735 2.4607951822615295, 0.5804696388273303 1.0208490109690076, 1.7216212250286542 0.4141510735561127 C2.862772811229978 -0.19254686385678232, 5.892652376477227 -0.3259113354276963, 6.721269694639529 -0.36558165843322055 C7.549887012801832 -0.4052519814387448, 6.68718617070867 0.16579904483345476, 6.6933251340024675 0.17612913552296705 M2.6078356994915044 0.014985763890610126 C3.8371239501970464 -0.16360257780441043, 7.036938940703542 -0.3520310271055128, 8.370913610045235 0.29489479914144123 C9.70488827938693 0.9418206253883953, 10.27677530605631 2.9439196293188696, 10.611683715541668 3.896540721372334 C10.946592125027026 4.849161813425799, 10.901890411118995 5.600893335745948, 10.38036406695738 6.0106213514622295 C9.858837722795766 6.4203493671785115, 8.556711982713441 6.172892103371446, 7.482525650571981 6.354908815670026 C6.408339318430521 6.536925527968606, 4.777227130379337 7.1304584165314875, 3.935246074108621 7.102721625253713 C3.093265017837904 7.074984833975938, 3.0829759328657325 6.744441308520146, 2.430639312947681 6.1884880680033785 C1.7783026930296293 5.632534827486611, 0.19770535430378774 4.670914414717011, 0.021226354600311303 3.767002182153112 C-0.15525264510316514 2.8630899495892135, 0.7267926283878211 1.6170896795295202, 1.3717653147268223 0.7650146726199876 C2.0167380010658236 -0.08706033428954507, 3.705829729679318 -1.2900311557814166, 3.891062472634318 -1.3454478593040844 C4.076295215589318 -1.4008645628267522, 2.307519391515367 0.03859354420758376, 2.4831617724568233 0.43251445148398027" stroke="#000000" stroke-width="1" fill="none"></path></g><g transform="translate(26.330487966101714 320.59345736120997) rotate(0 0.2629136786119659 0.3452401840359016)"><path d="M0.9674230425134672 -0.007620643868731847 C0.9414845780623151 -0.01213931610665937, 0.3420185271642179 -0.28651400606953925, 0.15639497281342152 -0.3403403482121156 C-0.02922858153737487 -0.394166690354692, -0.05813776214869082 -0.4082534117420657, -0.14631828359131127 -0.33057869672419005 C-0.23449880503393172 -0.2529039817063144, -0.5517504577897133 -0.011025983711923398, -0.37268815584230114 0.12570794189513823 C-0.19362585389488893 0.2624418675021999, 0.8025858509075638 0.36922938912189096, 0.9280555280931619 0.48982485691817973 C1.05352520527876 0.6104203247144685, 0.5272853154035904 0.900423594644301, 0.3801299072712877 0.8492807486728707 C0.23297449913898508 0.7981379027014405, -0.0027292277325993777 0.3910387731830391, 0.04512307929934625 0.18296778108959838 C0.09297538633129188 -0.02510321100384233, 0.6886406790585512 -0.46004959490492403, 0.6672437494629615 -0.3991452038877736 C0.6458468198673718 -0.33824081287062313, 0.07983979120523704 0.4878406637007167, -0.08325849827419171 0.5483941271925012 C-0.24635678775362047 0.6089475906842858, -0.3406663988458843 -0.03328425747074657, -0.31134598741361097 -0.03582442293706639 C-0.28202557598133765 -0.03836458840338621, 0.14573513310317618 0.5930397696267866, 0.09266397031944823 0.5331531343945823 M0.1427030024117446 1.0166879511881421 C0.244784094911826 1.3774007684156724, -0.05386462387605673 1.0128566125671963, 0.24542477917020322 0.9715172460198465 C0.5447141822164632 0.9301778794724966, 1.7617577945231848 0.8971798862387119, 1.9384394206893043 0.7686517519040432 C2.115121046855424 0.6401236175693745, 1.7369583293293613 0.29617880653331063, 1.3055145361669198 0.20034844001183408 C0.8740707430044783 0.10451807349035755, -0.31942953667149987 -0.07027948283813396, -0.6502233382853442 0.19366955277518405 C-0.9810171398991885 0.45761858838850206, -0.707012002005894 1.7203520364981264, -0.6792482735161459 1.7840426536917422 C-0.6514845450263979 1.847733270885358, -0.5255299702587654 0.7612049753019345, -0.483640967346856 0.5758132559368789 C-0.44175196443494674 0.3904215365718233, -0.3844489605939106 0.7564019670137346, -0.4279142560446902 0.6716923375014088 C-0.4713795514954698 0.5869827079890829, -0.6127966792618237 0.42529374843165607, -0.7444327400515337 0.06755547886292351 C-0.8760688008412437 -0.29018279070580905, -1.4222495032060718 -1.6144587355560596, -1.2177306207829501 -1.4747372799109866 C-1.0132117383598285 -1.3350158242659136, 0.15338559347573172 0.48150453881842054, 0.48268055448719593 0.9058842127333617" stroke="#000000" stroke-width="1" fill="none"></path></g><g transform="translate(40.16399657104978 321.78586384299615) rotate(0 0.2655693723353352 0.45146793297004706)"><path d="M0.26299597265894764 -0.1755961800415229 C0.345008890126044 -0.4090706762166033, 0.1433595104082317 -0.4327576586263272, 0.10745929610298183 -0.48104079796457216 C0.07155908179773196 -0.5293239373028171, 0.02883378995238584 -0.7469889377787405, 0.04759468682744844 -0.46529501607099283 C0.06635558370251105 -0.18360109436324512, 0.19147808560607024 0.9663096731892815, 0.22002467735335743 1.209122732281914 C0.24857126910064462 1.4519357913745465, 0.20511756321034552 1.0615898750840969, 0.21887423731117156 0.9915833384848021 C0.2326309114119976 0.9215768018855074, 0.4092067625098576 0.7403756588997132, 0.30256472195831363 0.7890835126861457 C0.19592268140676966 0.8377913664725782, -0.23471610838876428 1.3810654886577884, -0.4209780059980924 1.283830461203397 C-0.6072399036074205 1.1865954337490057, -0.9648237205729416 0.492393786135748, -0.815006663697655 0.20567334795979797 C-0.6651896068223683 -0.08104709021615208, 0.2975058333352415 -0.3793677236922749, 0.47792433525362754 -0.43649216785230316 C0.6583428371720136 -0.4936166120123314, 0.20508222242972188 -0.07474437755517274, 0.2675043478126613 -0.13707331700037145 C0.32992647319560076 -0.19940225644557016, 0.9187270491576405 -0.7930114784055018, 0.8524570875512641 -0.8104658045234954 M1.2385884431173488 -0.15003075972869007 C1.666885055546002 0.08174630805824121, 1.3556082239202267 1.2827870641920838, 1.3241271762330915 1.4919921610552591 C1.2926461285459563 1.7011972579184345, 1.2302143774211767 1.4242734142357727, 1.049702156994538 1.1051998214503624 C0.8691899365678992 0.7861262286649522, 0.42638677961769467 -0.2312932584882834, 0.24105385367325913 -0.42244939565720185 C0.05572092772882359 -0.6136055328261203, -0.2411026437955955 -0.171067843472161, -0.062295398672075314 -0.04173700156314836 C0.11651184645144488 0.08759384034586429, 1.2911489387616253 0.29567447165296534, 1.3138973244143803 0.35353565579687407 C1.3366457100671354 0.4113968399407828, 0.2371719820412468 0.42599171081582343, 0.07419491524445523 0.30543010330030396 C-0.08878215155233632 0.18486849578478448, 0.3454610815163739 -0.10410734439021224, 0.3360349236336311 -0.3698339892962428 C0.32660876575088826 -0.6355606342022733, 0.28244991988390034 -1.3943419067233722, 0.017637967947998517 -1.2889297661358792 C-0.24717398398790333 -1.1835176255483861, -1.4368560064221088 -0.042823378045301064, -1.2528367879817799 0.262638854228715 C-1.068817569541451 0.5681010865027312, 0.702399793068861 0.5616596310920241, 1.1217532785899722 0.5438436275082172" stroke="#000000" stroke-width="1" fill="none"></path></g><g transform="translate(10 113.078125) rotate(0 29.5 12)"><text x="0" y="19" font-family="Cascadia, Segoe UI Emoji" font-size="20px" fill="#000000" text-anchor="start" style="white-space: pre;" direction="ltr">Users</text></g><g transform="translate(80.8125 43.84765625) rotate(0 19.990234375 206.845703125)"><path d="M0.1668344009667635 1.2633690666407347 C13.531972060578482 -1.4501771275028659, 25.72308513828102 0.21146166882663237, 39.78237901814282 -1.9894464779645205 M-0.5170568013563752 -0.8488582735881209 C11.615098158550609 -0.5220471135586194, 21.20723599046687 -1.033143859288066, 40.33104657288641 0.7420885497704148 M39.33598979633159 -0.3242428402854962 C41.237574401864855 98.19337738277353, 40.735179353936964 195.56362585105327, 39.45616809414633 413.3083030062052 M40.063618080557895 0.5077845788279993 C40.9465567929851 145.16598982446803, 40.586967423654386 288.9127139086785, 39.79537859579502 413.72625816836495 M39.749021695926785 413.5106590818614 C28.309488259006685 414.0627002874115, 16.371345279239904 413.8917470732429, 1.957129942253232 414.310848755762 M39.24965651985258 414.65424480382353 C24.948851666342307 413.5054077755323, 11.339658102810063 412.96306675184877, 0.4385325228795409 414.09481816831976 M-0.8311217802216337 413.4964250465105 C1.720658829344845 326.1232718650724, 2.3558412268696127 241.21513464798548, -0.554597554282557 1.0465103516896002 M0.06802441288987082 413.8747162475802 C-1.6752196202662306 293.46359305960726, -1.1040342938097367 173.77226863089, 0.2947953165292672 0.08520699675974118" stroke="#000000" stroke-width="1" fill="none"></path></g><g transform="translate(60.7109375 226.26171875) rotate(270.6321678021309 41 12)"><text x="0" y="19" font-family="Cascadia, Segoe UI Emoji" font-size="20px" fill="#000000" text-anchor="start" style="white-space: pre;" direction="ltr">Browser</text></g><g transform="translate(366.931640625 35.810546875) rotate(0 94 24)"><text x="94" y="19" font-family="Cascadia, Segoe UI Emoji" font-size="20px" fill="#c92a2a" text-anchor="middle" style="white-space: pre;" direction="ltr">Netlify Edge/CDN</text><text x="94" y="43" font-family="Cascadia, Segoe UI Emoji" font-size="20px" fill="#c92a2a" text-anchor="middle" style="white-space: pre;" direction="ltr">(static assets)</text></g><g transform="translate(344.48828125 10) rotate(0 113.7734375 51.78515625)"><path d="M-0.7862715820587578 0.2605896916971942 C57.18965611206919 0.2866826523496867, 114.06632151639117 1.1798398296749775, 228.62427439189094 -1.6228254314962294 M229.37978222407398 0.26461327634751797 C229.02830136501845 25.403619095004252, 228.60337955439147 50.240750752894385, 228.07687958516178 103.42164284549654 M228.06548466911696 103.20408964551851 C165.28315414614235 102.93784983231058, 101.71177277915834 102.93657367291793, 0.7334368924922112 104.8543225665292 M-1.0169605370610952 101.86822802387178 C-2.307577526941095 72.86432302012471, -2.3253662351510864 44.995982820454806, 1.4933330062776804 0.6775460299104452" stroke="#c92a2a" stroke-width="2.5" fill="none" stroke-dasharray="12 8"></path></g><g><g transform="translate(319.84194927550857 65.61561439868069) rotate(0 -95.40562034081665 54.616566432715985)"><path d="M0.7716367755085229 -0.3212094280868768 C-31.054023235229167 18.08309158499093, -159.87007869823532 91.22455414360024, -191.58287745714193 109.55434229351887" stroke="#c92a2a" stroke-width="2.5" fill="none" stroke-dasharray="12 8"></path></g><g transform="translate(319.84194927550857 65.61561439868069) rotate(0 -95.40562034081665 54.616566432715985)"><path d="M-172.74697568396317 84.81297996612928 C-178.3989188533579 94.07209127875566, -183.02308908956556 96.51969455049833, -189.98399344645446 109.28442218840429" stroke="#c92a2a" stroke-width="2.5" fill="none"></path></g><g transform="translate(319.84194927550857 65.61561439868069) rotate(0 -95.40562034081665 54.616566432715985)"><path d="M-162.5543150596456 102.62392243932045 C-170.60051469310224 107.53876056664372, -177.74828798788158 105.57654872159992, -189.98399344645446 109.28442218840429" stroke="#c92a2a" stroke-width="2.5" fill="none"></path></g></g><g transform="translate(309.84765625 152.1640625) rotate(0 149.333984375 68.14453125)"><path d="M0.1121693380727638 1.141387610382493 C115.93223187018468 0.32335385176154885, 231.58347297802908 -1.9772297648585737, 297.838521939364 0.22561105866427195 M299.1611604746431 -1.1422597523778677 C301.94513537280835 31.51101605040094, 299.11576851003446 62.549143308868224, 298.1533455308527 134.91165103949606 M297.5670933704777 135.36568404138688 C224.18896422370312 139.74753315507493, 150.79648780209675 137.91257310871472, -1.182787164145891 135.52642727619 M-1.9635153356939554 135.44029321707785 C-0.14541031635708324 88.07014036907276, -2.2717113069385957 41.15814219941238, 0.3898204620927572 1.0235256794840097" stroke="#364fc7" stroke-width="2.5" fill="none" stroke-dasharray="12 8"></path></g><g transform="translate(319.19140625 181) rotate(0 146.5 36)"><text x="146.5" y="19" font-family="Cascadia, Segoe UI Emoji" font-size="20px" fill="#364fc7" text-anchor="middle" style="white-space: pre;" direction="ltr">Netlify Functions</text><text x="146.5" y="43" font-family="Cascadia, Segoe UI Emoji" font-size="20px" fill="#364fc7" text-anchor="middle" style="white-space: pre;" direction="ltr">(AWS Lambda in Netlify's </text><text x="146.5" y="67" font-family="Cascadia, Segoe UI Emoji" font-size="20px" fill="#364fc7" text-anchor="middle" style="white-space: pre;" direction="ltr">AWS account)</text></g><g><g transform="translate(294.8359375 208.8043050795677) rotate(0 -82.34494431354108 5.862689525839244)"><path d="M-0.5084332320839167 -0.180545922741294 C-27.90617120799919 1.9661681598115477, -136.9540653957675 9.692028350973384, -164.18145539499818 11.905924974419781" stroke="#364fc7" stroke-width="2.5" fill="none" stroke-dasharray="12 8"></path></g><g transform="translate(294.8359375 208.8043050795677) rotate(0 -82.34494431354108 5.862689525839244)"><path d="M-28.174608996922263 10.893050988773071 C-20.75535365125421 7.625274822736298, -10.083498653788755 5.038392328866166, -1.9734194912016392 -0.5322597943246365" stroke="#364fc7" stroke-width="2.5" fill="none"></path></g><g transform="translate(294.8359375 208.8043050795677) rotate(0 -82.34494431354108 5.862689525839244)"><path d="M-29.6747782695772 -9.5732504489372 C-21.946027157059824 -6.345194370820483, -10.798496928883491 -2.4426007531368654, -1.9734194912016392 -0.5322597943246365" stroke="#364fc7" stroke-width="2.5" fill="none"></path></g><g transform="translate(294.8359375 208.8043050795677) rotate(0 -82.34494431354108 5.862689525839244)"><path d="M-137.143049962299 -1.6660619916353685 C-147.26969385407895 2.6490289443384554, -153.94362426656832 7.876793777712762, -165.6464416541159 11.554211102836438" stroke="#364fc7" stroke-width="2.5" fill="none"></path></g><g transform="translate(294.8359375 208.8043050795677) rotate(0 -82.34494431354108 5.862689525839244)"><path d="M-135.59978404297487 18.797034858257426 C-146.04961485125256 16.61712706604917, -153.21288562392914 15.356431901902457, -165.6464416541159 11.554211102836438" stroke="#364fc7" stroke-width="2.5" fill="none"></path></g></g><g transform="translate(305.11328125 378.98046875) rotate(0 152.388671875 57.75390625)"><path d="M-1.1363932011319693 0.5059914899563914 C71.82973154955612 -1.4676950655597973, 140.00417713297196 0.18221519842401812, 305.3143037040739 -0.8390840602829994 M304.13732268847525 1.5433391388505697 C303.06935677638137 26.511363051973603, 303.43365768303954 54.874046007455036, 303.6161507014185 115.55816442333162 M305.92113773167284 115.38198576774622 C234.31804391753178 115.46818591456343, 166.5790336267542 113.56357828102796, -0.044285307188029824 116.08790112036213 M0.38003762997686863 116.30424911342561 C1.1262495499653595 74.05258147183122, 0.5678495746655244 34.70332433743896, 1.932559872046113 -1.4024164620786905" stroke="#087f5b" stroke-width="2.5" fill="none" stroke-dasharray="12 8"></path></g><g transform="translate(319.701171875 406.9765625) rotate(0 140.5 24)"><text x="140.5" y="19" font-family="Cascadia, Segoe UI Emoji" font-size="20px" fill="#087f5b" text-anchor="middle" style="white-space: pre;" direction="ltr">AWS/Amazon S3</text><text x="140.5" y="43" font-family="Cascadia, Segoe UI Emoji" font-size="20px" fill="#087f5b" text-anchor="middle" style="white-space: pre;" direction="ltr">(Minibri Temp's account)</text></g><g><g transform="translate(288.765625 405.8417723883141) rotate(0 -78.11281432248649 -67.03718398916453)"><path d="M0.28496594689786425 1.1912227068096397 C-25.669591054692848 -21.155475493380525, -130.2214173052459 -112.86311360006084, -156.51059459187078 -135.2655906851387" stroke="#087f5b" stroke-width="2.5" fill="none" stroke-dasharray="12 8"></path></g><g transform="translate(288.765625 405.8417723883141) rotate(0 -78.11281432248649 -67.03718398916453)"><path d="M-25.722283007587073 -9.746139010096543 C-22.88259018235479 -8.845845154519672, -12.90866034054146 -3.96157150547549, -0.6509509481489659 -0.4532180987298491" stroke="#087f5b" stroke-width="2.5" fill="none"></path></g><g transform="translate(288.765625 405.8417723883141) rotate(0 -78.11281432248649 -67.03718398916453)"><path d="M-12.23789980562681 -25.215185911846227 C-12.71619070359265 -20.65183731317592, -5.907435992032743 -12.136530504600639, -0.6509509481489659 -0.4532180987298491" stroke="#087f5b" stroke-width="2.5" fill="none"></path></g><g transform="translate(288.765625 405.8417723883141) rotate(0 -78.11281432248649 -67.03718398916453)"><path d="M-126.49908408290523 -124.71133005104386 C-136.59631425409844 -128.72271351841206, -139.77160908394723 -128.88314584926752, -157.44651148691761 -136.9100314906782" stroke="#087f5b" stroke-width="2.5" fill="none"></path></g><g transform="translate(288.765625 405.8417723883141) rotate(0 -78.11281432248649 -67.03718398916453)"><path d="M-139.9351495062863 -109.20029693508206 C-146.72532278144615 -116.88447578456932, -146.74678406254492 -120.68579665499419, -157.44651148691761 -136.9100314906782" stroke="#087f5b" stroke-width="2.5" fill="none"></path></g></g><g><g transform="translate(459.89511171812796 296.2109375000001) rotate(0 0.42004949464677566 36.89107212759552)"><path d="M0.9958512213081121 1.1343037638813256 C1.0500687775985285 13.43060213662682, -0.08219764780209286 60.8405363354831, -0.1557522320146063 72.64784049130965" stroke="#000000" stroke-width="2.5" fill="none" stroke-dasharray="12 8"></path></g><g transform="translate(459.89511171812796 296.2109375000001) rotate(0 0.42004949464677566 36.89107212759552)"><path d="M12.689732079674336 30.115636117011796 C9.695581877505107 24.01149831813025, 6.031382143936664 13.212320964073488, 0.8149591766297817 1.2944150961935519" stroke="#000000" stroke-width="2.5" fill="none"></path></g><g transform="translate(459.89511171812796 296.2109375000001) rotate(0 0.42004949464677566 36.89107212759552)"><path d="M-7.828793008513109 29.78377682263875 C-5.4930598714289625 23.59561487436048, -3.8242513963681404 12.882691689811265, 0.8149591766297817 1.2944150961935519" stroke="#000000" stroke-width="2.5" fill="none"></path></g><g transform="translate(459.89511171812796 296.2109375000001) rotate(0 0.42004949464677566 36.89107212759552)"><path d="M-8.076400105902875 44.92582025530173 C-6.506434305451549 53.39678054708245, -5.072585212999414 57.33547755363295, -0.33664427669293673 72.80795182362188" stroke="#000000" stroke-width="2.5" fill="none"></path></g><g transform="translate(459.89511171812796 296.2109375000001) rotate(0 0.42004949464677566 36.89107212759552)"><path d="M12.442215270408388 45.25204935400768 C8.682221249333319 53.808497899144335, 4.783038666201162 57.662404090867014, -0.33664427669293673 72.80795182362188" stroke="#000000" stroke-width="2.5" fill="none"></path></g></g></svg>