<svg version="1.1" xmlns="http://www.w3.org/2000/svg" viewBox="0 0 1003.8877258300781 221.03701782226562" width="2007.7754516601562" height="442.07403564453125">
  <!-- svg-source:excalidraw -->
  
  <defs>
    <style>
      @font-face {
        font-family: "Virgil";
        src: url("https://excalidraw.com/Virgil.woff2");
      }
      @font-face {
        font-family: "Cascadia";
        src: url("https://excalidraw.com/Cascadia.woff2");
      }
    </style>
  </defs>
  <rect x="0" y="0" width="1003.8877258300781" height="221.03701782226562" fill="#ffffff"></rect><g stroke-linecap="round" transform="translate(10 77.47067260742188) rotate(0 84.56614685058594 32.56517028808594)"><path d="M0 0 C0 0, 0 0, 0 0 M0 0 C0 0, 0 0, 0 0 M1.21 11.61 C4.97 6.31, 7.66 3.03, 11.33 -0.71 M0.73 12.27 C2.27 8.83, 5.24 7.18, 10.42 0.62 M-0.61 25.36 C7.39 14.42, 14.65 6.74, 22.5 0.53 M-0.54 23.19 C5.27 19.2, 11 11.75, 20.82 -0.73 M1.44 35.53 C7.32 27.59, 17.09 20.04, 30.2 -1.54 M-0.92 35.99 C10.83 24.49, 19.42 12.2, 32.46 -0.43 M1.3 50.13 C12.18 33.12, 22.45 19.43, 43.17 1.43 M-0.58 48.26 C13.93 34.61, 25.82 18.38, 42.47 -0.9 M0.42 59.63 C11.62 47.11, 24.86 30.93, 52.48 -1.83 M-0.67 60.42 C16.17 43, 33.5 23.09, 52.3 0.36 M2.87 69.96 C17.41 52.33, 31.55 37.77, 62.07 0.38 M4.82 68.48 C25 44.71, 46.04 19.36, 64.03 0.08 M15.73 67.98 C24.65 56.12, 38.74 41.85, 73 -0.63 M15.42 67.92 C29.73 52.77, 41.99 37.39, 73.72 -0.62 M25.59 67.27 C37.48 52.97, 52.28 37.54, 85.85 0.77 M25.75 68.93 C47.54 43.93, 69.82 17.52, 85.71 -1.07 M36.54 68.64 C56.04 41.38, 77.39 18.72, 96.94 1.18 M35.49 67.46 C58.78 44.14, 80.57 18.45, 96.02 -0.89 M47.97 68.42 C59.79 52.21, 71.82 38.25, 104.72 -1.09 M46.28 68.9 C65.04 46.96, 85.47 23.1, 106.67 -0.84 M56.85 69.12 C78.57 46.56, 98.3 22.61, 117.37 -0.59 M57.96 69.26 C71.36 52.85, 84.21 36, 116.35 0.06 M66.09 68.1 C86.09 46.3, 107.6 22.48, 125.76 -1.12 M68.01 67.32 C89.63 43.25, 110.55 19.33, 127.42 0.76 M78.79 68.33 C102.2 43.67, 124.93 16.49, 135.84 1.59 M77.81 67.77 C100.2 41.33, 123.68 15.98, 137.3 0.74 M89.93 67.74 C104.11 49.49, 118.91 34.33, 149.55 -0.55 M89.39 68.15 C110.63 43.65, 132.9 18.04, 147.42 0.25 M99.33 66.95 C118.15 50.89, 133.63 29.92, 160.49 1.5 M98.34 68.95 C119.41 44.06, 140.6 20.02, 157.96 1.17 M107.96 70.45 C129.52 43.4, 152.38 19.88, 168.22 0.6 M109.29 68.35 C125.94 49.41, 143.62 28.76, 170.15 0.18 M118.95 70.32 C132.89 50.17, 150.07 34.69, 168.11 14.18 M120.8 68.28 C138.19 47.58, 157.7 26.54, 169.1 12.98 M129.2 67.6 C140.27 59.45, 147.91 47.77, 169.11 22.7 M130.12 69.4 C143.7 53.48, 155.92 38.8, 169.71 25.25 M139.7 67.04 C149.53 63.34, 154.96 55.27, 169.91 35.33 M141.47 68.24 C149.17 61.74, 155.43 53.31, 169.79 37.74 M151.87 69.76 C156.89 61.76, 164.74 53.93, 170.41 49.54 M151.43 69.32 C159.01 61.14, 165.44 54.06, 169.55 48.38 M162.35 68.32 C164.91 67.14, 166.43 64.76, 168.75 60.73 M163.06 68.53 C164.47 67.18, 166.04 65.23, 169.24 61.05" stroke="#ced4da" stroke-width="1" fill="none"></path><path d="M0.26 1.28 C44.51 -0.17, 90.98 -1.14, 169.18 0.21 M168.88 -0.66 C168.63 12.89, 167.61 30.41, 170.5 64.97 M168.53 63.18 C130.73 65.36, 96.78 68.48, 0.9 64.07 M1.03 64.35 C-0.1 41.69, 0.84 22.68, -1.35 -1.93" stroke="#000000" stroke-width="2.5" fill="none" stroke-dasharray="8 10"></path></g><g transform="translate(30.066146850585938 98.03584289550781) rotate(0 64.5 12)"><text x="64.5" y="19" font-family="Cascadia, Segoe UI Emoji" font-size="20px" fill="#000000" text-anchor="middle" style="white-space: pre;" direction="ltr">data/*.json</text></g><g stroke-linecap="round" transform="translate(241.30923461914062 10) rotate(0 157.61190795898438 21.954833984375)"><path d="M0 0 C0 0, 0 0, 0 0 M0 0 C0 0, 0 0, 0 0 M-0.06 6.73 C1.26 4.34, 3.4 2.21, 5.71 0.59 M-0.08 6.22 C1.04 4.9, 2.4 3.66, 5.34 0.37 M-0.93 13.35 C3.12 8.88, 9.22 4.78, 10.82 -0.07 M0.46 12.11 C2.14 8.8, 4.52 6.21, 11.03 -0.2 M1.13 17.39 C3.72 13.14, 8.01 7.09, 14.17 -0.71 M0.72 19.37 C4.15 13.09, 9.28 8.33, 16.29 1.16 M1.93 24.91 C8.95 14.99, 12.76 7.49, 20.63 0.38 M-0.14 23.77 C6.94 16.63, 13.79 7.79, 20.3 -0.41 M1.56 32.29 C7.13 22.31, 15.78 10.82, 26.65 0.21 M-0.13 30.37 C9.1 19.96, 17.75 10.15, 26.95 0.43 M0.93 38.5 C7.75 23.91, 19.09 12.97, 30.67 -1.82 M0.38 37.07 C9.48 24.45, 20.39 13.19, 31.54 -0.42 M-0.12 44.39 C14.21 27.3, 24.14 13.34, 38.22 0.75 M0.12 43.03 C9.58 30.23, 20.73 18.41, 35.89 0.59 M4.11 46.61 C14.62 33.91, 23.43 19.17, 43.5 0.11 M1.9 45.07 C17.73 26.45, 33.86 8.89, 43.01 -1.14 M8.19 47.81 C18.86 31.1, 32.71 19.27, 46.4 -1.08 M6.66 45.36 C17.58 32.56, 28.1 21.98, 48.14 0.78 M11.93 45.6 C24.57 31.99, 36.11 20.15, 54.14 0.93 M13.83 46.82 C24.26 33.12, 34.72 20.28, 53.35 -0.14 M19.95 45.45 C29.18 31.07, 42.37 19.29, 58.24 -0.27 M17.99 45.49 C31.82 29.21, 46.79 13.05, 58.68 -0.08 M21.95 45.14 C38.65 31.39, 50.06 16.07, 64.16 1.37 M23.13 45.47 C33.35 34.25, 43.95 22.68, 64.68 -0.77 M27.81 45.45 C43.49 30.01, 59 10.8, 68.31 1.13 M28.77 47.05 C41.55 32.01, 54.53 16.91, 69.53 -0.32 M35.12 46.83 C44.12 33.87, 54.94 21.71, 75.64 -1.88 M33.58 45.89 C44.21 33.8, 52.65 23.37, 73.61 -1.09 M40.25 48.12 C53.38 28.06, 67.55 12.7, 80.71 0.05 M39.43 45.16 C52.67 32.43, 64.37 17.39, 78.64 -0.49 M45.93 47.21 C60.92 28.91, 74.05 11.96, 85.22 -2.15 M44.99 46.71 C54.63 35.8, 64.04 25.67, 84.22 -0.89 M48.27 47.76 C66.19 28.22, 79.69 9.38, 91.09 -1.6 M49.86 45.22 C59.49 34.44, 71.36 22.91, 90.97 -0.38 M56.38 43.82 C65.3 36.77, 71.91 24.68, 94.04 -0.8 M56.12 45.34 C70.85 27.51, 85.4 11.48, 95.1 -0.71 M59.39 46.62 C71.11 31.73, 83.86 18.4, 100.62 1.05 M60.45 45.88 C72.36 31.99, 84.14 18.94, 101.48 -0.02 M66.02 45.15 C78.5 32.22, 86.99 20.97, 105.8 -1.24 M65.72 44.93 C78.93 30.62, 91.31 16.76, 106.29 -0.81 M71.67 44.93 C78.02 36.67, 88.12 26, 110 1.82 M71.07 46.06 C81.34 33.51, 92.61 21.51, 112.08 -0.66 M77.94 44.66 C83.8 36.17, 92.57 24.45, 116.04 1.86 M77.53 45.42 C87.79 33.88, 98.67 21.65, 115.69 0.56 M83.71 46.9 C92.82 35.37, 103.51 21.12, 121.46 1.54 M82.08 45.95 C92.35 31.85, 104.1 20.15, 122.68 0.2 M88.07 47.53 C94.27 36.53, 105.28 25.41, 128.85 1.54 M86.62 47.24 C99.66 31.19, 111.94 15.83, 126.65 1.16 M92.63 46.67 C100.21 35.81, 110.8 23.88, 132.77 -2.04 M93.32 45.99 C107.93 29.89, 122.13 13.3, 132.19 -0.16 M97.88 45.66 C108.45 33.16, 123.23 18.47, 138.83 1.05 M97.01 45.37 C110.52 30.66, 125.8 14.21, 137 0.27 M104.09 46.4 C115.72 29.02, 132.52 15.46, 143.22 -0.16 M103.12 45.92 C115.9 31.36, 129.05 15.74, 143.47 -0.71 M108.38 48.17 C117.36 36.8, 126.57 25.67, 147.79 0.88 M108.74 46.76 C119.23 33.49, 130.12 21.94, 148.76 0.69 M114.27 46.18 C127.5 33.29, 138.75 17.01, 155.63 0.89 M113.28 45.7 C127.28 28.83, 141.98 13.53, 154.41 0.36 M120.76 44.39 C129.81 35.97, 138.02 22.73, 158.09 1.48 M119.48 46.42 C128.22 36.36, 135.71 27.23, 158.41 0.48 M123.88 46.09 C133.02 33.91, 143.84 22.76, 166.38 1.79 M124.09 46.6 C133.29 34.9, 143.81 23.49, 164.83 0.62 M129.76 46.64 C141.41 32.55, 152.04 19.9, 170.6 1.25 M128.9 47.11 C144.94 29.19, 159.97 9.47, 169.9 -0.04 M136.18 44.16 C146.04 31.87, 161.38 15.66, 175.34 0.19 M135.35 46.13 C147.77 31.4, 159.59 16.89, 175.58 0.4 M141.65 48.19 C147.2 34.36, 159.45 24.77, 178.71 -1.41 M139.63 46.34 C153.92 29.94, 168.9 12.36, 179.68 0.74 M146.95 46.4 C162.56 27.17, 178.11 8.6, 183.93 0.71 M145.3 45.06 C158.59 31.41, 169.99 18.18, 185.47 -0.19 M152.22 45.28 C165.95 28.94, 179.73 13, 190.37 1.84 M150.31 45.4 C165.62 28.61, 180.07 11.91, 189.71 0.66 M154.5 44.8 C167.2 33.08, 180.34 16.8, 197.11 0.93 M155.69 46.44 C168.07 31.65, 181.66 17.89, 196.3 -0.3 M160.8 47.13 C175.84 29.41, 192.74 8.83, 202.04 -0.67 M160.56 46.35 C171.77 34.02, 181.81 22.03, 200.38 0.86 M165.67 47.29 C177.56 35.91, 186.29 23.75, 205.37 1.41 M166.76 46.59 C174.73 36.47, 185.05 25.7, 207.87 -1.28 M172.24 45.91 C188.96 27.84, 201.14 11.76, 212.72 1.34 M171.96 47.01 C184.96 32.65, 196.92 17.78, 211.61 0.72 M177.83 43.8 C188.8 32, 202.72 16.09, 218.71 -0.32 M178.22 46.08 C186.62 33.45, 197.67 22.95, 216.94 0.26 M182.94 46.77 C191.56 35.43, 198.74 25.07, 221.95 -1.85 M183.11 45.97 C191.92 37.01, 199.87 26.48, 221.78 0.9 M188.88 44.21 C197.38 34.77, 204.54 25.59, 228.67 0.23 M188.28 44.75 C199.67 32.23, 210.5 19.74, 228.26 -0.52 M194.81 45.84 C202.88 34.31, 209.25 27.29, 231.77 1.97 M192.57 45.56 C206.42 30.03, 219.77 16.24, 232.76 0.32 M199.28 44.37 C211.84 30.31, 225.56 13.22, 237.69 1.28 M198.61 44.72 C210.39 33.47, 220.46 21.1, 238.91 1.07 M205.31 44.2 C212.34 34.99, 223.48 23.12, 244.79 1 M203.89 46.92 C218.41 29.1, 233.43 11.8, 242.92 -0.84 M209.32 44.86 C221.36 33.51, 231.97 22.2, 247.68 1.75 M208.72 46.11 C218.34 35.41, 229.8 23.04, 247.95 1.21 M213.42 45.91 C229.41 27.31, 245.26 10.14, 254.13 1.41 M214.61 46.91 C229.6 28.05, 245.01 11.12, 254.08 -0.11 M219.81 45.95 C232.95 29.37, 245.45 15.66, 258.12 -0.21 M219.6 47.05 C233.45 30.49, 247.67 14.74, 259.4 1.12 M225.65 43.99 C234.64 33.47, 246.43 20.11, 265.44 1.33 M225.24 45.2 C238.03 30.74, 250.54 16.77, 264.58 0.21 M230.14 46.17 C244.02 28.38, 261.88 9.29, 270.69 -0.23 M230.7 47.2 C242.65 32.25, 254.42 18.29, 269.98 1.02 M234.05 46.44 C245.59 31.01, 260.75 19.25, 274.91 0.86 M236.3 45.19 C244.6 34.64, 254.52 22.92, 276.23 0.11 M238.85 45.24 C252.73 35.38, 260.6 22.43, 282.58 -0.97 M241.67 45.74 C248.68 36.1, 257.67 26.36, 281.35 -0.09 M246.2 46.21 C255.2 35.4, 262.35 25.51, 287.25 0.08 M247.28 45.06 C262.56 28.1, 277.3 9.96, 287.31 -1.16 M253.05 46.86 C264.38 31.84, 275.04 17.14, 292.54 1.88 M250.59 47.11 C259.43 36.28, 269.7 26.72, 291.17 0.54 M255.2 47.25 C266.02 36.68, 271.85 28.98, 297.72 1.03 M257.63 46.76 C268.75 32.7, 280.42 18.33, 297.62 -0.08 M262.36 44.69 C271.98 36.89, 281.28 25.83, 302.81 1.59 M261.07 45.99 C274.44 30.69, 288.05 15.66, 302.09 0.43 M265.7 46.44 C278.17 32.42, 288.41 22.65, 306.09 1.72 M267.83 44.99 C277.6 34.02, 286.57 22.25, 307.4 0.12 M272.93 44.37 C286.44 33.52, 296.23 18.77, 313.2 -1.59 M273.18 46.37 C280.09 36.06, 288.6 27.03, 312.75 0.87 M279.85 47.66 C291.06 30.43, 303.02 18.18, 317.37 -0.37 M278.32 46.24 C293.53 28.71, 309.47 10.73, 317.09 2 M281.44 45.51 C295.09 32.67, 305.83 20.42, 316.48 9.08 M282.48 46.47 C291.67 35.53, 302 25.15, 316.18 7.47 M287.38 43.75 C301.39 30.85, 309.79 21.27, 318.52 11.77 M288.52 45.74 C297.16 35.97, 305.18 27.19, 317.06 12.93 M293.12 47.66 C299.31 38.57, 309.08 28.27, 316.13 18.79 M293.01 45.79 C300.99 36.95, 308.4 29.27, 316.62 19.02 M299.5 46.51 C303.53 42.12, 305.05 37.79, 315.44 26.24 M299.84 46.5 C305.82 39.14, 312.47 31.57, 317.54 25.68 M303.75 44.46 C307.37 40.82, 313.55 38.28, 316.49 32.12 M304.31 46.1 C309.36 40.58, 311.86 37.48, 316.61 31.59 M310.55 45.19 C312.73 41.73, 314.87 39.18, 316.02 38.76 M310.4 45.98 C311.37 44.54, 312.4 42.03, 316.37 38.34" stroke="#ced4da" stroke-width="0.5" fill="none"></path><path d="M-1.07 -1.28 C114.02 1.44, 227.35 1.82, 314.87 -0.24 M313.53 -1.76 C313.53 12.57, 313.79 23.32, 314.17 44.54 M316.29 43.21 C246.46 45.65, 180.54 44.3, 1.23 42.94 M1.35 45.87 C0.84 30.29, -0.02 14.33, -1.4 -1.8" stroke="#a61e4d" stroke-width="1.5" fill="none" stroke-dasharray="8 9"></path></g><g transform="translate(253.475341796875 19.954833984375) rotate(0 146.5 12)"><text x="146.5" y="19" font-family="Cascadia, Segoe UI Emoji" font-size="20px" fill="#000000" text-anchor="middle" style="white-space: pre;" direction="ltr">$ processfile data/a.json</text></g><g stroke-linecap="round" transform="translate(239.52337646484375 87.12734985351562) rotate(0 157.61190795898438 21.954833984375)"><path d="M0 0 C0 0, 0 0, 0 0 M0 0 C0 0, 0 0, 0 0 M0 5.82 C1.98 4.37, 2.57 1.65, 4.68 -0.26 M-0.15 6.59 C1.53 4.26, 2.55 3.12, 5.01 0.49 M-0.09 11.48 C0.98 10.27, 3.16 6.18, 11.11 1.06 M0.53 12.68 C3.93 9.43, 5.85 4.5, 9.9 0.7 M0.87 17.6 C3.84 10.64, 10.15 7.76, 14.59 0.4 M-0.88 17.6 C6.08 11.62, 10.46 6.01, 16.27 0.22 M0.12 22.82 C5.98 18.48, 11.18 12.57, 21.15 -0.62 M-0.61 24.38 C5.62 18.09, 12.04 10.12, 20.86 -0.33 M-1.44 29.91 C7.06 21.11, 14.26 13.43, 28.2 -1.69 M-0.54 30.01 C7.14 23.08, 12.56 14.92, 27.15 0.95 M0.65 36.72 C10.5 24, 22.35 12.82, 33.44 -1.8 M-0.75 37.04 C8.64 27.41, 17.08 15.49, 31.77 0.8 M1.11 40.55 C12.62 27.8, 27.65 12.73, 36.34 -0.65 M0.75 42.31 C14.48 26.71, 27.02 11.68, 36.21 0.4 M4.27 45.72 C17.81 27.48, 35.13 9.67, 44.13 1.64 M1.85 45.59 C16.08 32.25, 28.24 15.97, 42.23 -0.37 M7.39 47.41 C20.22 31.91, 37.19 14, 49.23 -1.13 M7.17 45.38 C17.5 33.4, 29.81 20.31, 47.75 0.52 M13.44 46.24 C23.93 32.27, 35.42 19.12, 51.19 -0.95 M13.25 46.55 C28.22 27.75, 43.39 10.73, 52.28 -0.49 M19.05 46.77 C31.51 33.23, 44.5 18.19, 58.1 -1.27 M18.01 46.91 C27.89 34.51, 38.54 24.03, 58.82 0.81 M23.14 47.58 C39.4 30.13, 51.32 14.55, 64.56 -0.69 M23.83 46.25 C34.82 32.46, 46.84 17.88, 63.24 0.76 M30.39 45.64 C42.07 31.56, 53.86 16.95, 69.12 1.34 M28.5 46.8 C43.48 30.05, 57.75 12.89, 68.23 -0.81 M35.17 46.54 C45.58 32.42, 61.27 16.66, 76.17 0.84 M33.59 46.46 C44.42 34.97, 54.89 22.5, 74.68 -0.29 M40.96 44.84 C56.02 26.92, 73 7.6, 77.44 -0.36 M39.4 45.2 C55.07 28.58, 69.23 11.26, 79.58 1.12 M44.3 46.41 C54.87 35.28, 68.78 19.5, 85.9 1.61 M45.31 46.41 C55.16 34, 66.88 21.32, 85.44 -0.33 M50.25 44.69 C64.17 32.65, 76.4 18.66, 89.19 -0.91 M50.74 45.22 C58.59 35.23, 69.32 23.42, 90.21 0.5 M56.28 47.04 C69.17 29.87, 84.97 13.28, 95.59 1.09 M55.52 45.84 C68.11 30.86, 82.5 14.54, 96.64 -0.1 M59.74 47.04 C75.81 27.58, 89.07 12.58, 99.44 -0.31 M60.82 45.95 C70.09 34.07, 81.92 23.38, 100.24 0.73 M65.81 46.81 C79.57 26.96, 96.18 12.03, 107.08 -1.71 M65.54 45.97 C77.04 33.02, 87.6 21.95, 106.65 -1.31 M70.89 45.29 C87.53 28.26, 103.41 12.61, 110.27 1.97 M71.2 45.48 C82.57 32.95, 93.34 21.89, 111.56 -0.28 M78.59 44.61 C85.26 37.27, 94.81 27.08, 115.49 -1.49 M76.41 46.49 C85.72 35.08, 95.32 25.17, 115.45 1.05 M83.11 46.36 C90.98 34.32, 102.92 20.02, 120.68 0.99 M81.71 45.87 C90.39 34.67, 100.65 24.64, 122.8 0.82 M88.6 46.65 C96.75 33.65, 107.15 22.59, 125.91 0.33 M87.34 47.36 C97.19 34.66, 108.1 21.53, 126.26 0.7 M91.79 44.69 C105.77 31.9, 119.12 16.79, 132.68 0.35 M93.44 46.18 C104.57 31.41, 117.06 18.03, 132.39 -0.1 M98.77 45.37 C110.8 33.43, 123 16.95, 139.39 2.11 M97.22 46.71 C112.77 29.11, 127.18 12.12, 136.6 -0.38 M102.27 44.27 C114.55 30.66, 126.65 14.93, 141.23 -1.83 M103.74 45.45 C117.47 28.7, 132.51 12.24, 143.5 0.3 M107.04 46.03 C121.22 31.19, 135.83 14.96, 149.64 0.98 M107.77 46.47 C120.96 31.95, 133.05 16.9, 147.89 0.02 M111.87 44.62 C130.07 26.74, 146.32 11.23, 152.25 1.1 M113.25 45.69 C124.43 34.65, 133.39 24.56, 153.08 -0.17 M118.97 45.67 C130.6 31.1, 145.8 16.34, 160.32 -0.39 M119.13 46.26 C130.95 33.85, 142.14 19.63, 157.85 0.1 M123.9 46.78 C137.98 29.8, 155.86 13.25, 164.66 -1.66 M124.85 44.9 C137.05 31.09, 147.79 17.58, 164.84 -0.18 M129.07 47.83 C143.65 29.74, 157.24 14.98, 171.07 0.21 M130.19 47.22 C141.36 32.03, 153.79 20.13, 169.45 1.02 M133.6 47.32 C143.28 34, 156.44 24.54, 176.31 -0.42 M134.7 46.08 C147.59 30.86, 159.88 17.09, 174.25 0.04 M138.84 44.62 C153.63 30.29, 165.15 17.78, 179.49 -1.48 M139.61 46.95 C151.91 31.51, 165.85 16.84, 179.9 -0.05 M146.21 44.36 C159.53 31.39, 173.87 16.2, 186.04 1.1 M145.22 46.21 C158.73 30.53, 171.69 17.36, 185.55 -0.21 M150.74 46.66 C161.8 33.15, 174.51 18.59, 191.15 1.78 M150.82 46.53 C164.86 29.06, 180.14 12.26, 189.73 1.04 M154.93 47.53 C164.88 35.35, 174.58 24.96, 195.67 -0.35 M156.09 45.23 C170.15 30.06, 185.69 12.63, 196.76 -1.17 M162.21 45.1 C169.98 38.1, 176.99 25.06, 201.59 -1.2 M161.01 45.55 C177.55 28.78, 193.02 9.1, 201.68 0.41 M166.91 44 C178.98 33.13, 190.59 20.69, 207.96 -1.43 M167.27 45.08 C183.59 28.35, 197.86 9.25, 206.64 0.39 M171.64 45.63 C186.09 29.33, 204.4 8.61, 210.32 1.91 M172.16 47.06 C181.07 35.8, 190.04 24.53, 211.79 -0.83 M177.29 44.48 C186.97 36.5, 195.44 26.07, 216.66 -2.32 M177.98 44.71 C191.81 29.67, 206.62 11.53, 217.73 0.22 M184.41 46.46 C197.43 32.04, 209.97 16.86, 222.83 0.96 M181.98 46.61 C190.25 36.53, 199.89 26.3, 222.36 0.44 M187.18 45.2 C197.65 34.74, 206.42 25.75, 228.48 -0.64 M187.7 45.01 C200.58 30.46, 214.85 15.89, 227.34 -0.48 M194.85 44.35 C207.53 31.84, 217.27 14.81, 232.54 1.35 M192.96 45.22 C207.82 30, 222.65 13.44, 232.95 0.28 M197.65 45.92 C214.01 28.71, 226.82 12.91, 236.45 -0.72 M199.18 45.89 C210.76 31.94, 223.74 18.35, 237.88 0.76 M204.26 44.57 C214.37 36.12, 222.33 26.01, 242.89 -2.01 M203.36 46.41 C212.36 35.4, 221.63 26.44, 243.38 0.77 M207.07 44.69 C219.9 37.18, 225.84 25.23, 248.53 1.35 M208.78 45.97 C220.22 34.13, 229.75 21.98, 248.5 -0.4 M214.92 46.94 C222.98 33.48, 234.33 22.62, 253.26 1.33 M214.21 45.17 C224.06 36.06, 231.26 25.36, 254.76 -1.04 M219.79 44.84 C231.38 31.28, 243.46 19.89, 257.68 0.3 M220.09 46.62 C232.75 31.93, 245.49 15.48, 260.13 0.47 M224.08 47.79 C236.76 33.53, 246.87 22.58, 264.99 -0.64 M224.29 44.99 C237.3 32.27, 247.52 20.52, 264.43 -0.11 M228.1 45.46 C242.83 29.18, 259.04 12.86, 270.48 0.63 M231 45.43 C243.06 29.36, 258.72 14.12, 269.16 0.53 M233.95 46.01 C246.52 33.9, 255.02 24.39, 275.42 -0.41 M235.15 46.83 C243.9 35.31, 253.31 24.7, 275.02 -0.43 M240.97 44.46 C256.7 30.25, 271.82 11.88, 280.51 -0.63 M241.32 46.23 C256.22 30.05, 270.79 12.4, 281.71 -0.59 M245.7 44.99 C259.29 34.38, 268.14 21.96, 287.82 -0.93 M246.12 46.14 C262.75 26.99, 278.05 10.46, 285.42 0 M253.31 45.25 C264.02 28.59, 281.71 11.51, 290.27 0.08 M251.13 46.85 C262.8 31.82, 276.02 18.16, 290.68 0.23 M257.5 46.67 C264.25 35.21, 271.79 25.77, 297.47 -1.63 M257.28 45.85 C272.39 27.72, 288.2 10.06, 297.79 0.19 M259.99 46.79 C272.09 37.6, 280.89 26.26, 301.26 -1.15 M261.78 46.09 C273.88 31.04, 286.65 19.16, 302.73 0.6 M266.45 45.52 C279.14 30.8, 290.16 19.26, 309.59 -0.39 M268.49 45.38 C282.41 29.64, 296.77 12.76, 308.55 -0.91 M273.89 45.55 C287.25 32.15, 300.72 16.6, 311.95 -1.7 M272.87 46.73 C288.03 27.83, 303.85 10.09, 313.29 -0.39 M278.64 46.54 C288.4 34.35, 299.87 22.45, 316.05 1.92 M278.35 45.65 C289.5 33.91, 300.85 20.72, 316.07 2.19 M283.81 45.55 C293.12 35.8, 300.04 23.25, 317.21 9.15 M283.27 46.54 C289.32 38.54, 296.35 30.46, 316.99 8.38 M287.14 47.26 C300 32.46, 308.31 22.78, 316.17 13.55 M289.25 46.02 C299.11 34.5, 307.39 23.38, 316.43 12.47 M292.54 44.34 C300.63 37.94, 306.91 29.93, 318.06 18.04 M294.13 45.28 C301.25 39.16, 306.41 31.77, 316.43 18.95 M297.96 43.73 C304.06 39.37, 307.99 34.41, 317.59 27.37 M300.34 45.39 C303.6 41.24, 308.72 34.59, 317.38 27.05 M302.93 46.94 C307.27 40.89, 312.14 39.41, 315.86 30.73 M303.88 45.7 C309.23 42.13, 313.35 35.52, 317.24 32.31 M311.11 45.1 C312.33 42.03, 314.69 39.72, 315.71 38.11 M310.33 45.37 C311.48 43.6, 313.28 42.06, 316.2 37.72" stroke="#ced4da" stroke-width="0.5" fill="none"></path><path d="M1.03 -0.45 C79.96 0.29, 160.36 0.88, 314.52 -0.07 M316.15 0.09 C315.67 14.8, 314.65 25.55, 314.34 45.37 M315.09 44.24 C208.47 44.31, 101.86 42.56, 0.3 44.51 M-1.74 42.52 C-0.72 32.67, -1.73 25.89, -1.22 -0.06" stroke="#a61e4d" stroke-width="1.5" fill="none" stroke-dasharray="8 9"></path></g><g transform="translate(251.44790649414062 97.08218383789062) rotate(0 146.5 12)"><text x="146.5" y="19" font-family="Cascadia, Segoe UI Emoji" font-size="20px" fill="#000000" text-anchor="middle" style="white-space: pre;" direction="ltr">$ processfile data/a.json</text></g><g stroke-linecap="round" transform="translate(240.52337646484375 167.12734985351562) rotate(0 157.61190795898438 21.954833984375)"><path d="M0 0 C0 0, 0 0, 0 0 M0 0 C0 0, 0 0, 0 0 M-0.29 6.37 C1.47 4.53, 3.42 1.9, 5.22 -0.14 M-0.22 6.77 C0.92 5.26, 2.12 3.78, 4.91 0.48 M1.09 12.77 C3.63 8.35, 6.71 6.38, 11.59 0.64 M0.32 12.15 C3.93 8.84, 6.78 4.22, 11.36 0.37 M-1.15 18.02 C5.05 10.44, 12.02 5.66, 16.81 1.29 M0.86 17.5 C4.3 14.55, 7.3 9.2, 15.27 0.95 M1.68 24.38 C5.63 18.91, 7.74 15.45, 20.48 0.41 M0 24.19 C4.79 17.82, 10.44 11.98, 22.23 0.91 M-0.65 31.92 C5.28 23.67, 13.59 15.49, 27.03 1.85 M0.18 30.68 C7.87 21.47, 15.07 12.97, 26.83 0.82 M-1.27 38.61 C11.88 24.06, 23.21 6.16, 32.83 -0.58 M0.31 36.03 C9.02 25.46, 20.5 12.97, 32.02 0.09 M0.73 43.08 C12.35 29.12, 22.79 15.28, 37.89 1.44 M0.95 43.51 C7.49 32.02, 17.56 22.68, 36.2 -0.53 M1.69 46.17 C15.62 29.82, 31.23 11.17, 41.78 1 M3.14 46.19 C18.82 27.49, 34.37 9.25, 41.64 0.33 M6.72 44.75 C21.38 31.12, 32.07 18.57, 47.05 0.29 M8.27 45.81 C22.55 29.21, 36.93 12.62, 47.35 1.07 M12.42 44.33 C27.94 28.23, 41.96 11.96, 51.19 0.89 M12.23 45.38 C24.81 32.33, 37.68 16.94, 53.54 0.42 M16.88 47.55 C29.28 31.6, 44.31 18.08, 58.09 0.12 M17.87 46.72 C33.26 28.89, 49.39 9.76, 58.5 -0.2 M22.28 46.27 C34.24 33.53, 44.13 21.27, 61.91 1.32 M23.12 46.61 C33.74 35.14, 42.98 23.45, 62.98 0.65 M28.39 47.88 C35.64 37.37, 47.83 25.54, 70.59 -1.81 M28.91 46.09 C44.97 28.3, 58.61 11.57, 69.16 0.79 M34.46 47.62 C48.08 33.25, 59.58 17.78, 73.74 1.07 M34.52 44.84 C46.56 31.46, 60.02 16.01, 74.97 -0.23 M40.69 46.89 C47.82 33.61, 59.85 24.19, 78.09 1.3 M39.57 46.51 C48.45 35.96, 56.4 25.77, 79.08 -0.82 M46.13 45.56 C54.61 37.28, 61.84 26.22, 83.45 1.46 M45.36 45.03 C53.73 35.41, 61.5 26, 85.27 0.02 M50.16 44.27 C62.04 32.31, 72.47 20.26, 90.1 -0.22 M50.82 46.02 C59.23 35.35, 66.72 26.89, 89.31 1.07 M54.41 44.78 C68.54 29.18, 82.01 16.82, 94.79 0.34 M55.88 45.09 C69.3 30.05, 83.14 13.47, 95.42 0.15 M60.19 44.24 C73.3 34.06, 82.62 21.76, 102.1 1.48 M61.39 45.19 C69.7 35.34, 79.86 24.13, 101.14 0.57 M66.43 47.53 C80.2 29.23, 94.92 12.25, 104.46 -1.94 M66.54 44.94 C77.91 33.02, 88.65 21.1, 105.73 0.37 M71.11 45.55 C80.51 35.88, 93.25 22.88, 109.54 1.8 M70.75 46.02 C86.08 28.12, 101.35 11.1, 111.12 0.75 M77.23 47.55 C91.95 27.68, 107.21 11.72, 115.51 0.3 M77.1 45.47 C90.43 29.56, 103.27 15.14, 115.61 0.13 M82.22 47.47 C96.13 29.75, 110.88 13.98, 121.82 1.65 M82.19 45.05 C92.4 33.3, 103.98 20.08, 122.09 0.7 M87.22 44.92 C100.29 30.72, 112.75 17.26, 125.88 0.97 M86.92 46.32 C101.71 28.43, 118.45 9.9, 127.21 0.1 M93.81 47.81 C105.76 32.09, 117.25 18.04, 132.34 1.48 M91.7 46.25 C103.4 31.79, 116.7 19.33, 132.14 0.45 M98.71 44.93 C105.55 34.87, 115.78 22.48, 138.54 0.81 M96.59 45.84 C108.72 35.01, 117.94 22.46, 138.47 -0.29 M105.1 44.93 C110.39 35.51, 119.55 26.17, 144.45 -0.71 M103.09 46.12 C111.99 35.5, 120.04 25.41, 143.63 0.04 M110.03 44.71 C124.9 28.88, 138.45 10.93, 150.08 -1.69 M109.01 46.63 C120.76 32.07, 132.1 17.81, 148.76 1.12 M112.33 47.68 C121.1 36.21, 133.13 26.88, 153.46 0.58 M112.91 46.63 C122.36 36.9, 129.29 28.44, 154.18 0.5 M120.11 48.14 C130.02 33.56, 141.24 18.78, 160.05 0.5 M118.98 45.53 C128.51 36.06, 137.91 25.06, 159.21 0.96 M122.66 45.49 C136.65 29.81, 151.06 14.48, 164.68 0.4 M123.47 46.21 C135.05 33.02, 145.47 22.04, 163.68 0.83 M129.88 44.64 C139.62 33.98, 147.72 21.76, 168.98 0.93 M129.58 45.35 C142.77 32.78, 153.9 18.23, 169.73 -0.65 M136.25 46.27 C141.56 35.53, 150.26 27.06, 175.35 1.32 M135.86 46.8 C148.04 30.63, 160.53 17.02, 175.29 -0.99 M140.22 47.17 C155.48 28.93, 172.58 9.97, 180.37 1.71 M139.15 45.9 C154.38 29.81, 168.08 14.11, 179.96 0.9 M144.21 46.51 C155.14 32.78, 168.48 20.44, 184.72 -0.54 M144.94 44.83 C162.39 26.3, 176.91 9.64, 186.42 -0.98 M149.99 46.21 C162.39 32.32, 173.6 20.34, 190.66 -0.54 M150.31 46.96 C162.31 32.49, 176.01 17.21, 190.35 -0.31 M154.64 45.19 C168.62 29.79, 181.47 16.69, 195.96 -1.55 M156.31 46.19 C164.79 36.75, 172.1 27.04, 195.78 -0.18 M162 47.77 C176.19 30.55, 191.65 12.92, 203.31 -0.67 M160.92 45.3 C172.49 31.9, 185.67 19.14, 201.08 0.31 M166.59 45.86 C181.81 29, 191.63 17.23, 206.26 -0.54 M167.37 45.28 C182.85 26.83, 198.02 9.28, 206.3 0.36 M173.04 47.39 C179.76 38.33, 186.73 25.01, 210.7 1 M171.13 45.68 C186.95 28.91, 200.58 14.48, 211.12 0.82 M176.08 46.56 C186.5 33.23, 199.36 21.66, 216.74 -0.81 M178.25 45.96 C187.95 35.2, 195.71 24.99, 218.21 0.55 M183.88 44.16 C195.01 34.06, 205.92 20.22, 224.2 0.7 M182.34 45.83 C193.95 32.13, 205.91 19.36, 223.19 -0.25 M190.11 45.89 C202.13 27.91, 218.81 12.14, 226.5 -0.12 M188.88 46.59 C204.42 29.06, 218.64 9.72, 227.98 0.3 M193.25 46.69 C203.82 33.24, 216.32 20.18, 232.15 1.17 M192.22 45.48 C205.53 33.55, 216.05 20, 232.78 -0.86 M200.64 44.98 C208.84 35.07, 218.72 22.26, 237.97 0.05 M197.93 45.02 C211.04 30.01, 223.96 17.22, 238.72 1.28 M203.83 47.1 C216.34 33.49, 225.37 21.71, 241.86 1.69 M203.72 45.34 C220.11 26.91, 235.21 8.97, 243.15 -0.51 M209.94 46.24 C221.53 33.34, 233.32 17.74, 249.5 1.48 M209.19 46.31 C220.64 34.01, 231.14 20.64, 249.75 0.84 M216.3 47.08 C229.44 28.73, 247.32 9.97, 253.61 0.08 M214.02 46.1 C224.96 32.93, 237.89 19.41, 254.33 0.81 M219.23 44.33 C229.87 34.22, 240.65 20.97, 261.43 -0.24 M219.18 46.78 C235.46 29.16, 249.24 12.24, 259.7 -0.39 M223.29 47.82 C235.34 35.39, 243.79 23.77, 266.63 -1.32 M225.61 45.43 C239.44 27.27, 256.13 11.13, 264.1 -0.43 M230.73 44.74 C240.04 33.71, 254.03 20.8, 268.75 -0.77 M230.22 45.47 C237.84 36.64, 245.7 27.63, 270.1 -0.56 M235.4 44.05 C249 32.17, 259.24 18.22, 277.14 -1.65 M235.21 44.99 C251.13 27.76, 265.6 10.93, 275.01 -0.25 M240.26 46.72 C247.58 37.27, 257.99 23.95, 282.4 -0.2 M240.05 46.15 C250.97 32.84, 262.01 21.35, 279.78 1.15 M247.21 46.05 C257.65 30.71, 270.41 18.87, 288.32 0.51 M246.83 45.44 C255.53 36.41, 263.35 25.13, 285.39 -0.22 M250.63 46.03 C262.47 36.15, 269.6 22.87, 291.3 -1.12 M252.18 47.1 C266.93 28.75, 282.05 11.03, 291.81 -0.43 M255.25 45.6 C264.46 36.53, 274.1 26.83, 296.32 1.08 M256.72 45.4 C269.35 30.97, 281.07 17.35, 296.32 -0.39 M261.62 45 C274.02 33.61, 287.32 17.02, 300.34 1.42 M262.89 46.05 C272.84 35.11, 282.1 23.52, 302.53 0.5 M268.04 46.03 C278.73 32.87, 289.3 19.18, 308.26 0.55 M268.42 46.49 C278.07 34.15, 288.65 21.59, 306.66 -0.34 M271.98 46.46 C287.84 29.09, 299.92 16.44, 312.36 1.9 M272.21 45.25 C284.42 32.43, 296.53 19.47, 312.55 -0.28 M280.05 44.21 C287.29 35.21, 296.21 25.32, 318.91 -0.59 M277.73 46.29 C286.42 37.16, 294.41 28.19, 316.69 1.33 M281.41 47.79 C293.6 35.16, 304.43 24.25, 315.62 5.89 M282.94 46.39 C296.7 31.01, 308.01 18.08, 317.18 7.55 M289.72 44.51 C297.16 34.91, 308.22 22, 315.46 14.25 M289.7 45.41 C295.93 38.24, 303.08 29.2, 317.95 14.07 M292.59 46.89 C300.9 39.52, 303.81 35.36, 317.55 17.92 M293.66 45.69 C301.21 36.79, 309.35 28.11, 317.19 19.72 M301.49 44.87 C304.4 42.29, 306.32 37.68, 318.46 25.33 M299.67 46.39 C306.05 38.09, 311.81 31.08, 317.09 25.95 M305.15 44.29 C305.75 43.44, 310.91 38.86, 318.74 32.48 M303.74 46.79 C306.96 42.95, 309.76 39.07, 317.88 31.46 M310.92 46.19 C311.97 42.96, 315.86 40.75, 316.44 37.91 M310.17 45.23 C311.39 43.43, 313.2 42.07, 317.01 37.95" stroke="#ced4da" stroke-width="0.5" fill="none"></path><path d="M-0.37 1.23 C103.69 1.05, 206.12 0.75, 314.86 1.16 M315.33 0.69 C314.12 10.2, 315.7 18.5, 315.44 41.93 M316.35 43.92 C204.14 43.21, 91.99 42.91, -0.51 43.76 M0.37 43.22 C-1.47 31.25, 0.92 17.22, 1.29 0.75" stroke="#a61e4d" stroke-width="1.5" fill="none" stroke-dasharray="8 9"></path></g><g transform="translate(252.68948364257812 177.08218383789062) rotate(0 146.5 12)"><text x="146.5" y="19" font-family="Cascadia, Segoe UI Emoji" font-size="20px" fill="#000000" text-anchor="middle" style="white-space: pre;" direction="ltr">$ processfile data/a.json</text></g><g stroke-linecap="round" transform="translate(610.5233764648438 85.12734985351562) rotate(0 157.61190795898438 21.954833984375)"><path d="M0 0 C0 0, 0 0, 0 0 M0 0 C0 0, 0 0, 0 0 M-0.48 10.83 C4.83 7.27, 6.88 4.71, 10.26 0.02 M0.75 11.68 C4.21 7.47, 7.65 3.47, 10.5 0.65 M-0.44 22.55 C7.89 14.77, 14.84 6.63, 19.3 0.99 M-0.64 23.59 C6.02 17.38, 12.9 8.88, 21.65 0.53 M-1.49 38.2 C8.48 24.94, 21.11 14.17, 31.84 -0.18 M-0.51 37.37 C11.79 23.07, 24.9 7.42, 32.25 -0.49 M1.02 46.34 C12.98 33.6, 22.87 21.34, 40.65 1.38 M1.86 46.67 C12.48 35.21, 21.72 23.52, 41.72 0.72 M12.77 47.55 C20.03 37.05, 32.22 25.22, 54.97 -2.14 M13.29 45.77 C29.35 27.97, 42.99 11.25, 53.54 0.47 M23.83 47.65 C37.45 33.29, 48.95 17.82, 63.11 1.11 M23.89 44.88 C35.93 31.49, 49.39 16.05, 64.34 -0.2 M35.7 46.53 C42.83 33.25, 54.86 23.83, 73.1 0.94 M34.58 46.15 C43.47 35.6, 51.41 25.41, 74.1 -1.18 M46.13 45.56 C54.61 37.28, 61.84 26.22, 83.45 1.46 M45.36 45.03 C53.73 35.41, 61.5 26, 85.27 0.02 M55.81 43.88 C67.69 31.91, 78.11 19.87, 95.75 -0.62 M56.46 45.63 C64.87 34.96, 72.36 26.5, 94.95 0.67 M65.04 44.75 C79.17 29.15, 92.64 16.79, 105.42 0.3 M66.51 45.06 C79.93 30.01, 93.77 13.44, 106.05 0.12 M76.46 43.81 C89.39 33.84, 98.53 21.75, 117.72 1.8 M77.66 44.76 C85.82 35.08, 95.82 24.04, 116.75 0.89 M87.03 48.21 C100.81 29.91, 115.52 12.94, 125.07 -1.25 M87.14 45.63 C98.51 33.7, 109.26 21.79, 126.33 1.05 M97.36 45.84 C106.76 36.17, 119.5 23.17, 135.78 2.09 M97 46.32 C112.33 28.41, 127.59 11.39, 137.37 1.05 M108.47 48.2 C123.43 28.05, 138.94 11.79, 147.4 0.19 M108.33 46.12 C121.9 29.96, 134.96 15.27, 147.5 0.02 M119.1 47.72 C133 30.01, 147.75 14.24, 158.7 1.9 M119.06 45.3 C129.28 33.55, 140.85 20.33, 158.97 0.95 M129.74 44.78 C142.81 30.58, 155.27 17.12, 168.4 0.84 M129.44 46.18 C144.23 28.29, 160.97 9.76, 169.73 -0.04 M141.31 48.03 C153.27 32.32, 164.76 18.26, 179.85 1.71 M139.21 46.48 C150.91 32.01, 164.21 19.56, 179.65 0.67 M151.86 44.76 C158.7 34.7, 168.93 22.31, 191.69 0.64 M149.75 45.66 C161.87 34.84, 171.09 22.29, 191.62 -0.46 M163.24 45.11 C168.53 35.7, 177.69 26.36, 202.58 -0.52 M161.23 46.31 C170.12 35.69, 178.18 25.59, 201.76 0.23 M173.81 44.5 C188.68 28.68, 202.23 10.72, 213.86 -1.9 M172.79 46.42 C184.54 31.86, 195.88 17.6, 212.54 0.91 M181.1 47.84 C189.87 36.36, 201.89 27.04, 222.23 0.73 M181.67 46.78 C191.13 37.06, 198.06 28.6, 222.94 0.65 M194.52 47.9 C204.43 33.32, 215.65 18.54, 234.46 0.25 M193.39 45.29 C202.92 35.81, 212.32 24.82, 233.62 0.72 M202.06 45.61 C216.05 29.92, 230.45 14.6, 244.08 0.52 M202.87 46.32 C214.45 33.14, 224.87 22.15, 243.08 0.94 M214.92 44.36 C224.66 33.7, 232.76 21.48, 254.02 0.66 M214.62 45.08 C227.81 32.5, 238.94 17.96, 254.77 -0.93 M226.27 46.36 C231.59 35.61, 240.29 27.14, 265.38 1.41 M225.89 46.88 C238.07 30.72, 250.56 17.1, 265.31 -0.91 M235.89 46.86 C251.15 28.62, 268.25 9.65, 276.04 1.4 M234.82 45.59 C250.05 29.5, 263.75 13.8, 275.63 0.59 M244.87 46.56 C255.8 32.83, 269.14 20.49, 285.37 -0.49 M245.6 44.88 C263.05 26.35, 277.56 9.69, 287.08 -0.93 M256.29 45.86 C268.69 31.98, 279.9 19.99, 296.96 -0.89 M256.61 46.61 C268.61 32.14, 282.31 16.86, 296.65 -0.65 M265.93 45.21 C279.9 29.81, 292.76 16.71, 307.25 -1.54 M267.6 46.2 C276.07 36.76, 283.39 27.05, 307.07 -0.16 M278.93 47.39 C292.63 30.73, 307.61 13.65, 318.93 0.46 M277.85 44.92 C289.04 31.97, 301.83 19.66, 316.7 1.44 M288.5 45.84 C299.81 33.46, 305.7 26.19, 316.37 13.02 M289.29 45.26 C300.07 32.1, 310.64 19.85, 316.41 13.92 M300.6 46.98 C302.61 43.45, 304.81 35.61, 315.29 27 M298.69 45.26 C306.19 37.85, 311.73 32.73, 315.71 26.82 M309.37 46.08 C311.22 43.24, 314.32 41.29, 316.25 37.87 M310.46 45.78 C312.06 43.98, 312.79 42.49, 316.99 38.54" stroke="#ced4da" stroke-width="1" fill="none"></path><path d="M-0.72 1.23 C122.75 2.15, 245.05 -0.29, 315.89 -0.34 M316.36 -1.69 C313.83 14.4, 316.62 26.4, 315.49 44.29 M315.64 44.31 C219.79 45.29, 123.12 44.62, 0.72 44.75 M1.61 45.9 C-2.26 32.65, 0.53 23.57, -1.34 -1.58" stroke="#1864ab" stroke-width="2.5" fill="none" stroke-dasharray="8 10"></path></g><g transform="translate(662.6352844238281 95.08218383789062) rotate(0 105.5 12)"><text x="105.5" y="19" font-family="Cascadia, Segoe UI Emoji" font-size="20px" fill="#1864ab" text-anchor="middle" style="white-space: pre;" direction="ltr">$ finishprocessing</text></g><g stroke-linecap="round"><g transform="translate(184.5194429088384 84.99939228408039) rotate(0 24.294291880168032 -29.135782658495003)"><path d="M-0.05 0.15 C8 -9.55, 40.21 -48.75, 48.64 -58.43" stroke="#1864ab" stroke-width="1.5" fill="none" stroke-dasharray="8 9"></path></g><g transform="translate(184.5194429088384 84.99939228408039) rotate(0 24.294291880168032 -29.135782658495003)"><path d="M38.57 -32.16 C39.86 -38.16, 44.11 -48.26, 49.76 -58.41" stroke="#1864ab" stroke-width="1.5" fill="none"></path></g><g transform="translate(184.5194429088384 84.99939228408039) rotate(0 24.294291880168032 -29.135782658495003)"><path d="M22.88 -45.39 C29.25 -47.08, 38.61 -52.87, 49.76 -58.41" stroke="#1864ab" stroke-width="1.5" fill="none"></path></g></g><g stroke-linecap="round"><g transform="translate(187.68704223632812 107.52914428710938) rotate(0 20.622744603082538 0.3739736784249601)"><path d="M0.79 0.2 C7.51 0.26, 33.79 0.5, 40.45 0.55" stroke="#1864ab" stroke-width="1.5" fill="none" stroke-dasharray="8 9"></path></g><g transform="translate(187.68704223632812 107.52914428710938) rotate(0 20.622744603082538 0.3739736784249601)"><path d="M21.31 5.99 C27.99 4.23, 33.99 3.06, 39.43 1.18" stroke="#1864ab" stroke-width="1.5" fill="none"></path></g><g transform="translate(187.68704223632812 107.52914428710938) rotate(0 20.622744603082538 0.3739736784249601)"><path d="M21.43 -8.14 C28.1 -5.46, 34.06 -2.19, 39.43 1.18" stroke="#1864ab" stroke-width="1.5" fill="none"></path></g></g><g stroke-linecap="round"><g transform="translate(187.87380981445312 126.88330078125) rotate(0 20.100252317264676 24.244212396070367)"><path d="M0.6 -0.72 C7.2 7.56, 32.91 41.02, 39.6 49.21" stroke="#1864ab" stroke-width="1.5" fill="none" stroke-dasharray="8 9"></path></g><g transform="translate(187.87380981445312 126.88330078125) rotate(0 20.100252317264676 24.244212396070367)"><path d="M12.88 32.77 C21.59 39.24, 27.92 41.05, 39.16 48.11" stroke="#1864ab" stroke-width="1.5" fill="none"></path></g><g transform="translate(187.87380981445312 126.88330078125) rotate(0 20.100252317264676 24.244212396070367)"><path d="M28.99 20.06 C32.81 30.42, 34.31 36.05, 39.16 48.11" stroke="#1864ab" stroke-width="1.5" fill="none"></path></g></g><g stroke-linecap="round"><g transform="translate(565.1253967285156 30.090773140816168) rotate(0 19.231240076944232 32.625470471726516)"><path d="M-0.18 -1.07 C6.19 10.18, 31.9 55.26, 38.65 66.32" stroke="#1864ab" stroke-width="1.5" fill="none" stroke-dasharray="8 9"></path></g><g transform="translate(565.1253967285156 30.090773140816168) rotate(0 19.231240076944232 32.625470471726516)"><path d="M13.75 45.44 C24.51 54.61, 30.56 58.82, 39.9 67.05" stroke="#1864ab" stroke-width="1.5" fill="none"></path></g><g transform="translate(565.1253967285156 30.090773140816168) rotate(0 19.231240076944232 32.625470471726516)"><path d="M31.44 35.05 C36.17 47.68, 36.29 55.37, 39.9 67.05" stroke="#1864ab" stroke-width="1.5" fill="none"></path></g></g><g stroke-linecap="round"><g transform="translate(566.6861877441406 106.70224113080855) rotate(0 18.456880171224498 0.07596547459144176)"><path d="M-0.65 0.16 C5.76 -0.04, 31.33 0.03, 37.56 -0.01" stroke="#1864ab" stroke-width="1.5" fill="none" stroke-dasharray="8 9"></path></g><g transform="translate(566.6861877441406 106.70224113080855) rotate(0 18.456880171224498 0.07596547459144176)"><path d="M20.09 6.21 C24.2 3.6, 28.12 2.73, 36.32 -1.79" stroke="#1864ab" stroke-width="1.5" fill="none"></path></g><g transform="translate(566.6861877441406 106.70224113080855) rotate(0 18.456880171224498 0.07596547459144176)"><path d="M20.08 -6.69 C24.31 -6.41, 28.24 -4.4, 36.32 -1.79" stroke="#1864ab" stroke-width="1.5" fill="none"></path></g></g><g stroke-linecap="round"><g transform="translate(566.4443664550781 187.09821385887244) rotate(0 18.49271931536498 -32.44858852738432)"><path d="M0.17 0.91 C6.47 -10.13, 30.68 -54.9, 36.81 -65.81" stroke="#1864ab" stroke-width="1.5" fill="none" stroke-dasharray="8 9"></path></g><g transform="translate(566.4443664550781 187.09821385887244) rotate(0 18.49271931536498 -32.44858852738432)"><path d="M33.72 -35.86 C32.61 -42.08, 35.75 -47.24, 37.34 -66.99" stroke="#1864ab" stroke-width="1.5" fill="none"></path></g><g transform="translate(566.4443664550781 187.09821385887244) rotate(0 18.49271931536498 -32.44858852738432)"><path d="M15.75 -45.75 C18.6 -49.84, 25.68 -52.83, 37.34 -66.99" stroke="#1864ab" stroke-width="1.5" fill="none"></path></g></g><g transform="translate(930.8877258300781 73.37582397460938) rotate(0 31.5 21.5)"><text x="31.5" y="35" font-family="Cascadia, Segoe UI Emoji" font-size="36px" fill="#1864ab" text-anchor="middle" style="white-space: pre;" direction="ltr">...</text></g></svg>