<svg version="1.1" xmlns="http://www.w3.org/2000/svg" viewBox="0 0 921.5661468505859 317.5" width="1843.1322937011719" height="635">
  <!-- svg-source:excalidraw -->
  
  <defs>
    <style>
      @font-face {
        font-family: "Virgil";
        src: url("https://excalidraw.com/Virgil.woff2");
      }
      @font-face {
        font-family: "Cascadia";
        src: url("https://excalidraw.com/Cascadia.woff2");
      }
    </style>
  </defs>
  <g stroke-linecap="round" transform="translate(196.62228393554688 41.95216369628906) rotate(0 32.56614685058594 26.565170288085938)"><path d="M0 0 C0 0, 0 0, 0 0 M0 0 C0 0, 0 0, 0 0 M1.21 11.61 C4.97 6.31, 7.66 3.03, 11.33 -0.71 M0.73 12.27 C2.27 8.83, 5.24 7.18, 10.42 0.62 M-0.61 25.36 C7.39 14.42, 14.65 6.74, 22.5 0.53 M-0.54 23.19 C5.27 19.2, 11 11.75, 20.82 -0.73 M1.44 35.53 C7.32 27.59, 17.09 20.04, 30.2 -1.54 M-0.92 35.99 C10.83 24.49, 19.42 12.2, 32.46 -0.43 M1.3 50.13 C12.18 33.12, 22.45 19.43, 43.17 1.43 M-0.58 48.26 C13.93 34.61, 25.82 18.38, 42.47 -0.9 M4.36 55.1 C14.56 43.67, 26.85 28.59, 52.48 -1.83 M3.27 55.89 C18.86 39.86, 34.96 21.37, 52.3 0.36 M13.37 57.88 C25.42 43.13, 37.13 31.36, 62.07 0.38 M15.31 56.41 C31.78 36.94, 49.16 15.79, 64.03 0.08 M26.23 55.91 C32.35 47.42, 43.53 36.5, 69.06 3.9 M25.92 55.84 C36.84 44.42, 45.85 32.77, 69.78 3.91 M36.09 55.2 C42.36 46.9, 51.79 37.64, 71.41 17.37 M36.24 56.85 C48.54 42.44, 61.46 26.79, 71.27 15.54 M47.03 56.57 C53.68 44.77, 61.77 37.37, 71.36 30.61 M45.99 55.38 C55.63 47.14, 64.1 36.76, 70.44 28.55 M58.46 56.35 C59.72 51.74, 61.41 49.67, 68.64 40.42 M56.77 56.82 C60.59 52.27, 65.86 45.85, 70.59 40.66" stroke="#ced4da" stroke-width="1" fill="none"></path><path d="M0.26 1.28 C16.08 -0.34, 34.12 -1.3, 65.18 0.21 M64.88 -0.66 C64.68 10.25, 63.67 25.15, 66.5 52.97 M64.53 51.18 C49.47 52.41, 38.24 55.53, 0.9 52.07 M1.03 52.35 C-0.1 33.73, 0.85 18.76, -1.35 -1.93" stroke="#000000" stroke-width="2.5" fill="none" stroke-dasharray="8 10"></path></g><g transform="translate(217.6884307861328 56.517333984375) rotate(0 11.5 12)"><text x="11.5" y="19" font-family="Cascadia, Segoe UI Emoji" font-size="20px" fill="#000000" text-anchor="middle" style="white-space: pre;" direction="ltr">t1</text></g><g stroke-linecap="round" transform="translate(198 128.43482971191406) rotate(0 32.56614685058594 26.565170288085938)"><path d="M0 0 C0 0, 0 0, 0 0 M0 0 C0 0, 0 0, 0 0 M-1.4 13.57 C3.74 7.18, 9.04 2.64, 9.19 -0.63 M-0.4 11.67 C3.23 8.17, 7.64 3.67, 10.47 -0.35 M1.58 24.74 C3.45 18.32, 10.39 14.16, 21.13 1.34 M-0.21 25.02 C5.48 18.55, 8.11 13.8, 20.54 -0.96 M-1.31 37.56 C13.88 24.4, 23.75 9.51, 30.39 1.66 M-0.04 37.14 C11.71 22.44, 25.61 7.42, 31.29 0.64 M0.01 49.75 C9.07 35.57, 20.36 26.46, 43.91 -0.7 M-1.01 48 C15.36 29.89, 33.29 11.4, 42.62 -0.29 M4.81 57.21 C20.72 37.26, 33.89 21.21, 54.04 -0.94 M4.62 56.04 C17.58 42.82, 29.6 27.15, 52.65 -0.66 M13.28 57.74 C31.72 36.21, 50.6 18.93, 62.91 1.69 M13.86 56.4 C29.78 38.05, 46.31 20.52, 63.8 0.64 M26.69 55.21 C37.89 42.03, 47.54 29.6, 69.12 4.78 M24.61 57.13 C36.51 44.66, 46.27 31.71, 70.08 4.7 M37.78 57.7 C47.14 42.85, 62.49 27.6, 69.72 14.96 M36.57 56.35 C47.29 42.02, 57.63 30.09, 70.42 16.8 M44.92 55.4 C52.05 48.57, 61.14 38.88, 70.08 28 M46.83 56.21 C50.49 49.92, 55.28 45.06, 69.1 29.54 M58.81 56.9 C61.4 53.02, 62.5 46.01, 71.52 42.15 M57.04 56.18 C60.19 52.21, 65.24 46.23, 70.75 40.22" stroke="#ced4da" stroke-width="1" fill="none"></path><path d="M-1.8 -0.79 C25.95 -0.23, 52.42 1.45, 64.46 -0.98 M65.26 0.35 C64.01 16.6, 66.73 29.03, 63.37 54.86 M63.71 54.44 C48.73 52.34, 34.16 52.21, -0.33 54.59 M-0.83 53.57 C2.15 32.77, -0.39 10.95, -0.15 -1.83" stroke="#000000" stroke-width="2.5" fill="none" stroke-dasharray="8 10"></path></g><g transform="translate(219.06614685058594 143) rotate(0 11.5 12)"><text x="11.5" y="19" font-family="Cascadia, Segoe UI Emoji" font-size="20px" fill="#000000" text-anchor="middle" style="white-space: pre;" direction="ltr">t2</text></g><g stroke-linecap="round" transform="translate(10 85.43482971191406) rotate(0 59.06614685058594 26.565170288085938)"><path d="M0 0 C0 0, 0 0, 0 0 M0 0 C0 0, 0 0, 0 0 M0.87 22.79 C6.51 15.26, 13.92 7.64, 19.85 -0.27 M-0.37 23.2 C5.86 16.13, 13.83 9.79, 20.97 -0.23 M1.44 47.88 C13.31 35.09, 24.11 19.56, 41.45 -0.43 M0.3 48.28 C14.82 31.97, 29.31 14.39, 42.68 0.66 M11.58 63.64 C25.1 41.75, 41.59 26.08, 64.47 -1.42 M10.65 60.9 C29.48 40.6, 46.9 17.55, 64.52 0.4 M29.83 62.18 C47.37 45.94, 62.56 28.06, 83.09 -2.19 M30.61 62.39 C48.87 42.22, 66.53 22.47, 85.95 -0.1 M50.96 62.93 C72.15 40.31, 92.74 15.78, 105.7 0.83 M51.52 60.85 C67.8 45.96, 82.41 29.39, 107.05 0.37 M75.54 62.52 C83.78 48.59, 95.57 34.78, 123.62 4.6 M74.21 62.09 C92.77 41.18, 110.52 19.76, 122.72 4.17 M95.53 61.93 C102.36 54.93, 108.15 45.39, 123.89 30.56 M94.06 60.8 C105.31 50.47, 113.13 40.33, 123.94 28.94" stroke="#ced4da" stroke-width="2" fill="none"></path><path d="M0.61 0.93 C43.44 2.27, 83.64 1.12, 116.5 -1.97 M118.64 1.43 C116.38 16.91, 117.14 35, 119.06 52.63 M116.25 52.8 C80.96 53.2, 46.25 50.68, -1.87 51.21 M-0.5 53.06 C2.02 39.92, 1.16 23.99, 1.01 -1.82" stroke="#c92a2a" stroke-width="4.5" fill="none" stroke-dasharray="8 12"></path></g><g transform="translate(28.566146850585938 100) rotate(0 41 12)"><text x="41" y="19" font-family="Cascadia, Segoe UI Emoji" font-size="20px" fill="#000000" text-anchor="middle" style="white-space: pre;" direction="ltr">&lt;start&gt;</text></g><g stroke-linecap="round" transform="translate(334 39.43482971191406) rotate(0 32.56614685058594 26.565170288085938)"><path d="M0 0 C0 0, 0 0, 0 0 M0 0 C0 0, 0 0, 0 0 M-0.58 11.37 C4.49 6.43, 8.82 3.35, 9.41 0.95 M0.19 12.42 C2.54 8.41, 6.1 4.89, 11.24 -0.18 M1.79 23.26 C8.99 15.73, 13.39 6.99, 22.29 -1.25 M0.82 24.32 C6.21 16.91, 12.08 10.61, 21.68 0.4 M-0.22 35.28 C6.2 26.9, 15.01 18.19, 32.1 -1.48 M-0.4 36.92 C10.57 25.99, 20.45 12.28, 32.78 0.88 M-0.28 50.07 C10.79 39.63, 20.33 29.01, 43.51 1.49 M0.59 48.06 C11.51 36.12, 23.7 22.28, 41.86 -0.94 M5.6 58.4 C17.2 44.27, 25.09 33.44, 51.22 -0.3 M3.29 56.13 C23.6 34.1, 41.27 12.32, 52.98 0.77 M14.92 58.35 C23.91 43.36, 37.42 30.9, 64.26 -1.47 M15.15 56.57 C27.53 42.9, 38.06 28.96, 63.2 0.26 M26.87 55.38 C37.15 43.12, 45.9 32.37, 68.83 5.54 M25.19 56.01 C41.93 37.46, 58.69 17.35, 69.81 4 M36.78 56.57 C48.39 44.1, 57.6 30.76, 70.15 14.76 M34.93 55.49 C49.03 41.35, 62.65 26.45, 69.77 17 M46.2 56.49 C54.25 50.39, 57.07 40.02, 70.43 30.69 M45.95 56.37 C52.92 49.82, 57.15 44.99, 70.02 29.9 M57.64 57.47 C60.11 51.21, 64.82 47.39, 68.4 41.72 M57.07 55.66 C60.87 50.68, 65.46 47.84, 70.58 40.34" stroke="#ced4da" stroke-width="1" fill="none"></path><path d="M0.51 1.77 C20.62 0.97, 43.28 2.14, 64.52 0.58 M64 1.87 C64.87 17.86, 67.01 31.22, 65.8 53.25 M66.28 51.76 C47.79 52.25, 34.23 54.62, 1.52 53.06 M-0.33 52.67 C-0.06 42.52, 1.41 30.5, -1.09 -0.19" stroke="#000000" stroke-width="2.5" fill="none" stroke-dasharray="8 10"></path></g><g transform="translate(355.06614685058594 54) rotate(0 11.5 12)"><text x="11.5" y="19" font-family="Cascadia, Segoe UI Emoji" font-size="20px" fill="#000000" text-anchor="middle" style="white-space: pre;" direction="ltr">t3</text></g><g stroke-linecap="round" transform="translate(283 244.43482971191406) rotate(0 32.56614685058594 26.565170288085938)"><path d="M0 0 C0 0, 0 0, 0 0 M0 0 C0 0, 0 0, 0 0 M-1.47 13.46 C4.85 6.95, 4.91 6.15, 10.51 0.88 M0.62 12.44 C4.59 7.27, 7.33 2.57, 11.2 -0.72 M0.7 22.76 C3.9 16.33, 9.5 10.58, 22.92 1.9 M1.17 23.11 C8.55 15.5, 17.56 4.46, 20.6 -0.37 M-0.14 36.53 C13.6 22.22, 25.53 9.36, 32.23 1.85 M0.07 37.12 C6.31 27.98, 14.32 19.46, 32.46 0.07 M0.03 47.75 C17.58 28.67, 31.57 10.59, 44.19 -1.12 M0.34 48.1 C14.85 33.63, 28.42 16.92, 42.51 -0.49 M2.93 55.11 C18.19 39.09, 32.42 23.18, 54.09 0.07 M3.37 56.2 C22.25 35.11, 42.59 12.56, 52.24 -1.01 M15.73 54.72 C31.35 37.39, 44.66 21.17, 63.52 -0.01 M13.58 56.57 C33.43 34.9, 50.37 14.44, 63.26 -0.13 M27.11 56.24 C44.77 36.94, 61.11 14.05, 71.02 5.5 M26.02 55.45 C35.45 45.29, 45.47 33.71, 70.45 3.69 M37.79 57.05 C44.06 45.63, 57 36.1, 70.11 16.05 M35.27 55.47 C47.64 42.91, 59.51 28.63, 71.4 16.49 M46.59 56.14 C55.88 44.74, 65.16 34.85, 71.11 27.69 M47.09 55.49 C51.93 48.03, 59.39 41.36, 70.78 29.83 M57.14 54.39 C58.95 50.98, 63.14 50.29, 68.77 42.48 M57.52 55.95 C59.08 53.93, 63 50.38, 69.38 40.24" stroke="#ced4da" stroke-width="1" fill="none"></path><path d="M1.57 0.83 C24.29 0.68, 47.76 -0.65, 64.24 -0.84 M65.13 -1.53 C65.93 17.31, 64.99 35.26, 65.28 54.09 M64.45 54.65 C49.85 53.86, 33.76 54.89, 1.52 52.31 M-0.68 54.16 C-1.16 32.88, -1.84 14.59, 1.12 0.48" stroke="#000000" stroke-width="2.5" fill="none" stroke-dasharray="8 10"></path></g><g transform="translate(304.06614685058594 259) rotate(0 11.5 12)"><text x="11.5" y="19" font-family="Cascadia, Segoe UI Emoji" font-size="20px" fill="#000000" text-anchor="middle" style="white-space: pre;" direction="ltr">t4</text></g><g stroke-linecap="round" transform="translate(544 246.43482971191406) rotate(0 32.56614685058594 26.565170288085938)"><path d="M0 0 C0 0, 0 0, 0 0 M0 0 C0 0, 0 0, 0 0 M-1.29 10.45 C3.63 9.4, 5.14 8.24, 11.81 1.52 M-0.06 11.54 C3.45 8.17, 6.96 2.89, 11.05 -0.04 M-1.3 22.7 C6.03 18.14, 15.9 10.68, 21.36 -1.12 M1.19 24.67 C8.19 14.01, 16.59 5.92, 20.89 -1.02 M-1.61 38.87 C9.04 25.6, 21.43 12.42, 31.85 0.45 M-0.79 37.07 C9.54 25.37, 21.19 13.45, 31.95 -0.77 M-1.34 47.07 C13.29 35.3, 25.41 19.18, 41.73 -1.57 M0.56 48.96 C15.29 31.67, 29.43 14.77, 42.93 -0.01 M3.99 55.04 C18.03 43.4, 29.11 30.11, 53.26 0.31 M4.74 56.87 C16.25 42.18, 27.1 29.53, 53.44 0.41 M13.79 55.46 C33.57 35.57, 50.43 17.09, 65.07 -2.05 M13.83 55.69 C24.34 44.14, 34.28 34.25, 63.43 -0.36 M26.21 56.43 C41.74 35.98, 62.22 13.28, 70.62 2.82 M25.32 56.65 C42.96 36.37, 59.57 16.3, 69.6 4.53 M36.17 58.1 C51.28 40.21, 63.05 25.68, 71.69 16.6 M36.19 56.36 C44.45 47.34, 53.29 37.61, 69.98 15.77 M45.13 56.82 C52.84 48.98, 59.51 39.13, 71.94 29.6 M45.71 56.5 C55.29 47.31, 64.53 36.16, 69.53 28.71 M55.39 55.93 C62.41 50.34, 66.49 45.27, 72.08 40.57 M57.79 56.99 C61.82 50.32, 65.19 46.93, 70.31 40.62" stroke="#ced4da" stroke-width="1" fill="none"></path><path d="M1.2 -1.24 C24.51 -0.82, 48.43 0.7, 63.54 1.32 M64.83 0.28 C64.75 16.07, 65.68 30.44, 64.65 53.15 M65.85 51.57 C49.57 54.53, 29.68 54.49, -0.05 51.95 M-0.38 51.27 C0.91 40.1, 0.2 24.48, -0.52 -0.4" stroke="#000000" stroke-width="2.5" fill="none" stroke-dasharray="8 10"></path></g><g transform="translate(565.0661468505859 261) rotate(0 11.5 12)"><text x="11.5" y="19" font-family="Cascadia, Segoe UI Emoji" font-size="20px" fill="#000000" text-anchor="middle" style="white-space: pre;" direction="ltr">t5</text></g><g stroke-linecap="round" transform="translate(408 130.43482971191406) rotate(0 32.56614685058594 26.565170288085938)"><path d="M0 0 C0 0, 0 0, 0 0 M0 0 C0 0, 0 0, 0 0 M-0.77 12.59 C2.99 6.29, 6.87 1.53, 11.6 0.42 M-0.42 11.28 C2.62 10.09, 4.26 7.77, 10.23 0.24 M2.17 25.23 C3.62 17.69, 10.44 12.21, 19.74 0.19 M-0.35 25 C7.92 16.18, 15.1 6.62, 20.34 0.89 M-0.92 36.9 C7.29 29.28, 15.71 17.91, 30.8 -0.12 M0.27 37.49 C7.36 27.36, 15.48 18.65, 32.29 -0.03 M0.82 49.87 C14.07 31.52, 28.01 15.73, 41.33 1.19 M-0.6 49.3 C17.83 30.52, 33.92 10.67, 41.83 -0.21 M4.66 57.48 C18.02 40.12, 32.93 24.64, 54.05 -0.04 M4.19 56.25 C22.6 34.54, 40.19 14.59, 53.31 -1.02 M14.15 55.61 C30.78 38.33, 46.83 19.74, 62.83 0.65 M15.37 55.55 C28.83 38.63, 44.12 21.23, 63.68 -1.09 M23.31 54.81 C44.59 35.96, 60.79 16, 71.4 5.14 M24.88 55.98 C39.79 40.54, 54.71 23.7, 69.79 3.59 M35 54.49 C48.31 44.33, 59.17 30.15, 71.3 17.04 M36.76 57.11 C45.59 45.4, 52.61 35.35, 69.73 15.94 M47.1 56.76 C56.15 47.57, 66.05 35.85, 71.78 29.65 M46.77 57.19 C53.78 48.26, 61 39.38, 69.26 28.87 M55.15 54.79 C63.61 51.08, 69.15 45.44, 71.39 39.43 M57.5 56.54 C61.15 53.22, 62.63 49.8, 70.78 40.67" stroke="#ced4da" stroke-width="1" fill="none"></path><path d="M1.95 0.73 C16.19 0.18, 37.45 1.61, 64.63 -0.28 M64.01 -1.71 C65.6 18.93, 65.49 36.04, 66.72 53.46 M65.25 52.98 C40.57 51.43, 16.05 51.89, 1.02 51.7 M1.26 51.52 C-2.04 37.04, -0.07 24.03, 1.4 1.41" stroke="#000000" stroke-width="2.5" fill="none" stroke-dasharray="8 10"></path></g><g transform="translate(429.06614685058594 145) rotate(0 11.5 12)"><text x="11.5" y="19" font-family="Cascadia, Segoe UI Emoji" font-size="20px" fill="#000000" text-anchor="middle" style="white-space: pre;" direction="ltr">t6</text></g><g transform="translate(175.56614685058594 10) rotate(0 51.5 12.5)"><text x="0" y="18" font-family="Virgil, Segoe UI Emoji" font-size="20px" fill="#c92a2a" text-anchor="start" style="white-space: pre;" direction="ltr">out: f1.txt</text></g><g transform="translate(326.06614685058594 10.5) rotate(0 41.5 12.5)"><text x="0" y="18" font-family="Virgil, Segoe UI Emoji" font-size="20px" fill="#c92a2a" text-anchor="start" style="white-space: pre;" direction="ltr">in: f1.txt</text></g><g transform="translate(351.06614685058594 282.5) rotate(0 95.5 12.5)"><text x="0" y="18" font-family="Virgil, Segoe UI Emoji" font-size="20px" fill="#c92a2a" text-anchor="start" style="white-space: pre;" direction="ltr">pipe: /tmp/comm.fifo</text></g><g stroke-linecap="round"><g transform="translate(356.56614685058594 271) rotate(0 88.53028714545076 0.8907980512827578)"><path d="M-0.24 -0.03 C29.23 0.08, 147.74 1.63, 177.3 1.81" stroke="#c92a2a" stroke-width="1.5" fill="none" stroke-dasharray="8 9"></path></g><g transform="translate(356.56614685058594 271) rotate(0 88.53028714545076 0.8907980512827578)"><path d="M-0.13 -14.65 C1.02 -9.82, 0.08 -4.97, -0.17 0.35" stroke="#c92a2a" stroke-width="1.5" fill="none"></path></g><g transform="translate(356.56614685058594 271) rotate(0 88.53028714545076 0.8907980512827578)"><path d="M-0.44 15.35 C0.53 10.06, -0.31 4.79, -0.17 0.35" stroke="#c92a2a" stroke-width="1.5" fill="none"></path></g><g transform="translate(356.56614685058594 271) rotate(0 88.53028714545076 0.8907980512827578)"><path d="M148.96 12.3 C159.82 8.68, 168.18 5.04, 177.4 2.32" stroke="#c92a2a" stroke-width="1.5" fill="none"></path></g><g transform="translate(356.56614685058594 271) rotate(0 88.53028714545076 0.8907980512827578)"><path d="M149.16 -8.22 C160.15 -4.91, 168.44 -1.63, 177.4 2.32" stroke="#c92a2a" stroke-width="1.5" fill="none"></path></g></g><g stroke-linecap="round"><g transform="translate(270.56614685058594 71) rotate(0 28.28725701458751 0.36342076793127376)"><path d="M-0.6 -0.74 C8.82 -0.82, 47.59 -0.37, 57.17 -0.09 M1.29 1.48 C10.51 1.49, 47.18 0.76, 56.32 0.88" stroke="#c92a2a" stroke-width="1" fill="none"></path></g><g transform="translate(270.56614685058594 71) rotate(0 28.28725701458751 0.36342076793127376)"><path d="M28.34 11.06 C37.2 7.26, 48.34 2.14, 54.81 -0.53 M29.4 10.56 C35.93 9.22, 40.8 6.95, 56.83 0.73" stroke="#c92a2a" stroke-width="1" fill="none"></path></g><g transform="translate(270.56614685058594 71) rotate(0 28.28725701458751 0.36342076793127376)"><path d="M28.24 -8.44 C37.18 -5.34, 48.37 -3.56, 54.81 -0.53 M29.29 -8.94 C36.03 -6.12, 40.92 -4.24, 56.83 0.73" stroke="#c92a2a" stroke-width="1" fill="none"></path></g></g><g stroke-linecap="round"><g transform="translate(137.56614685058594 109) rotate(0 26.032244144752667 -21.042888646200296)"><path d="M1.11 -0.46 C9.45 -7.33, 42.72 -34.89, 50.95 -41.63" stroke="#c92a2a" stroke-width="1.5" fill="none" stroke-dasharray="1.5 7"></path></g><g transform="translate(137.56614685058594 109) rotate(0 26.032244144752667 -21.042888646200296)"><path d="M34.96 -15.86 C42.19 -26.56, 49.23 -33.59, 50.62 -43.03" stroke="#c92a2a" stroke-width="1.5" fill="none" stroke-dasharray="1.5 5"></path></g><g transform="translate(137.56614685058594 109) rotate(0 26.032244144752667 -21.042888646200296)"><path d="M21.91 -31.7 C34.04 -36.52, 46.01 -37.55, 50.62 -43.03" stroke="#c92a2a" stroke-width="1.5" fill="none" stroke-dasharray="1.5 5"></path></g></g><g stroke-linecap="round"><g transform="translate(137.56614685058594 108) rotate(0 26.832641584798694 23.84193981774152)"><path d="M-0.67 -0.64 C8.51 7.6, 45.32 40.31, 54.33 48.32" stroke="#c92a2a" stroke-width="1.5" fill="none" stroke-dasharray="1.5 7"></path></g><g transform="translate(137.56614685058594 108) rotate(0 26.832641584798694 23.84193981774152)"><path d="M25.38 37.82 C33.54 39.09, 38.73 42.84, 53.63 46.52" stroke="#c92a2a" stroke-width="1.5" fill="none" stroke-dasharray="1.5 5"></path></g><g transform="translate(137.56614685058594 108) rotate(0 26.832641584798694 23.84193981774152)"><path d="M39.02 22.48 C43.78 27.35, 45.71 34.76, 53.63 46.52" stroke="#c92a2a" stroke-width="1.5" fill="none" stroke-dasharray="1.5 5"></path></g></g><g stroke-linecap="round"><g transform="translate(438.5686300844236 192) rotate(0 -64.19311216205574 21.84379576332867)"><path d="M-0.38 0.77 C-21.81 8.1, -106.92 35.57, -128.01 42.92" stroke="#c92a2a" stroke-width="1.5" fill="none" stroke-dasharray="1.5 7"></path></g><g transform="translate(438.5686300844236 192) rotate(0 -64.19311216205574 21.84379576332867)"><path d="M-22.67 17.51 C-17.36 12.96, -5.89 5.04, -0.66 1.31" stroke="#c92a2a" stroke-width="1.5" fill="none" stroke-dasharray="1.5 5"></path></g><g transform="translate(438.5686300844236 192) rotate(0 -64.19311216205574 21.84379576332867)"><path d="M-29.08 -1.98 C-21.71 0.29, -8 -0.83, -0.66 1.31" stroke="#c92a2a" stroke-width="1.5" fill="none" stroke-dasharray="1.5 5"></path></g></g><g stroke-linecap="round"><g transform="translate(443.8939914164007 192) rotate(0 62.32195332459946 21.85790044777096)"><path d="M0.5 0.74 C21.12 8.1, 103.26 35.66, 124.15 42.97" stroke="#c92a2a" stroke-width="1.5" fill="none" stroke-dasharray="1.5 7"></path></g><g transform="translate(443.8939914164007 192) rotate(0 62.32195332459946 21.85790044777096)"><path d="M31.73 -1.4 C18.69 1.72, 11.3 0.13, 2.26 -0.29" stroke="#c92a2a" stroke-width="1.5" fill="none" stroke-dasharray="1.5 5"></path></g><g transform="translate(443.8939914164007 192) rotate(0 62.32195332459946 21.85790044777096)"><path d="M25.1 18.02 C14.48 14.58, 9.32 6.46, 2.26 -0.29" stroke="#c92a2a" stroke-width="1.5" fill="none" stroke-dasharray="1.5 5"></path></g></g><g stroke-linecap="round"><g transform="translate(270.56614685058594 153) rotate(0 64.94588537749837 0.6681805319897762)"><path d="M0.13 -0.2 C21.83 0.15, 109.5 0.9, 131.15 1.1 M-1.26 -1.35 C20.22 -0.7, 108 2.08, 130.28 2.69" stroke="#c92a2a" stroke-width="1" fill="none"></path></g><g transform="translate(270.56614685058594 153) rotate(0 64.94588537749837 0.6681805319897762)"><path d="M101.46 12.36 C112.81 6.93, 123.38 3.58, 130.59 1.67 M101.9 11.9 C112.31 9.6, 123.81 5.35, 129.72 3.36" stroke="#c92a2a" stroke-width="1" fill="none"></path></g><g transform="translate(270.56614685058594 153) rotate(0 64.94588537749837 0.6681805319897762)"><path d="M102.07 -8.15 C113.01 -5.83, 123.35 -1.44, 130.59 1.67 M102.51 -8.61 C112.79 -3.29, 124.06 0.07, 129.72 3.36" stroke="#c92a2a" stroke-width="1" fill="none"></path></g></g><g stroke-linecap="round" transform="translate(555 83.43482971191406) rotate(0 32.56614685058594 26.565170288085938)"><path d="M0 0 C0 0, 0 0, 0 0 M0 0 C0 0, 0 0, 0 0 M-1.01 12.46 C3.57 9.41, 4.63 6.22, 11.15 1.51 M-0.65 11.77 C3.91 8.37, 6.32 3.24, 9.89 0.05 M0.42 23.15 C7 14.92, 16.09 5.8, 20.73 -1.55 M1.03 23.41 C3.74 19.87, 7.76 14.93, 20.91 -0.72 M-0.67 38.67 C7.44 27.54, 12.47 19.71, 32.07 1.44 M0.3 37.74 C7.36 26.58, 16.17 16.51, 31.95 -0.25 M0.65 50.76 C9.01 38.81, 22.07 24.39, 43.32 -0.62 M-0.64 49.08 C10.47 37.13, 19.75 26.84, 42.67 -0.88 M4.88 58.23 C13.89 43.56, 25.38 29.55, 53.99 0.99 M4.62 57.4 C16.05 43.54, 27.34 29.07, 53.37 -1.02 M13.85 56.33 C31.97 38.62, 49.99 18.56, 63.77 -0.44 M14.02 55.62 C33.91 33.58, 52.58 13.72, 63.97 0.18 M24.9 54.92 C40.72 39.18, 53.37 22.51, 69.31 3.72 M25.69 56.75 C42.94 36.39, 60.13 16.85, 70.21 3.75 M35.31 54.66 C43.43 46.19, 52.52 35.16, 72.1 15.77 M35.84 56.13 C44.87 47.24, 52.81 36.64, 70.08 16.15 M46.4 54.88 C53.29 44.24, 63.19 37.4, 70.42 29.65 M47.35 56.3 C56.43 45.01, 65.38 35.09, 69.16 29.36 M56.26 55.86 C60.03 52.87, 65.34 45.07, 68.9 42.38 M57.91 55.4 C61.85 52.37, 66.16 46.29, 70.69 41.29" stroke="#ced4da" stroke-width="1" fill="none"></path><path d="M-0.91 -0.98 C24.44 -2.26, 48.13 -0.2, 66.66 -1.63 M66.79 -1.54 C65.33 17.6, 65.63 32.93, 65.86 53.78 M66.89 51.67 C48.06 53.14, 29.88 50.66, -1.95 52.36 M-0.57 54.04 C0.96 34.74, 0.15 19.93, 0.7 -1.11" stroke="#000000" stroke-width="2.5" fill="none" stroke-dasharray="8 10"></path></g><g transform="translate(576.0661468505859 98) rotate(0 11.5 12)"><text x="11.5" y="19" font-family="Cascadia, Segoe UI Emoji" font-size="20px" fill="#000000" text-anchor="middle" style="white-space: pre;" direction="ltr">t7</text></g><g stroke-linecap="round" transform="translate(691.5 80.43482971191406) rotate(0 59.06614685058594 26.565170288085938)"><path d="M0 0 C0 0, 0 0, 0 0 M0 0 C0 0, 0 0, 0 0 M-0.68 25.71 C5.65 19.26, 12.08 13.48, 22.92 1.69 M0.45 24.66 C5.52 17.11, 13.17 9.45, 22.15 -0.49 M-0.86 48.15 C10.89 36, 24.21 19.31, 40.69 1.49 M0.86 47.98 C9.14 38.32, 17.84 28.34, 42.44 -0.8 M10.01 62.15 C22.52 46.31, 34.8 30.46, 63.01 -1.2 M10 61.19 C27.65 41.85, 43.93 22.01, 62.85 -0.16 M31.78 61.88 C52.64 37.69, 72.23 13.5, 83.79 1.27 M30.31 61.7 C43.7 47.05, 58.27 31.43, 84.64 -0.33 M53.4 62.89 C71.78 38.32, 91.85 16.25, 106.07 -0.82 M51.64 62.19 C67.97 44.97, 82.25 26.91, 106.69 -1.34 M72.64 61.98 C88.63 41.4, 108.29 24.02, 124.78 2.22 M74.41 62.46 C83.7 50.58, 93.92 38.7, 122.72 4.4 M95.56 62.38 C104.74 48.64, 116.61 37.29, 121.5 28.64 M95.55 61.69 C101.01 54.75, 108.24 47.31, 123.61 29.25" stroke="#ced4da" stroke-width="2" fill="none"></path><path d="M1.41 1.49 C35.02 -1.35, 71.72 0.35, 118.67 -1.11 M119.56 1.67 C118.99 12.61, 119.18 22.33, 119.31 52.83 M116.2 53.76 C90.06 52.68, 66 54.34, -1.95 54.11 M0.89 53.22 C-0.85 34.05, -1.04 17.9, 1.14 -0.53" stroke="#c92a2a" stroke-width="4.5" fill="none" stroke-dasharray="8 12"></path></g><g transform="translate(721.5661468505859 95) rotate(0 29.5 12)"><text x="29.5" y="19" font-family="Cascadia, Segoe UI Emoji" font-size="20px" fill="#000000" text-anchor="middle" style="white-space: pre;" direction="ltr">&lt;end&gt;</text></g><g stroke-linecap="round"><g transform="translate(627.5661468505859 108) rotate(0 29.54211243975908 -1.0499712239950867)"><path d="M0.96 -0.14 C10.91 -0.57, 49.77 -2.01, 59.08 -1.96 M0.01 -1.26 C9.94 -1.62, 48.85 -0.88, 58.69 -0.92" stroke="#c92a2a" stroke-width="1" fill="none"></path></g><g transform="translate(627.5661468505859 108) rotate(0 29.54211243975908 -1.0499712239950867)"><path d="M31.12 10.57 C36.56 4.14, 46.97 5.13, 59.76 -0.99 M30.74 8.05 C38.84 7.07, 44.05 4.4, 58.04 -1.57" stroke="#c92a2a" stroke-width="1" fill="none"></path></g><g transform="translate(627.5661468505859 108) rotate(0 29.54211243975908 -1.0499712239950867)"><path d="M31.28 -9.27 C36.77 -10.74, 47.15 -4.78, 59.76 -0.99 M30.9 -11.79 C38.96 -7.96, 44.14 -5.82, 58.04 -1.57" stroke="#c92a2a" stroke-width="1" fill="none"></path></g></g><g stroke-linecap="round"><g transform="translate(367.56614685058594 100) rotate(0 17.99235097456733 14.393893334977335)"><path d="M1.18 0.18 C7 5.01, 29.76 24.72, 35.65 29.57 M0.34 -0.78 C5.91 3.66, 28.57 22.5, 34.51 27.74" stroke="#c92a2a" stroke-width="1" fill="none"></path></g><g transform="translate(367.56614685058594 100) rotate(0 17.99235097456733 14.393893334977335)"><path d="M23.12 7.69 C15.95 6.44, 7.6 4.32, -0.43 1.22 M21.87 7.61 C16.85 5.9, 9.76 2.57, 0.99 0.92" stroke="#c92a2a" stroke-width="1" fill="none"></path></g><g transform="translate(367.56614685058594 100) rotate(0 17.99235097456733 14.393893334977335)"><path d="M12.84 19.71 C9.32 14.04, 4.66 7.6, -0.43 1.22 M11.59 19.63 C9.73 14.15, 5.81 7.12, 0.99 0.92" stroke="#c92a2a" stroke-width="1" fill="none"></path></g></g><g stroke-linecap="round"><g transform="translate(406.56614685058594 68) rotate(0 69.78218823187046 20.24692516680807)"><path d="M-0.51 -0.71 C22.71 6.09, 116.75 33.29, 140.08 40.12 M1.42 1.53 C24.42 8.52, 116.34 34.58, 139.17 41.2" stroke="#c92a2a" stroke-width="1" fill="none"></path></g><g transform="translate(406.56614685058594 68) rotate(0 69.78218823187046 20.24692516680807)"><path d="M108.06 43.43 C118.63 41.72, 129.78 43.64, 138.06 40.05 M109.79 43.28 C120.66 42.82, 130.88 42.98, 139.28 40.67" stroke="#c92a2a" stroke-width="1" fill="none"></path></g><g transform="translate(406.56614685058594 68) rotate(0 69.78218823187046 20.24692516680807)"><path d="M113.72 23.7 C122.13 29.11, 131.23 38.18, 138.06 40.05 M115.45 23.56 C124.47 30.12, 132.67 37.35, 139.28 40.67" stroke="#c92a2a" stroke-width="1" fill="none"></path></g></g><g stroke-linecap="round"><g transform="translate(480.56614685058594 156) rotate(0 31.697922180267028 -20.058436329187828)"><path d="M0.94 -0.53 C11.47 -7.34, 53.03 -35.15, 63.42 -41.93 M-0.03 1.81 C10.28 -4.79, 51.2 -33.91, 62.17 -40.88" stroke="#c92a2a" stroke-width="1" fill="none"></path></g><g transform="translate(480.56614685058594 156) rotate(0 31.697922180267028 -20.058436329187828)"><path d="M43.7 -17.55 C48.84 -25.64, 55.61 -31.09, 62.29 -41.6 M44.31 -15.74 C51.92 -25.08, 58.13 -34.65, 62.78 -41.6" stroke="#c92a2a" stroke-width="1" fill="none"></path></g><g transform="translate(480.56614685058594 156) rotate(0 31.697922180267028 -20.058436329187828)"><path d="M32.2 -34.54 C40.85 -37.31, 51.28 -37.36, 62.29 -41.6 M32.81 -32.73 C44.75 -35.84, 55.21 -39.15, 62.78 -41.6" stroke="#c92a2a" stroke-width="1" fill="none"></path></g></g><g stroke-linecap="round"><g transform="translate(662.6261468505859 206) rotate(0 24.11598845031108 -0.8809581745255741)"><path d="M-0.33 -0.32 C7.52 -0.42, 38.42 -1.42, 46.22 -1.61 M1.69 -1.53 C10.01 -1.35, 41.28 -0.4, 48.57 -0.16" stroke="#c92a2a" stroke-width="1" fill="none"></path></g><g transform="translate(662.6261468505859 206) rotate(0 24.11598845031108 -0.8809581745255741)"><path d="M25.74 6.02 C31.1 4.78, 36.47 2.76, 50.38 -0.24 M26.12 8.09 C35.69 4.3, 43.68 0.46, 49.23 -1.08" stroke="#c92a2a" stroke-width="1" fill="none"></path></g><g transform="translate(662.6261468505859 206) rotate(0 24.11598845031108 -0.8809581745255741)"><path d="M26.24 -10.03 C31.36 -7.64, 36.61 -6.03, 50.38 -0.24 M26.62 -7.95 C35.87 -5.44, 43.65 -2.98, 49.23 -1.08" stroke="#c92a2a" stroke-width="1" fill="none"></path></g></g><g stroke-linecap="round"><g transform="translate(664.0661468505859 245) rotate(0 22.679064877145038 -1.0593153340741992)"><path d="M-0.45 -0.6 C7.03 -0.94, 38.33 -1.3, 45.81 -1.51" stroke="#c92a2a" stroke-width="1.5" fill="none" stroke-dasharray="1.5 7"></path></g><g transform="translate(664.0661468505859 245) rotate(0 22.679064877145038 -1.0593153340741992)"><path d="M23.84 8.09 C33.08 2.85, 40.31 1.57, 44.22 -1.45" stroke="#c92a2a" stroke-width="1.5" fill="none" stroke-dasharray="1.5 5"></path></g><g transform="translate(664.0661468505859 245) rotate(0 22.679064877145038 -1.0593153340741992)"><path d="M23.54 -7.28 C32.96 -6.75, 40.3 -2.27, 44.22 -1.45" stroke="#c92a2a" stroke-width="1.5" fill="none" stroke-dasharray="1.5 5"></path></g></g><g stroke-linecap="round"><g transform="translate(663.0661468505859 278.99999999999994) rotate(0 22.654790820367566 -0.45560437767056783)"><path d="M-1.12 -0.26 C6.77 -0.37, 38.6 -0.76, 46.43 -0.62" stroke="#c92a2a" stroke-width="1.5" fill="none" stroke-dasharray="8 9"></path></g><g transform="translate(663.0661468505859 278.99999999999994) rotate(0 22.654790820367566 -0.45560437767056783)"><path d="M-1.61 -14.37 C-1.69 -11.77, -0.16 -9.99, -0.87 -1.52" stroke="#c92a2a" stroke-width="1.5" fill="none"></path></g><g transform="translate(663.0661468505859 278.99999999999994) rotate(0 22.654790820367566 -0.45560437767056783)"><path d="M-1.3 15.63 C-1.46 11.61, 0 6.79, -0.87 -1.52" stroke="#c92a2a" stroke-width="1.5" fill="none"></path></g><g transform="translate(663.0661468505859 278.99999999999994) rotate(0 22.654790820367566 -0.45560437767056783)"><path d="M24.51 8.38 C29.08 5.91, 35.8 2.16, 46.77 -2.3" stroke="#c92a2a" stroke-width="1.5" fill="none"></path></g><g transform="translate(663.0661468505859 278.99999999999994) rotate(0 22.654790820367566 -0.45560437767056783)"><path d="M24.52 -7.25 C29.09 -6.28, 35.81 -6.58, 46.77 -2.3" stroke="#c92a2a" stroke-width="1.5" fill="none"></path></g></g><g transform="translate(723.5661468505859 193) rotate(0 94 12.5)"><text x="0" y="18" font-family="Virgil, Segoe UI Emoji" font-size="20px" fill="#000000" text-anchor="start" style="white-space: pre;" direction="ltr">: ordered execution</text></g><g transform="translate(722.5661468505859 231.5) rotate(0 93.5 12.5)"><text x="0" y="18" font-family="Virgil, Segoe UI Emoji" font-size="20px" fill="#000000" text-anchor="start" style="white-space: pre;" direction="ltr">: parallel execution</text></g><g transform="translate(724.0661468505859 266.5) rotate(0 55 12.5)"><text x="0" y="18" font-family="Virgil, Segoe UI Emoji" font-size="20px" fill="#000000" text-anchor="start" style="white-space: pre;" direction="ltr">: blocking io</text></g></svg>