<?xml version="1.0" standalone="no"?>
<!DOCTYPE svg PUBLIC "-//W3C//DTD SVG 1.1//EN" "http://www.w3.org/Graphics/SVG/1.1/DTD/svg11.dtd" >
<svg xmlns="http://www.w3.org/2000/svg" xmlns:xlink="http://www.w3.org/1999/xlink" version="1.1">
<metadata></metadata>
<defs>
<font id="latin_modern_roman10_bold" horiz-adv-x="1177" >
<font-face units-per-em="2048" ascent="1651" descent="-397" />
<missing-glyph horiz-adv-x="784" />
<glyph unicode="&#xfb01;" horiz-adv-x="1308" d="M63 813v96h154v205q0 86 49 150.5t131 100t175 52.5t194 17q80 0 143 -22t99.5 -57.5t54.5 -76t18 -82.5q0 -62 -38.5 -98.5t-96.5 -36.5q-57 0 -95 37t-38 96q0 55 27.5 86t62.5 43q-64 37 -149 37q-148 0 -238 -63t-90 -187v-201h301l2 9l361 12v-834h141v-96l-252 6 l-252 -6v96h141v645q0 51 -10.5 61.5t-50.5 10.5h-369v-717h142v-96l-252 6l-252 -6v96h141v717h-154z" />
<glyph unicode="&#xfb02;" horiz-adv-x="1308" d="M63 813v96h154v205q0 85 47 149t127.5 100t174 53.5t198.5 17.5q88 0 158 -19q12 -4 28 -4q50 0 140 10v-1325h141v-96l-252 6l-252 -6v96h141v717h-430v-717h142v-96l-252 6l-252 -6v96h141v717h-154zM426 909h442v207q0 26 -1.5 32.5t-8.5 12.5q-41 34 -41 94 q0 45 33 86l4 9q-55 10 -100 10q-44 0 -84.5 -5.5t-86.5 -21.5t-79.5 -42.5t-55.5 -73t-22 -107.5v-201z" />
<glyph unicode="&#xfb03;" horiz-adv-x="1961" d="M63 813v96h154v205q0 88 50.5 153.5t134 100t173 50.5t185.5 16q159 0 252 -91q157 91 407 91q81 0 144 -22t99 -57.5t54.5 -76t18.5 -82.5q0 -62 -38.5 -98.5t-97.5 -36.5q-57 0 -95 37t-38 96q0 55 27.5 86t62.5 43q-64 37 -149 37q-148 0 -238 -63t-90 -187v-201h301 l2 9l361 12v-834h141v-96l-252 6l-252 -6v96h142v645q0 51 -11 61.5t-51 10.5h-368v-717h141v-96l-252 6l-252 -6v96h141v717h-432v-717h142v-96l-252 6l-252 -6v96h141v717h-154zM426 909h444v168q-67 38 -67 117q0 38 20.5 74.5t71.5 54.5q-66 37 -147 37 q-64 0 -120 -13.5t-102 -42t-73 -78.5t-27 -116v-201z" />
<glyph unicode="&#xfb04;" horiz-adv-x="1961" d="M63 813v96h154v205q0 87 49.5 152t132 100t173.5 51.5t190 16.5q170 0 262 -82q149 82 393 82q88 0 158 -19q12 -4 29 -4q49 0 139 10v-1325h141v-96l-252 6l-252 -6v96h142v717h-430v-717h141v-96l-252 6l-252 -6v96h141v717h-432v-717h142v-96l-252 6l-252 -6v96h141 v717h-154zM426 909h444v217q-27 18 -39 47.5t-12 55.5q0 31 15 58t26 36.5t21 15.5q-60 21 -131 21q-26 0 -51.5 -2.5t-66.5 -9.5t-74 -24.5t-64.5 -43.5t-49.5 -70t-18 -100v-201zM1079 909h443v207q0 25 -1.5 32t-9.5 13q-41 34 -41 94q0 45 33 86l4 9q-55 10 -100 10 q-44 0 -84.5 -5.5t-86.5 -21.5t-79.5 -42.5t-55.5 -73t-22 -107.5v-201z" />
<glyph horiz-adv-x="0" />
<glyph horiz-adv-x="682" />
<glyph unicode=" "  horiz-adv-x="784" />
<glyph unicode="&#x09;" horiz-adv-x="784" />
<glyph unicode="&#xa0;" horiz-adv-x="784" />
<glyph unicode="!" horiz-adv-x="716" d="M197 1298q0 60 47.5 103t113.5 43t114 -43t48 -103l-4 -26l-106 -764q-4 -30 -13 -37.5t-39 -7.5q-32 0 -39 8t-12 45l-106 746q-4 20 -4 36zM199 160q0 66 46.5 112.5t112.5 46.5t113 -46.5t47 -112.5t-47 -113t-113 -47t-112.5 47t-46.5 113z" />
<glyph unicode="&#x22;" horiz-adv-x="985" d="M211 1311q-7 47 28.5 81.5t88.5 34.5q52 0 87 -34.5t29 -81.5l-67 -455h-98zM543 1311q-7 47 28 81.5t88 34.5q52 0 87.5 -34.5t29.5 -81.5l-67 -455h-99z" />
<glyph unicode="#" horiz-adv-x="1961" d="M131 285q0 61 84 61h387l100 334h-487q-84 0 -84 61q0 64 94 64h518l172 555q5 18 10 28.5t19 21.5t35 11q28 0 45.5 -18.5t17.5 -42.5q0 -16 -8 -41l-160 -514h394l172 555q6 19 10 29t18 21t35 11q28 0 46 -18.5t18 -42.5q0 -16 -8 -41l-160 -514h336q94 0 94 -64 q0 -61 -84 -61h-387l-101 -334h488q84 0 84 -61q0 -64 -94 -64h-518l-175 -561q-6 -18 -10 -27t-17.5 -19.5t-33.5 -10.5q-28 0 -45.5 18.5t-17.5 42.5q0 17 8 41l159 516h-393l-174 -561q-6 -18 -10 -27t-17.5 -19.5t-33.5 -10.5q-28 0 -46 18.5t-18 42.5q0 17 8 41 l160 516h-336q-94 0 -94 64zM733 346h393l101 334h-393z" />
<glyph unicode="$" d="M131 379q0 37 12.5 64.5t28 40.5t36.5 21t32 9.5t20 1.5q27 0 54 -11.5t50 -42t23 -75.5q0 -48 -31 -87.5t-104 -39.5q64 -154 289 -174v514q-46 10 -69.5 16t-67 21.5t-80.5 39.5t-72 58q-121 121 -121 285q0 56 13 109.5t44 106t77 93t117 68.5t159 35v104h96v-104 q108 -6 189.5 -40t127.5 -86.5t68 -111.5t22 -125q0 -40 -14.5 -69t-37 -42t-41.5 -18.5t-36 -5.5q-47 0 -87 33t-40 96q0 46 31 85t99 42q-66 127 -281 145v-458q35 -7 58 -12.5t63.5 -19.5t78.5 -38t72 -57q135 -135 135 -320q0 -75 -22 -145.5t-67.5 -134t-127 -107 t-190.5 -53.5v-105h-96v105q-91 7 -163.5 34.5t-117.5 66t-75 89t-42 99.5t-12 100zM295 1118q0 -71 59.5 -134.5t186.5 -84.5v436q-117 -9 -181.5 -70t-64.5 -147zM637 86q116 12 180 80t64 166q0 90 -67.5 159.5t-176.5 88.5v-494z" />
<glyph unicode="%" horiz-adv-x="1961" d="M131 1124q0 103 30.5 184.5t81.5 130t112 73t128 24.5q86 0 160 -53q222 -164 463 -164q252 0 403 178q11 13 17 19.5t18.5 13t26.5 6.5q24 0 42.5 -17t18.5 -46q0 -22 -22 -50l-1166 -1505q-9 -12 -14 -18t-15 -10.5t-24 -4.5q-26 0 -44.5 19t-18.5 45q0 10 5.5 23 t10.5 20l6 8l998 1290q-112 -45 -240 -45q-168 0 -354 84q30 -93 30 -207q0 -105 -25.5 -186.5t-68.5 -129t-95.5 -71.5t-111.5 -24q-65 0 -125.5 23.5t-112.5 71t-83 129.5t-31 189zM342 1122q0 -38 0.5 -59.5t3 -62t7.5 -65.5t16 -57t26 -50t38.5 -31t53.5 -13q25 0 51 9 t53.5 33.5t48.5 61.5t34.5 98t13.5 138q0 73 -12.5 132t-32.5 97t-47 63t-54 35.5t-55 10.5q-30 0 -53.5 -13t-38.5 -31t-26 -50t-16 -57t-7.5 -66t-3 -62.5t-0.5 -60.5zM1176 299q0 103 30.5 184.5t81.5 130t112 73t128 24.5q56 0 107.5 -23t96 -70t71 -130t26.5 -191 q0 -105 -25.5 -186.5t-68.5 -129.5t-95.5 -72t-111.5 -24q-51 0 -100 14t-95.5 46.5t-80.5 79.5t-55 117.5t-21 156.5zM1386 297q0 -37 0.5 -59.5t3 -62.5t8 -65.5t16 -57t26 -49.5t39 -31t53.5 -13q25 0 51 9t53.5 33.5t48.5 61.5t34.5 98t13.5 138q0 73 -12.5 132 t-32.5 97t-47 63t-54 35.5t-55 10.5q-30 0 -53.5 -13t-39 -31t-26 -50t-16 -57.5t-8 -65.5t-3 -62.5t-0.5 -60.5z" />
<glyph unicode="&#x26;" horiz-adv-x="1830" d="M98 283q0 87 64 163q13 15 127 113l151 129q-88 203 -88 393q0 85 33.5 155.5t87.5 115t118.5 68.5t129.5 24q57 0 102 -26t71 -67.5t39 -86.5t13 -88q0 -97 -112 -226q-81 -89 -179 -174q97 -209 363 -487q105 101 197 222.5t194 281.5q-49 20 -149 20v96q82 -6 249 -6 q104 0 203 6v-96q-68 0 -98.5 -1.5t-61.5 -10.5t-45 -29l-168 -244q-45 -65 -90 -120.5t-76 -89t-90 -93.5q158 -151 291 -151q17 0 38.5 2.5t56 12.5t61.5 27t48.5 50t23.5 76h96q-3 -83 -52 -144.5t-122.5 -91t-159.5 -29.5q-209 0 -432 129q-197 -129 -408 -129 q-114 0 -210 36t-156 107t-60 163zM360 356q0 -24 3 -52.5t15 -71.5t31 -76.5t55.5 -57.5t84.5 -24q24 0 55 2.5t107.5 25t138.5 62.5q-226 171 -377 454q-59 -41 -86 -111.5t-27 -150.5zM565 1157q0 -165 60 -307q225 202 225 326q0 26 -6 56.5t-19.5 63t-40 53.5t-61.5 21 q-22 0 -46.5 -10t-51 -32t-43.5 -66.5t-17 -104.5z" />
<glyph unicode="'" horiz-adv-x="653" d="M211 1311q-7 47 28.5 81.5t88.5 34.5q52 0 87 -34.5t29 -81.5l-67 -455h-98z" />
<glyph unicode="(" horiz-adv-x="915" d="M221 514q0 75 7 148.5t30.5 174t62 193.5t107.5 198.5t160 196.5q117 111 157 111q37 0 37 -29q0 -8 -4.5 -14t-27.5 -29q-330 -333 -330 -952q0 -292 78 -530q24 -74 57 -141.5t60.5 -111t63 -86.5t53.5 -61.5t44 -42.5q6 -10 6 -20q0 -29 -37 -29q-16 0 -54.5 26 t-88.5 71t-110 119t-107 157q-164 290 -164 651z" />
<glyph unicode=")" horiz-adv-x="915" d="M131 -481q0 7 4.5 13t28.5 30q330 333 330 952q0 613 -328 946q-24 23 -29.5 31t-5.5 16q0 29 37 29q16 0 54.5 -26t88.5 -71t110 -119t107 -157q164 -290 164 -651q0 -75 -7 -148.5t-30.5 -174t-61.5 -193.5t-107 -198.5t-160 -196.5q-117 -111 -158 -111q-37 0 -37 29z " />
<glyph unicode="*" d="M152 901q0 60 61 80l289 100l-289 101q-61 20 -61 80q0 42 28.5 70t61.5 28q23 0 55 -23l252 -190l-45 262q-6 33 -6 47q0 39 29 59.5t61 20.5t61 -20t29 -60q0 -14 -6 -47l-45 -262l252 190q32 23 55 23q33 0 61.5 -28t28.5 -70q0 -60 -61 -80l-289 -101l289 -100 q61 -20 61 -80q0 -42 -28.5 -70t-61.5 -28q-25 0 -55 22l-250 189l26 -158q23 -147 23 -149q0 -39 -29 -59.5t-61 -20.5t-61 20t-29 60q0 14 6 47l45 262l-252 -191q-31 -22 -55 -22q-33 0 -61.5 28t-28.5 70z" />
<glyph unicode="+" horiz-adv-x="1830" d="M131 512q0 22 9 36t25.5 19.5t27 6.5t26.5 1h633v635q0 86 63 86q62 0 62 -86v-635h633q16 0 26.5 -1t27 -6.5t25.5 -19.5t9 -36q0 -61 -88 -61h-633v-635q0 -86 -64 -86q-61 0 -61 86v635h-633q-88 0 -88 61z" />
<glyph unicode="," horiz-adv-x="653" d="M166 160q0 67 44.5 113t113.5 46q86 0 137 -74t51 -182q0 -80 -22.5 -156.5t-55 -129.5t-68.5 -93.5t-62.5 -60.5t-37.5 -20q-12 0 -25.5 13.5t-13.5 27.5q0 12 19 28q23 20 36 32t44.5 49t50.5 73t37.5 94t23.5 121q-6 -6 -17 -13.5t-38 -17.5t-57 -10q-74 0 -117 47 t-43 113z" />
<glyph unicode="-" horiz-adv-x="784" d="M27 356v199h624v-199h-624z" />
<glyph unicode="." horiz-adv-x="653" d="M166 160q0 66 47 112.5t113 46.5t112.5 -46.5t46.5 -112.5t-46.5 -113t-112.5 -47t-113 47t-47 113z" />
<glyph unicode="/" d="M131 -449q0 14 10 39l777 1889q6 16 9.5 22t11 16.5t18.5 14.5t26 4q24 0 42.5 -17t18.5 -46q0 -14 -10 -39l-776 -1889q-6 -15 -9.5 -22.5t-11 -17t-18.5 -13.5t-26 -4q-24 0 -43 17t-19 46z" />
<glyph unicode="0" d="M92 653q0 62 1.5 103t11 120t27 133.5t54 122.5t87.5 109.5t132 70.5t183 29t183 -29t131.5 -71t87.5 -110t54 -122.5t27 -134t11 -119.5t1 -102t-1.5 -103t-11 -119t-27 -131.5t-54.5 -119.5t-87.5 -106.5t-131.5 -68.5t-182 -28q-102 0 -183 28.5t-132 68.5 t-87.5 106.5t-54 120t-27 131.5t-11 118.5t-1.5 102.5zM354 678q0 -320 19 -432q10 -53 34.5 -93t56 -61t63 -31t61.5 -10q28 0 57 8t63.5 29.5t61.5 68t37 113.5q14 106 14 408q0 117 -1 184t-9.5 154.5t-24.5 122.5q-28 64 -82.5 96.5t-115.5 32.5q-19 0 -39.5 -3.5 t-50.5 -16t-54 -33t-45 -59.5t-28 -91q-17 -113 -17 -387z" />
<glyph unicode="1" d="M174 1114v96h41q254 0 412 117q13 10 20 12t25 2q37 0 45 -13t8 -52v-1180h287v-96q-90 6 -408 6q-317 0 -407 -6v96h284v1059q-127 -41 -266 -41h-41z" />
<glyph unicode="2" d="M117 0v37q0 32 3.5 41.5t22.5 27.5l412 420q221 224 221 426q0 122 -72 207.5t-198 85.5t-211 -71q16 -4 32 -12t37 -24.5t34.5 -45.5t13.5 -66q0 -71 -45.5 -109t-102.5 -38q-21 0 -44 7t-47.5 22.5t-40 47t-15.5 74.5q0 136 126 223.5t314 87.5q220 0 361 -106 t141 -281q0 -57 -15.5 -105.5t-44 -89.5t-73.5 -83.5t-98.5 -84t-124.5 -93.5l-9 -6q-104 -77 -295 -236h301q186 0 209 12q29 14 54 187h96l-64 -455h-878z" />
<glyph unicode="3" d="M98 285q0 75 45 117t113 42t112 -43t44 -112q0 -61 -32.5 -100.5t-86.5 -53.5q111 -69 258 -69q44 0 79 12.5t56.5 30.5t37.5 47.5t23.5 53.5t11.5 59.5t4.5 53.5t0.5 48q0 32 -0.5 50.5t-5 54.5t-12 59.5t-24 52.5t-39.5 46.5t-59.5 29.5t-82.5 12h-90q-23 0 -32.5 1.5 t-17.5 9.5t-8 26q0 33 25 35q22 4 98 8q50 3 89.5 24.5t61.5 55.5t36.5 67t19.5 72t6.5 56t1.5 32q0 27 -1.5 47.5t-11.5 51.5t-27.5 50.5t-52.5 34.5t-83 15q-132 0 -225 -74q10 -2 16.5 -4t28 -13t35.5 -25t26.5 -41.5t12.5 -60.5q0 -60 -38.5 -100.5t-105.5 -40.5 q-60 0 -100.5 39.5t-40.5 104.5q0 126 111.5 210t291.5 84q210 0 327.5 -80.5t117.5 -203.5q0 -83 -44.5 -154.5t-108 -115t-138.5 -66.5q85 -18 150.5 -50t103.5 -68t62 -79.5t32 -80t8 -74.5q0 -73 -30 -140.5t-89.5 -125t-162 -92t-234.5 -34.5q-200 0 -331.5 85.5 t-131.5 222.5z" />
<glyph unicode="4" d="M66 319v97l714 895q19 23 28.5 27.5t41.5 4.5q42 0 51.5 -11t9.5 -54v-862h199v-97h-199v-223h199v-96q-72 6 -332 6q-274 0 -352 -6v96h229v223h-589zM172 416h506v635z" />
<glyph unicode="5" d="M117 326q0 44 16.5 74.5t41 44t44 19t35.5 5.5q21 0 42.5 -7t44 -21.5t36.5 -43.5t14 -67q0 -61 -37.5 -97.5t-95.5 -39.5q30 -41 69 -68.5t78 -39t65.5 -15.5t51.5 -4q40 0 73 8t57 19t43 32t31 39t20.5 47.5t12.5 49.5t6 54.5t2.5 52.5t0.5 52v55.5t-2 53t-5 54t-9 48 t-15 44.5t-23 35.5t-31.5 29.5t-42 17t-54.5 7q-177 0 -275 -115q-1 -1 -4 -4.5t-4 -5t-3.5 -4t-4 -3t-4 -2.5t-5 -2.5t-5.5 -1.5t-7 -1h-8q-16 0 -26 4t-13.5 14.5t-4.5 18.5t-1 26v598q0 21 1 30t7.5 17t20.5 8q2 0 26 -8q168 -57 318 -57q165 0 313 57q23 8 31 8 q29 0 29 -36q0 -16 -21.5 -48.5t-65 -73t-100 -76.5t-136.5 -60.5t-165 -24.5q-69 0 -149 14v-270q105 72 264 72q219 0 342 -120.5t123 -305.5q0 -191 -143.5 -313t-385.5 -122q-182 0 -297.5 105.5t-115.5 243.5z" />
<glyph unicode="6" d="M98 649q0 149 37.5 269.5t99 197.5t143.5 129t165.5 74t171.5 22q78 0 138.5 -22t95 -59t52 -81t17.5 -94q0 -59 -35 -95t-94 -36q-58 0 -92.5 36.5t-34.5 90.5q0 48 28.5 84t81.5 43q-54 54 -153 54q-91 0 -169 -48t-116 -122q-57 -126 -57 -353v-39q24 44 55 76 t55.5 47t55 23t45 9t35.5 1q127 0 228 -48t163.5 -148.5t62.5 -239.5q0 -203 -132.5 -323t-348.5 -120q-120 0 -224 48t-171 157q-103 173 -103 467zM381 430q0 -186 33 -252q19 -39 64 -75.5t114 -36.5q60 0 100.5 19.5t61.5 44.5t31.5 81t12 94t1.5 119q0 67 -1 99.5 t-6 83t-17.5 75t-33.5 52t-55 38t-82 10.5q-94 0 -158.5 -86.5t-64.5 -265.5z" />
<glyph unicode="7" d="M131 864l72 520h96q2 -11 3.5 -15t6 -12t14.5 -12.5t25 -7.5q19 -5 173 -11.5t204 -6.5h418q0 -54 -3 -67.5t-18 -30.5l-317 -369q-104 -121 -133 -342q-21 -144 -21 -293v-94q0 -47 -14.5 -79t-38.5 -45t-41.5 -17.5t-34.5 -4.5q-9 0 -18.5 1t-31 9t-37 21.5t-28 43 t-12.5 69.5q0 409 344 809q18 23 56.5 66.5t56.5 66.5h-346q-200 0 -223 -12q-34 -17 -56 -187h-96z" />
<glyph unicode="8" d="M98 330q0 228 262 344q-57 32 -97.5 72.5t-61 82.5t-29 79.5t-8.5 74.5q0 156 111.5 257t316.5 101q186 0 303 -76t117 -225q0 -90 -50 -158.5t-157 -123.5q31 -17 47.5 -27t49.5 -33t53 -42t46 -50t40.5 -62t25 -73t10.5 -88q0 -85 -31.5 -158.5t-91.5 -129t-155 -87 t-215 -31.5q-102 0 -188 21t-153.5 62.5t-106 110.5t-38.5 159zM274 330q0 -121 84.5 -192.5t233.5 -71.5q40 0 77.5 4.5t81 18t75.5 35t53.5 59.5t21.5 87q0 35 -11.5 63t-39 52t-50 38.5t-65.5 39.5l-280 155q-181 -103 -181 -288zM317 1104q0 -73 91 -123l307 -172 q143 94 143 229q0 105 -72.5 164.5t-201.5 59.5q-31 0 -60 -2.5t-68.5 -12t-68.5 -25.5t-49.5 -46.5t-20.5 -71.5z" />
<glyph unicode="9" d="M98 901q0 203 136.5 321.5t357.5 118.5q78 0 144 -19t113 -48.5t84.5 -75.5t60.5 -89t40 -101t25 -99.5t12.5 -96t5 -79t0.5 -59.5q0 -151 -36 -273t-94 -199.5t-136.5 -129.5t-158 -73.5t-163.5 -21.5q-162 0 -246.5 72.5t-84.5 183.5q0 59 35 95.5t94 36.5 q58 0 92.5 -36.5t34.5 -90.5q0 -32 -11.5 -57t-30 -39t-32.5 -21t-27 -10q67 -45 172 -45q97 0 166 51t99 121q49 111 49 340v45q-28 -51 -60 -84.5t-66 -48.5t-61 -20t-59 -5q-128 0 -230 49t-163.5 149.5t-61.5 237.5zM377 830q0 -21 2 -60t5 -57.5t9.5 -48.5t16 -44 t24.5 -33t34 -27t45 -14.5t58 -6.5q49 0 89 23t65 58.5t42 82t23.5 90t6.5 84.5q0 188 -25 256q-4 10 -9.5 21.5t-21 32.5t-33.5 36t-48 27t-64 12q-64 0 -107 -21t-65 -47.5t-33 -83.5t-12.5 -95.5t-1.5 -117.5v-67z" />
<glyph unicode=":" horiz-adv-x="653" d="M166 160q0 66 47 112.5t113 46.5t112.5 -46.5t46.5 -112.5t-46.5 -113t-112.5 -47t-113 47t-47 113zM166 750q0 66 47 112.5t113 46.5t112.5 -46.5t46.5 -112.5t-46.5 -113t-112.5 -47t-113 47t-47 113z" />
<glyph unicode=";" horiz-adv-x="653" d="M166 160q0 67 44.5 113t113.5 46q83 0 125.5 -72.5t42.5 -180.5q0 -79 -20.5 -155t-50.5 -129.5t-63 -95.5t-57.5 -62.5t-34.5 -20.5q-12 0 -25.5 13.5t-13.5 27.5q0 12 21 30q149 145 168 351q-42 -25 -90 -25q-74 0 -117 47t-43 113zM166 750q0 66 47 112.5t113 46.5 t112.5 -46.5t46.5 -112.5t-46.5 -113t-112.5 -47t-113 47t-47 113z" />
<glyph unicode="&#x3c;" horiz-adv-x="1830" d="M197 514q0 42 51 64l1282 612q21 12 39 12q28 0 45.5 -19t17.5 -42q0 -41 -51 -66l-1178 -563l1178 -561q51 -25 51 -66q0 -23 -17.5 -42t-45.5 -19q-16 0 -45 14l-1276 611q-51 23 -51 65z" />
<glyph unicode="=" horiz-adv-x="1830" d="M131 285q0 61 84 61h1399q84 0 84 -61q0 -64 -94 -64h-1379q-94 0 -94 64zM131 741q0 64 94 64h1379q94 0 94 -64q0 -61 -84 -61h-1399q-84 0 -84 61z" />
<glyph unicode="&#x3e;" horiz-adv-x="1830" d="M197 -115q0 43 51 66l1177 563l-1177 561q-26 13 -38.5 27.5t-12.5 38.5q0 25 18 43t43 18q18 0 47 -14l1276 -610q51 -22 51 -64q0 -44 -51 -65l-1282 -613q-21 -12 -39 -12q-28 0 -45.5 19t-17.5 42z" />
<glyph unicode="?" horiz-adv-x="1112" d="M131 1174q0 108 104 184t304 76q27 0 49 -0.5t70.5 -6t86.5 -14.5t84 -29t77 -47t52 -70.5t21 -97.5q0 -37 -11.5 -69.5t-24 -51.5t-38 -40.5t-34 -27t-31.5 -19.5q-31 -18 -59 -37t-69 -56t-69.5 -76t-50 -95.5t-21.5 -116.5v-56q0 -40 -7 -50.5t-42 -10.5 q-33 0 -40 9.5t-7 45.5v78q0 105 46 216.5t138 207.5q33 33 45.5 66t12.5 98q0 37 -1.5 56.5t-11.5 46t-29.5 40t-56.5 23.5t-92 10q-144 0 -231 -64l3 -2q4 -1 8 -2.5t10.5 -5t12.5 -7.5t13.5 -10t13.5 -13t12 -16t10 -19t6.5 -23t2.5 -27q0 -60 -38 -94.5t-91 -34.5 q-47 0 -87 33t-40 99zM362 160q0 66 47 112.5t113 46.5t113 -46.5t47 -112.5t-47 -113t-113 -47t-113 47t-47 113z" />
<glyph unicode="@" horiz-adv-x="1830" d="M131 711q0 154 52.5 285.5t150 229t247 153t334.5 55.5q177 0 324 -52.5t247.5 -147.5t156 -230t55.5 -297q0 -33 -1.5 -64t-8 -77.5t-17 -85.5t-31 -81t-47.5 -71t-68.5 -47.5t-92.5 -18.5q-27 0 -55 3t-68 11t-75.5 28.5t-57.5 49.5q-109 -92 -265 -92 q-210 0 -338.5 124t-128.5 325q0 202 128.5 325t338.5 123q113 0 199 -47.5t133 -124.5h80q44 0 52.5 -8.5t8.5 -50.5v-471q0 -121 68 -121q150 0 150 360q0 165 -54.5 294t-150 208.5t-218.5 120.5t-266 41q-159 0 -288.5 -48t-216.5 -133.5t-134 -205.5t-47 -262 q0 -106 26.5 -201.5t82.5 -177.5t136.5 -142.5t196 -94.5t253.5 -34q300 0 600 115q24 10 34 12t35 2h49q21 0 30 -0.5t18.5 -7t9.5 -20.5l-6 -21q-27 -14 -87.5 -35.5t-161 -50t-240.5 -48t-279 -19.5q-160 0 -292 39t-224 106.5t-155 160t-92.5 197.5t-29.5 220zM678 711 q0 -185 69.5 -280t170.5 -95q61 0 125.5 28.5t107.5 90.5v512q-44 61 -107.5 89.5t-125.5 28.5q-101 0 -170.5 -94t-69.5 -280z" />
<glyph unicode="A" horiz-adv-x="1779" d="M84 0v96h43q75 0 112 6t46 14t16 27l508 1233q12 31 26 42.5t54 11.5q22 0 33 -2t24.5 -14.5t24.5 -37.5l524 -1280h199v-96q-72 6 -334 6q-283 0 -361 -6v96h195l-123 299h-549l-102 -248l-8 -24q0 -12 45.5 -18.5t90.5 -7.5l46 -1v-96q-76 6 -270 6zM563 492h467 l-233 569z" />
<glyph unicode="B" horiz-adv-x="1675" d="M80 0v96h221v1213h-221v96h889q237 0 372.5 -101.5t135.5 -250.5q0 -119 -95 -205t-260 -115q185 -14 302.5 -110t117.5 -242q0 -160 -134.5 -270.5t-377.5 -110.5h-950zM569 96h377q60 0 109 15t79 37t52 53.5t32 57.5t16 56.5t6.5 43t0.5 24.5q0 138 -67 223 q-70 88 -207 88h-398v-598zM569 768h320q143 0 220 80t77 205q0 32 -5 63t-21.5 67.5t-42 63t-71 44.5t-104.5 18h-373v-541z" />
<glyph unicode="C" horiz-adv-x="1701" d="M131 702q0 157 57.5 290.5t162.5 229.5t260 150.5t343 54.5q231 0 404 -139l135 121q21 18 39 18q26 0 31.5 -11.5t5.5 -45.5v-440q0 -40 -8.5 -49t-47.5 -9q-35 0 -42.5 6.5t-12.5 36.5q-33 191 -162 303.5t-299 112.5q-262 0 -417 -157q-136 -142 -136 -472 q0 -150 26.5 -260.5t94.5 -193.5q75 -89 192 -131.5t247 -42.5q64 0 127 15t123.5 47t107 78t77 113t34.5 146q1 24 11.5 29.5t35.5 5.5q29 0 39 -7t10 -36q0 -89 -43 -176t-120 -156.5t-195.5 -112.5t-256.5 -43q-188 0 -343 54.5t-260 150.5t-162.5 229.5t-57.5 290.5z " />
<glyph unicode="D" horiz-adv-x="1806" d="M80 0v96h221v1213h-221v96h881q152 0 282.5 -49t226 -139t149.5 -225.5t54 -301.5q0 -214 -94 -372t-253.5 -238t-362.5 -80h-883zM580 96h299q72 0 139.5 13t142.5 53.5t121 105.5q50 69 70 163.5t20 260.5q0 155 -18.5 258t-69.5 176q-69 98 -178 140.5t-227 42.5h-299 v-1213z" />
<glyph unicode="E" horiz-adv-x="1548" d="M80 0v96h221v1200h-221v97h1272l63 -494h-96q-8 59 -16 100.5t-23 86t-35 74.5t-50.5 57.5t-70.5 43.5t-95.5 25.5t-125.5 9.5h-311v-526h113q73 0 117.5 15t66 49.5t27.5 72.5t6 103h96v-576h-96q0 65 -6.5 103t-28 72.5t-66 49.5t-116.5 15h-113v-578h311 q80 0 143.5 11.5t109.5 30.5t81.5 52.5t58 68t40 87.5t27.5 99.5t21 115.5h97l-95 -561h-1306z" />
<glyph unicode="F" horiz-adv-x="1482" d="M80 0v96h221v1200h-221v97h1239l63 -494h-96q-9 68 -18.5 113.5t-27.5 95.5t-45.5 80.5t-69.5 57t-103.5 38.5t-142.5 12h-287v-551h102q49 0 85 6.5t59.5 22t37.5 33.5t21.5 48.5t9.5 58.5t2 71h97v-575h-97q0 52 -3.5 84t-15.5 65t-35 50.5t-63 28.5t-98 11h-102v-553 h276v-96q-90 6 -413 6q-297 0 -375 -6z" />
<glyph unicode="G" horiz-adv-x="1851" d="M131 702q0 158 58 292t163 229.5t259.5 149.5t340.5 54q229 0 404 -139l135 121q21 18 39 18q26 0 31.5 -11.5t5.5 -45.5v-440q0 -40 -8.5 -49t-47.5 -9q-35 0 -42.5 6.5t-12.5 36.5q-33 191 -162 303.5t-297 112.5q-143 0 -257.5 -49t-178.5 -129q-60 -79 -88.5 -181 t-28.5 -267q0 -148 26 -256t89 -189q72 -92 193.5 -139t259.5 -47q110 0 184 43q28 17 46 36t24.5 40.5t8 34.5t1.5 34v207h-295v96q111 -6 420 -6q258 0 330 6v-96h-164v-412q0 -20 -1 -29.5t-7.5 -18.5t-20.5 -9q-15 0 -87 36.5t-114 72.5q-106 -132 -381 -132 q-194 0 -351 56t-260 154t-158.5 229.5t-55.5 285.5z" />
<glyph unicode="H" horiz-adv-x="1843" d="M80 0v96h221v1213h-221v96q78 -6 366 -6q289 0 367 6v-96h-221v-531h657v531h-221v96q78 -6 367 -6q288 0 366 6v-96h-221v-1213h221v-96q-78 6 -366 6q-289 0 -367 -6v96h221v586h-657v-586h221v-96q-78 6 -367 6q-288 0 -366 -6z" />
<glyph unicode="I" horiz-adv-x="892" d="M68 0v96h233v1213h-233v96q84 -6 378 -6q295 0 379 6v-96h-233v-1213h233v-96q-84 6 -379 6q-294 0 -378 -6z" />
<glyph unicode="J" horiz-adv-x="1216" d="M47 233q0 75 47.5 116.5t110.5 41.5q59 0 107 -40.5t48 -117.5q0 -31 -9.5 -57t-23.5 -42t-28 -27.5t-23 -16.5l-10 -4q76 -35 166 -35q48 0 85 15.5t58 42.5t34.5 53.5t18.5 60.5t6 49t1 33v1004h-289v96q98 -6 408 -6q253 0 325 6v-96h-166v-1002q0 -156 -130 -243 t-341 -87q-177 0 -286 69.5t-109 186.5z" />
<glyph unicode="K" horiz-adv-x="1845" d="M80 0v96h221v1213h-221v96q78 -6 366 -6q289 0 367 6v-96h-221v-656l758 633q-8 3 -8 5t-19 7q-56 11 -119 11v96q74 -6 299 -6q127 0 209 6v-96h-35q-147 0 -192 -37l-492 -410l553 -725q20 -27 41.5 -34t98.5 -7h59v-96q-76 6 -299 6q-277 0 -361 -6v96q111 0 150 17 q-11 22 -16 28l-422 555l-205 -170v-430h221v-96q-78 6 -367 6q-288 0 -366 -6z" />
<glyph unicode="L" horiz-adv-x="1417" d="M80 0v96h221v1213h-221v96q78 -6 375 -6q323 0 413 6v-96h-276v-1213h211q76 0 138 19.5t102.5 47t73 73.5t49 81.5t29.5 90.5t17 81.5t9 71.5h96l-64 -561h-1173z" />
<glyph unicode="M" horiz-adv-x="2236" d="M82 0v96h51q62 0 111 6q42 4 50.5 12t8.5 42v1153h-221v96h455q27 0 39 -2t26 -13t25 -36l491 -1084l492 1084q11 25 25 36t26 13t39 2h452v-96h-221v-1213h221v-96q-74 6 -350 6q-274 0 -348 -6v96h221v1213h-2l-571 -1260q-22 -49 -66 -49q-43 0 -65 51l-557 1231h-2 v-1126q0 -34 8.5 -42t52.5 -12q55 -6 109 -6h51v-96q-84 6 -277 6q-196 0 -274 -6z" />
<glyph unicode="N" horiz-adv-x="1843" d="M80 0v96h51q62 0 111 6q42 4 50.5 12t8.5 42v1153h-221v96h469q31 0 40 -4t27 -23l816 -958v829q0 34 -9 42t-53 12q-56 6 -108 6h-52v96q84 -6 277 -6q196 0 274 6v-96h-51q-62 0 -111 -6q-42 -4 -50.5 -12t-8.5 -42v-1183q0 -22 -1 -31t-6 -19t-16.5 -13t-31.5 -3 q-24 0 -32 4t-23 23l-1020 1200v-1071q0 -34 8.5 -42t52.5 -12q55 -6 109 -6h51v-96q-84 6 -277 6q-196 0 -274 -6z" />
<glyph unicode="O" horiz-adv-x="1769" d="M131 694q0 161 52.5 296t148.5 232t238 151t315 54q341 0 546 -200.5t205 -532.5q0 -157 -52 -289t-147.5 -227t-237.5 -148t-316 -53q-172 0 -313.5 52.5t-237.5 147t-148.5 227t-52.5 290.5zM444 725q0 -145 18 -252.5t66 -196.5q59 -109 156 -161t199 -52 q96 0 189.5 46t156.5 149q40 66 62 155t27 156t5 156q0 131 -16.5 235.5t-69.5 192.5q-59 96 -154 144.5t-200 48.5q-98 0 -190 -44t-152 -133q-60 -93 -78.5 -203t-18.5 -241z" />
<glyph unicode="P" horiz-adv-x="1609" d="M80 0v96h221v1213h-221v96h854q249 0 396 -113t147 -286q0 -117 -71.5 -206.5t-190 -135.5t-261.5 -46h-362v-522h221v-96q-78 6 -367 6q-288 0 -366 -6zM580 702h274q50 0 91.5 6t72 15t54 26t38.5 31.5t25.5 39.5t16 42t8 47.5t3 47.5t0.5 49q0 33 -0.5 49.5t-3 47.5 t-8 47.5t-15.5 41.5t-25.5 39.5t-38.5 31.5t-53 25.5t-71.5 14.5t-91.5 6h-276v-607z" />
<glyph unicode="Q" horiz-adv-x="1769" d="M131 694q0 161 52.5 296t148.5 232t238 151t315 54q341 0 546 -200.5t205 -532.5q0 -72 -11.5 -142t-41.5 -148t-76.5 -144t-122 -125.5t-172.5 -97.5q28 -43 55 -69.5t53 -36.5t41.5 -12.5t39.5 -2.5q162 0 174 80q6 41 37 41q37 0 37 -53q0 -44 -9 -93t-30 -101 t-52.5 -93t-80.5 -67.5t-109 -26.5q-35 0 -64.5 6.5t-53 23t-42 33t-35 48t-27.5 55.5t-24.5 69t-21.5 74t-21 84q-97 -19 -194 -19q-175 0 -317.5 53.5t-238 148.5t-147 227t-51.5 288zM432 696q0 -45 1 -77.5t6.5 -88t15 -97.5t28.5 -95t45.5 -92.5t68 -78t93.5 -63.5 q-6 15 -6 46q0 72 59.5 119.5t139.5 47.5q48 0 89.5 -16.5t74.5 -48t51 -54t41 -57.5q56 38 96 100.5t58.5 118t29 132.5t11.5 113t1 91q0 286 -84 434q-35 62 -82 106.5t-98 67t-96.5 32.5t-91.5 10q-32 0 -64.5 -4.5t-76.5 -19.5t-83 -38.5t-80 -66.5t-71 -99 q-76 -145 -76 -422zM758 150q0 -12 4.5 -25t16 -29.5t39 -26.5t67.5 -10q95 0 168 33q-48 152 -168 152q-52 0 -89.5 -27t-37.5 -67z" />
<glyph unicode="R" horiz-adv-x="1767" d="M80 0v96h221v1213h-221v96h778q280 0 445 -109t165 -270q0 -108 -86 -197t-256 -133q196 -74 230 -239q1 -4 10.5 -82.5t11.5 -91.5q4 -35 7.5 -58t14.5 -59.5t26 -58.5t42 -39t62 -17q49 0 86.5 37t44.5 105q1 13 2.5 19.5t5.5 14t13.5 10.5t25.5 3q14 0 22.5 -1.5 t17.5 -12t9 -31.5q0 -14 -4 -35.5t-20 -55t-40.5 -60.5t-72 -47t-109.5 -20q-193 0 -301 54q-30 15 -53 32.5t-38 34t-25.5 41t-15.5 42t-7.5 49t-3 50t-0.5 56.5q0 122 -9.5 165.5t-56.5 94.5q-63 70 -182 70h-239v-570h221v-96q-74 6 -361 6q-286 0 -360 -6zM580 739h237 q70 0 125 10.5t90 25t60 41t37 47t18 55t7 53.5t1 53q0 27 -0.5 43t-3.5 43t-9 44t-17.5 40t-28 37.5t-42 31t-58 25.5t-77 15t-98.5 6h-241v-570z" />
<glyph unicode="S" horiz-adv-x="1308" d="M131 35v373q0 38 7 48.5t42 10.5q32 0 38.5 -8.5t8.5 -38.5q4 -73 30 -131t68.5 -94.5t90.5 -61.5t104.5 -37t101 -17t89.5 -5q76 0 131 23t82.5 60.5t40 76t12.5 79.5q0 97 -82 179q-32 30 -72 43t-188 45q-187 41 -255 67t-138 96q-111 116 -111 273q0 82 28.5 155 t83.5 131t144.5 91.5t202.5 33.5q208 0 350 -112l92 90q18 16 23.5 19t17.5 3q26 0 31.5 -11.5t5.5 -45.5v-375q0 -38 -7 -47.5t-42 -9.5q-31 0 -38 7.5t-13 45.5q-14 81 -46.5 143t-73.5 100t-93.5 62.5t-102 33.5t-102.5 9q-73 0 -127 -20.5t-81.5 -54.5t-40.5 -69 t-13 -71q0 -85 61 -141t135 -72l297 -63q146 -31 249.5 -149.5t103.5 -282.5q0 -82 -26 -157t-79 -139.5t-146 -103.5t-214 -39q-56 0 -115 6.5t-146 33.5t-149 73l-94 -94q-10 -9 -14 -11.5t-10 -5t-15 -2.5q-18 0 -26 7.5t-9.5 17t-1.5 33.5z" />
<glyph unicode="T" horiz-adv-x="1638" d="M86 889l43 493h1378l43 -493h-96q-4 47 -7 75.5t-9.5 68t-14 63.5t-20.5 54t-29.5 47.5t-41 36.5t-54.5 29t-70 16.5t-88 6.5h-155v-1190h313v-96q-111 6 -459 6t-459 -6v96h314v1190h-158q-49 0 -89 -6.5t-70 -16.5t-54.5 -29t-41.5 -37t-29.5 -48t-20.5 -54t-14 -63.5 t-8.5 -68t-6.5 -74.5h-96z" />
<glyph unicode="U" horiz-adv-x="1812" d="M80 1309v96q78 -6 366 -6q289 0 367 6v-96h-221v-852q0 -35 1 -58.5t8.5 -67t20.5 -74.5t39.5 -68t64 -60t96 -39t132.5 -16q70 0 132.5 12.5t121 42.5t100.5 75t67.5 115t25.5 158v772q0 34 -9 42t-53 12q-56 6 -108 6h-51v96q84 -6 276 -6q197 0 275 6v-96h-52 q-61 0 -110 -6q-43 -4 -51.5 -12t-8.5 -42v-780q0 -97 -34 -183.5t-100.5 -156.5t-177 -111t-251.5 -41q-155 0 -279 39t-203 107t-121 157.5t-42 192.5v836h-221z" />
<glyph unicode="V" horiz-adv-x="1779" d="M53 1309v96q72 -6 324 -6q284 0 362 6v-96h-192l436 -981l414 932l8 24q0 25 -180 25v96q80 -6 268 -6l231 6v-96h-38q-71 0 -108 -6.5t-45.5 -14t-16.5 -24.5l-545 -1231q-11 -23 -25.5 -34.5t-25 -13t-31.5 -1.5q-40 0 -54.5 11t-27.5 42l-565 1272h-189z" />
<glyph unicode="W" horiz-adv-x="2435" d="M49 1309v96q72 -6 313 -6q281 0 359 6v-96h-197l363 -938l278 721l-84 217h-176v96q72 -6 314 -6q280 0 358 6v-96h-197l363 -938l352 915q-59 23 -209 23v96q74 -6 279 -6q54 0 219 6v-96q-76 0 -117 -4q-46 -4 -57.5 -11t-20.5 -34l-473 -1223q-7 -20 -12.5 -29 t-20 -16.5t-38.5 -7.5q-35 0 -48 12t-24 41l-356 921l-357 -921q-7 -20 -13 -29.5t-20.5 -16.5t-38.5 -7t-38.5 7.5t-20 16.5t-12.5 29l-492 1272h-176z" />
<glyph unicode="X" horiz-adv-x="1779" d="M70 0v96h59q63 0 125 6q48 4 61 9.5t27 25.5l414 543l-455 629h-201v96q72 -6 332 -6q287 0 371 6v-96h-170l293 -404l270 359q2 2 8.5 11t7.5 11q-72 23 -188 23v96q74 -6 311 -6q189 0 275 6v-96h-60q-69 0 -118 -6q-53 -4 -66 -9.5t-31 -27.5l-344 -453l518 -717h201 v-96q-72 6 -332 6q-286 0 -370 -6v96h170l-357 494l-338 -449q-2 -2 -8.5 -11t-7.5 -11q72 -23 188 -23v-96q-74 6 -311 6q-188 0 -274 -6z" />
<glyph unicode="Y" horiz-adv-x="1779" d="M39 1309v96q72 -6 338 -6q291 0 375 6v-96h-174l415 -609l383 564q7 9 15 24q-56 21 -156 21v96q76 -6 270 -6l234 6v-96h-43q-54 0 -107 -6q-51 -7 -63 -15q-9 -7 -17 -20l-481 -707v-465h223v-96q-78 6 -362 6q-287 0 -361 -6v96h222v465l-510 748h-201z" />
<glyph unicode="Z" horiz-adv-x="1439" d="M131 53q0 19 2.5 27t13.5 26l820 1203h-267q-215 0 -321.5 -97t-118.5 -301h-96l24 494h1053q20 0 29 -1t19.5 -5.5t14 -15t3.5 -29.5q0 -17 -2.5 -23.5t-14.5 -25.5l-817 -1201h287q88 0 157.5 15.5t116 38.5t81 63.5t53 76t31.5 91.5t17.5 94t8.5 99h96l-37 -582h-1087 q-21 0 -30 1t-19 5.5t-13.5 15.5t-3.5 31z" />
<glyph unicode="[" horiz-adv-x="653" d="M262 -512v2048h338v-125h-213v-1798h213v-125h-338z" />
<glyph unicode="\" d="M131 1473q0 29 19 46t43 17q20 0 33.5 -9t19 -19t14.5 -33l772 -1883q12 -32 12 -41q0 -29 -18.5 -46t-42.5 -17q-15 0 -26.5 4.5t-19.5 14.5t-12 18.5t-10 23.5l-772 1883q-12 32 -12 41z" />
<glyph unicode="]" horiz-adv-x="653" d="M51 -387h213v1798h-213v125h338v-2048h-338v125z" />
<glyph unicode="^" horiz-adv-x="1138" d="M-10 1196l579 328l580 -328l-25 -45l-557 252l-555 -252z" />
<glyph unicode="_" horiz-adv-x="1779" d="M0 -207h1780v-98h-1780v98z" />
<glyph unicode="`" d="M289 1315q0 48 37 87.5t86 39.5q22 0 41 -8.5t28.5 -17.5t26.5 -27l229 -271l-61 -76l-309 166q-24 13 -36.5 21.5t-27 32t-14.5 53.5z" />
<glyph unicode="a" horiz-adv-x="1144" d="M66 221q0 294 665 322v69q0 242 -225 242q-82 0 -148 -14q6 -4 15 -14t19.5 -35t10.5 -52q0 -61 -38.5 -95t-90.5 -34q-48 0 -87.5 33.5t-39.5 95.5q0 189 367 189q221 0 336 -87t115 -229v-440q0 -22 2 -32t13 -22t37.5 -16.5t72.5 -5.5q18 0 27 -1.5t17.5 -12.5 t8.5 -33q0 -18 -4 -28.5t-14.5 -14.5t-19.5 -5t-28 -1h-98q-61 0 -103.5 11.5t-63.5 25.5t-32 39t-12.5 40.5t-1.5 41.5q-38 -73 -114.5 -121.5t-190.5 -48.5q-62 0 -122.5 9.5t-126 32.5t-106 72.5t-40.5 118.5zM305 223q0 -68 54.5 -115t132.5 -47q20 0 45 4t61 18.5 t64 37.5t48.5 65.5t20.5 98.5v194q-35 -2 -68 -6t-87 -13.5t-97.5 -28t-85 -45t-65 -68.5t-23.5 -95z" />
<glyph unicode="b" horiz-adv-x="1308" d="M76 1309v96l362 16v-600q121 101 301 101q221 0 355.5 -129.5t134.5 -335.5q0 -212 -143 -340.5t-373 -128.5q-172 0 -299 127q-16 -20 -50 -58l-51 -57h-96v1229q0 58 -21 69t-120 11zM451 203q12 -18 28 -36.5t46 -45t74.5 -43.5t94.5 -17q59 0 119 25t100 82 q25 37 37.5 92t14.5 94t2 103q0 43 -0.5 67.5t-5.5 71.5t-13.5 76t-27 66t-44.5 58.5t-66.5 36.5t-92.5 15q-81 0 -151.5 -37t-114.5 -94v-514z" />
<glyph unicode="c" horiz-adv-x="1046" d="M78 455q0 92 30 174.5t90.5 150.5t163 108t234.5 40q356 0 356 -189q0 -61 -38.5 -95t-90.5 -34q-48 0 -87.5 33.5t-39.5 95.5q0 58 41 95q-54 12 -133 12q-54 0 -97.5 -16t-70.5 -38.5t-46.5 -60t-29 -67.5t-14.5 -74.5t-5.5 -66.5t-0.5 -58q0 -395 285 -395 q187 0 256 168q8 21 15 25.5t34 4.5q15 0 22.5 -0.5t17 -7.5t9.5 -20q0 -8 -8.5 -31.5t-35 -62.5t-67 -73.5t-115 -59.5t-167.5 -25q-233 0 -370.5 130t-137.5 337z" />
<glyph unicode="d" horiz-adv-x="1308" d="M78 453q0 214 143.5 341.5t370.5 127.5q157 0 276 -93v400q0 58 -21 69t-120 11v96l363 16v-1245q0 -58 21 -69t120 -11v-96l-375 -12v100q-124 -100 -287 -100q-224 0 -357.5 129.5t-133.5 335.5zM340 453q0 -33 0.5 -51.5t2.5 -55t6 -59.5t13 -56t21 -54t31 -45.5 t43.5 -38t58 -23t74.5 -9.5q157 0 266 150v512q-40 52 -102 88.5t-142 36.5q-59 0 -119 -24.5t-100 -82.5q-25 -37 -37.5 -92t-14 -92t-1.5 -104z" />
<glyph unicode="e" horiz-adv-x="1079" d="M66 461q0 97 33.5 181t95.5 148t159 101t217 37q212 0 326 -111q47 -47 74.5 -114.5t34 -112.5t6.5 -88q0 -38 -13.5 -47t-52.5 -9h-618v-54.5t6.5 -64.5t16.5 -73.5t31.5 -67.5t51.5 -60.5t77 -39.5t107 -16q100 0 180.5 45t112.5 118q10 27 18.5 35t33.5 8q49 0 49 -36 q0 -13 -11 -39.5t-41.5 -64t-74 -70t-119 -55.5t-166.5 -23q-244 0 -389 132t-145 341zM328 514h489q-9 340 -246 340q-52 0 -105 -25t-89 -81q-20 -32 -31 -77.5t-13 -71t-5 -85.5z" />
<glyph unicode="f" horiz-adv-x="718" d="M86 813v96h154v207q0 83 37 146.5t99 99.5t134.5 54t151.5 18q112 0 172.5 -53.5t60.5 -125.5q0 -59 -38.5 -93t-88.5 -34q-46 0 -85.5 33t-39.5 94q0 66 47 101q-14 4 -35 4q-20 0 -41.5 -3.5t-52.5 -18t-54.5 -39t-40.5 -72t-17 -111.5v-207h247v-96h-235v-717h178v-96 q-74 6 -283 6l-258 -6v96h142v717h-154z" />
<glyph unicode="g" d="M66 -154q0 36 16 67t37.5 50t49 33.5t44.5 20t29 8.5q-37 30 -59 74t-26.5 71t-4.5 51q0 95 69 182q-49 35 -77.5 93t-28.5 122q0 56 23 108t69 97t127.5 72t187.5 27q174 0 275 -68q97 78 217 78q64 0 96.5 -38t32.5 -81q0 -37 -24.5 -62.5t-63.5 -25.5t-63.5 24.5 t-24.5 63.5q0 21 8 41q-65 -6 -127 -39q82 -87 82 -197q0 -56 -23 -108t-69.5 -96.5t-128 -71.5t-187.5 -27q-146 0 -250 54q-20 -27 -20 -68q0 -23 8.5 -47.5t36 -50t68.5 -31.5q10 -2 157 -2q123 0 180.5 -2t128 -15t125.5 -40q48 -25 81 -60.5t47.5 -74t20 -67.5t5.5 -58 q0 -115 -132 -190t-390 -75q-118 0 -211.5 17t-150 43.5t-94 62t-52 68.5t-14.5 67zM242 -150q0 -78 87 -133t259 -55q76 0 137.5 12t99.5 31t63.5 44t35.5 49t10 48q0 127 -295 127h-240q-21 0 -38.5 -2.5t-49 -12.5t-50.5 -37.5t-19 -70.5zM342 618q0 -32 1 -50t5.5 -49.5 t16 -50.5t30.5 -39.5t51.5 -30t75.5 -9.5t75.5 9.5t51.5 30t30.5 39.5t16 50.5t5.5 49.5t1 50q0 27 -0.5 42t-4 43t-9.5 44.5t-19.5 38t-32 33.5t-48 20.5t-66.5 8.5t-66.5 -8.5t-48 -20.5t-32 -33.5t-19.5 -38t-9.5 -44.5t-4 -43t-0.5 -42z" />
<glyph unicode="h" horiz-adv-x="1308" d="M92 0v96h141v1133q0 58 -21 69t-120 11v96l363 16v-696h2q20 34 46.5 64.5t68 62.5t101.5 51t130 19q159 0 237 -69t78 -226v-531h142v-96l-259 6l-258 -6v96h142v553q0 111 -28.5 155t-84.5 44q-51 0 -102.5 -20t-98 -58t-75.5 -102t-29 -144v-428h141v-96l-258 6z" />
<glyph unicode="i" horiz-adv-x="653" d="M96 0v96h142v633q0 58 -21 69t-115 11v96l357 17v-826h127v-96l-240 6zM168 1243q0 66 47 113t113 47t112.5 -47t46.5 -113t-46.5 -113t-112.5 -47t-113 47t-47 113z" />
<glyph unicode="j" horiz-adv-x="718" d="M-115 -223q0 56 35.5 92.5t93.5 36.5q55 0 91 -36.5t36 -90.5q0 -67 -49 -103q47 -12 80 -12q44 0 75.5 24t48 63.5t23.5 79.5t7 83v813q0 27 -1.5 39t-12 23.5t-31.5 15.5q-31 4 -111 4v96l377 17v-1008q0 -78 -33 -141.5t-87 -102.5t-118.5 -59.5t-132.5 -20.5 q-129 0 -210 50.5t-81 136.5zM227 1243q0 66 47 113t113 47t113 -47t47 -113t-47 -113t-113 -47t-113 47t-47 113z" />
<glyph unicode="k" horiz-adv-x="1243" d="M76 0v96h141v1133q0 58 -21 69t-120 11v96l362 16v-936l387 306q-10 10 -15.5 13.5t-18 6t-35.5 2.5v96l235 -6q105 0 160 6v-96q-65 0 -102.5 -5t-50.5 -11.5t-31 -20.5l-267 -207l347 -432q22 -27 40 -34t80 -7h35v-96q-105 6 -213 6q-159 0 -250 -6v96q64 0 64 19 q0 3 -8.5 14.5t-22.5 30t-20 26.5l-207 258q-58 -41 -117 -88v-260h141v-96l-247 6z" />
<glyph unicode="l" horiz-adv-x="653" d="M96 0v96h142v1133q0 58 -21.5 69t-120.5 11v96l363 16v-1325h141v-96l-252 6z" />
<glyph unicode="m" horiz-adv-x="1961" d="M92 0v96h141v633q0 58 -21 69t-120 11v96l352 17v-222q53 103 143.5 162.5t217.5 59.5q264 0 307 -197q47 83 133 140t213 57q161 0 238.5 -69.5t77.5 -225.5v-531h141v-96l-258 6l-258 -6v96h141v553q0 112 -29 155.5t-86 43.5q-50 0 -101.5 -20t-98 -58t-76 -102 t-29.5 -144v-428h142v-96l-258 6l-259 -6v96h142v553q0 112 -29 155.5t-86 43.5q-50 0 -101.5 -20t-98 -58t-76 -102t-29.5 -144v-428h141v-96l-258 6z" />
<glyph unicode="n" horiz-adv-x="1308" d="M92 0v96h141v633q0 58 -21 69t-120 11v96l352 17v-222q22 43 52 79.5t73 70t103.5 53t130.5 19.5q159 0 237 -69t78 -226v-531h142v-96l-259 6l-258 -6v96h142v553q0 111 -28.5 155t-84.5 44q-51 0 -102.5 -20t-98 -58t-75.5 -102t-29 -144v-428h141v-96l-258 6z" />
<glyph unicode="o" d="M66 446q0 102 35 190t99.5 153t164.5 102t223 37q244 0 383 -135t139 -347q0 -96 -34 -178.5t-97.5 -145t-164 -98.5t-226.5 -36q-247 0 -384.5 129.5t-137.5 328.5zM328 469q0 -40 0.5 -61t2.5 -60.5t6.5 -62t13.5 -55.5t21.5 -52.5t32.5 -43t45.5 -35.5t60.5 -20.5 t77 -8.5t77 8.5t60.5 20.5t45.5 35.5t32.5 43t21.5 52.5t13.5 55.5t6.5 62t2.5 60.5t0.5 61q0 67 -1.5 104.5t-11.5 91t-30 85.5q-32 52 -90.5 78t-126.5 26q-76 0 -136.5 -31.5t-89.5 -87.5q-16 -32 -24 -83.5t-9 -84t-1 -98.5z" />
<glyph unicode="p" horiz-adv-x="1308" d="M76 -301h141v1032q0 57 -21 67.5t-120 10.5v96l362 17v-101q49 38 128.5 69.5t181.5 31.5q219 0 350 -129.5t131 -335.5q0 -213 -142.5 -341t-373.5 -128q-150 0 -262 92v-381h141v-96l-258 6l-258 -6v96zM451 240q0 -31 2.5 -39.5t19.5 -28.5q92 -111 217 -111 q52 0 99.5 22t88.5 67t65 124t24 183q0 185 -71.5 284t-180.5 99q-50 0 -115 -21t-119 -76q-22 -22 -26 -31t-4 -38v-434z" />
<glyph unicode="q" horiz-adv-x="1243" d="M78 455q0 212 142 339.5t368 127.5q91 0 173 -43t136 -119l109 162h84v-1223h141v-96l-258 6l-258 -6v96h141v399q-126 -110 -287 -110q-217 0 -354 126.5t-137 340.5zM340 453q0 -192 73 -292t177 -100q60 0 126.5 31.5t121.5 112.5q22 30 26 43t4 43v284q0 54 -30 114 t-90.5 105.5t-133.5 45.5q-49 0 -95 -20.5t-87.5 -63t-66.5 -121t-25 -182.5z" />
<glyph unicode="r" horiz-adv-x="970" d="M76 0v96h141v633q0 58 -21 69t-120 11v96l340 17v-232q85 232 272 232q86 0 151.5 -45.5t65.5 -122.5q0 -58 -38 -91.5t-87 -33.5t-87 33t-38 92q0 26 9.5 49.5t19.5 34.5l10 10q-59 0 -105 -27.5t-74 -69.5t-46 -96.5t-24.5 -103.5t-6.5 -96v-359h178v-96q-74 6 -282 6z " />
<glyph unicode="s" horiz-adv-x="929" d="M78 45v223q0 38 7 49t42 11q17 0 24 -1t13.5 -7.5t11.5 -20.5q10 -34 19.5 -59.5t32.5 -61.5t52.5 -59.5t79 -40.5t111.5 -17q19 0 33.5 1t46 4.5t55 14t48 26t38 43.5t13.5 65q0 34 -17.5 61.5t-40.5 43.5t-59 28.5t-58 17t-53 9.5q-160 29 -207 47q-61 22 -110 65 q-82 70 -82 172q0 55 18.5 99t45 71.5t66.5 47.5t72.5 29.5t74 15t60 6t40.5 0.5q130 0 207 -39q80 39 92 39q18 0 26 -7.5t9.5 -17t1.5 -33.5v-163q0 -38 -7.5 -48t-42.5 -10q-30 0 -37.5 8t-9.5 33q-15 172 -241 172q-14 0 -25.5 -0.5t-37 -3t-45 -6.5t-44 -13.5 t-40.5 -22.5t-27 -34t-11 -47q0 -20 8.5 -37t19 -29t31.5 -22.5t35.5 -16.5t40.5 -12.5t37.5 -8.5t36.5 -7q134 -23 191.5 -40t113.5 -58q113 -89 113 -217q0 -61 -18.5 -110.5t-45 -80t-66.5 -52.5t-72.5 -32.5t-74.5 -16.5t-60.5 -6.5t-41.5 -0.5q-149 0 -242 65l-53 -35 q-30 -21 -39.5 -25.5t-21.5 -4.5q-26 0 -31.5 11.5t-5.5 45.5z" />
<glyph unicode="t" horiz-adv-x="915" d="M43 813v74q73 2 132.5 38t96 94.5t56 130t20.5 150.5h96v-391h299v-96h-299v-565q0 -178 119 -178q49 0 86 46t37 142v104h96v-108q0 -116 -66.5 -191t-180.5 -75q-48 0 -90 6t-86.5 24t-76 46.5t-51.5 76.5t-20 111v561h-168z" />
<glyph unicode="u" horiz-adv-x="1308" d="M92 809v96l375 17v-699q0 -49 3.5 -73.5t19 -48t49.5 -32t92 -8.5q113 0 183.5 76t70.5 201v391q0 58 -21.5 69t-120.5 11v96l375 17v-746q0 -58 21.5 -69t120.5 -11v-96l-363 -12v159q-93 -159 -295 -159q-83 0 -144.5 11t-115 38.5t-81.5 81.5t-28 133v477q0 58 -21 69 t-120 11z" />
<glyph unicode="v" horiz-adv-x="1243" d="M53 813v96l234 -6l254 6v-96h-111l260 -559l238 512l10 25q0 11 -31 16.5t-67 5.5v96l186 -6q86 0 162 6v-96q-63 0 -95 -5.5t-41 -13t-16 -24.5l-340 -729q-14 -30 -30 -39.5t-45 -9.5q-18 0 -27.5 1.5t-24 13.5t-26.5 36l-359 770h-131z" />
<glyph unicode="w" horiz-adv-x="1701" d="M51 813v96l223 -6l252 6v-96h-114l215 -528l161 393l9 27q0 6 -43 108h-121v96q99 -6 205 -6l233 6v-96h-115l234 -573l215 524q1 2 3 7t3.5 9.5t1.5 7.5q0 25 -119 25v96l197 -6q87 0 158 6v-96q-58 0 -88 -6t-38 -13.5t-14 -23.5l-295 -723q-12 -31 -25 -43t-48 -12 t-48.5 12t-25.5 43l-217 531l-217 -531q-12 -31 -25.5 -43t-48.5 -12t-48.5 12t-25.5 43l-313 766h-121z" />
<glyph unicode="x" horiz-adv-x="1243" d="M45 0v96q63 0 92.5 1.5t63.5 10.5t51 27l268 301l-319 377h-146v96l226 -6l247 6v-96h-82l201 -235l172 192q1 1 17 25q-32 18 -78 18v96l211 -6l188 6v-96q-82 0 -124.5 -5.5t-55 -12.5t-29.5 -25l-239 -266l344 -408h145v-96l-225 6l-246 -6v96h80l-225 266l-199 -223 l-14 -20q0 -9 23.5 -16t51.5 -7v-96l-211 6z" />
<glyph unicode="y" horiz-adv-x="1243" d="M45 -221q0 56 35 87.5t82 31.5q52 0 85.5 -33t33.5 -84q0 -33 -14 -58.5t-26.5 -35t-25.5 -15.5q21 -8 49 -8q42 0 78.5 16.5t61 38t49.5 59t37 61t30 63.5l47 98l-383 813h-131v96l234 -6l254 6v-96h-111l260 -553l236 504l10 24q0 11 -24 17.5t-48 6.5l-24 1v96l186 -6 q88 0 162 6v-96q-63 0 -95 -5.5t-40 -12.5t-17 -25l-440 -936q-47 -100 -134.5 -172t-197.5 -72q-92 0 -155.5 55.5t-63.5 133.5z" />
<glyph unicode="z" horiz-adv-x="1046" d="M66 45q0 10 1 15t4.5 11.5t12.5 18.5l571 746h-174q-156 0 -216.5 -62t-69.5 -223h-97l25 358h751q24 0 35 -1.5t21 -11.5t10 -30q0 -9 -2.5 -15.5t-4.5 -10.5t-13 -19l-568 -739h176q67 0 116.5 9.5t83 31t55.5 47t35.5 67t20 80.5t11.5 97h96l-37 -414h-778 q-19 0 -27.5 1t-19 4.5t-14.5 13.5t-4 26z" />
<glyph unicode="{" d="M160 512q0 17 6 25t13 9.5t26 2.5q127 6 203 76q47 41 57 81.5t10 147.5v422q2 119 130.5 189.5t346.5 70.5q38 0 51 -5.5t13 -31.5q0 -17 -6 -25t-13 -9.5t-26 -2.5q-105 -6 -189 -57q-37 -27 -56 -60.5t-21.5 -52.5t-2.5 -51v-430q0 -28 -0.5 -43t-5 -44.5t-13 -48.5 t-26.5 -46t-43 -45.5t-64.5 -38t-90.5 -33.5q122 -33 181.5 -99t61.5 -139v-485q0 -49 7 -72q21 -63 86.5 -105.5t185.5 -49.5q19 -2 27 -9.5t8 -27.5q0 -26 -13 -31.5t-51 -5.5q-35 0 -70 2t-84.5 9t-91.5 18.5t-86 33.5t-75 51t-50.5 73t-19.5 98v430q0 80 -4 96 q-16 66 -83 117.5t-193 58.5q-19 2 -27 9.5t-8 27.5z" />
<glyph unicode="|" horiz-adv-x="653" d="M264 -422v1868q0 17 1.5 28t6.5 27.5t19.5 25.5t36.5 9q21 0 35 -9t19 -26t6 -28t1 -27v-1868q0 -17 -1 -28t-6.5 -27.5t-19.5 -25.5t-36 -9q-62 0 -62 90z" />
<glyph unicode="}" d="M160 -475q0 17 6 25t13 9.5t26 2.5q116 6 194 61q35 27 53 58.5t20.5 50.5t2.5 51v430q0 39 1.5 62t14.5 63.5t36.5 68t72.5 57t119 48.5q-124 34 -183 99.5t-61 138.5v485q0 52 -6 72q-20 65 -88 107t-186 48q-19 2 -27 9.5t-8 27.5q0 26 13 31.5t50 5.5q41 0 80 -2.5 t88 -10t91 -20t84 -34.5t71 -51t47 -72t18 -95v-430q0 -81 7 -100q25 -82 97 -124.5t175 -47.5q19 -2 27 -9.5t8 -27.5q0 -17 -6 -25t-13 -9.5t-26 -2.5q-72 -4 -123.5 -27t-75.5 -47q-49 -45 -59.5 -84t-10.5 -147v-422q-2 -116 -128 -188t-351 -72q-37 0 -50 5.5t-13 31.5 z" />
<glyph unicode="~" horiz-adv-x="1138" d="M0 430l111 90q45 37 116 72q83 37 150 37q38 0 77.5 -11.5t65 -24t62.5 -34.5q49 -28 72 -39.5t63 -24t78 -12.5q139 0 313 146l29 -35l-111 -90q-44 -36 -117 -72q-83 -37 -149 -37q-38 0 -77.5 11.5t-65 24t-62.5 34.5q-49 28 -72 39.5t-63 24t-78 12.5 q-139 0 -313 -146z" />
<glyph unicode="&#xa0;" />
<glyph unicode="&#xa1;" horiz-adv-x="716" d="M197 -274l4 26l106 758q5 35 12.5 43t38.5 8q29 0 38.5 -8t13.5 -37l106 -754q4 -20 4 -36q0 -60 -48 -103t-114 -43t-113.5 43t-47.5 103zM199 864q0 66 46.5 113t112.5 47t113 -47t47 -113t-47 -112.5t-113 -46.5t-112.5 46.5t-46.5 112.5z" />
<glyph unicode="&#xa2;" horiz-adv-x="1046" d="M78 455q0 86 26.5 163.5t79 143.5t140.5 110t202 54v82q0 21 14 35t35 14t35.5 -14t14.5 -35v-80q44 -1 83 -5t85.5 -16t80 -31.5t56 -55t22.5 -81.5q0 -61 -38.5 -95t-90.5 -34q-48 0 -87.5 33.5t-39.5 95.5q0 58 41 95q-39 9 -112 12v-776q187 0 256 168q8 21 15 25.5 t34 4.5q15 0 22.5 -0.5t17 -7.5t9.5 -20q0 -8 -7.5 -30t-32 -59t-61 -70t-103.5 -60t-150 -31v-88q0 -20 -15 -34.5t-35 -14.5t-34.5 14.5t-14.5 34.5v88q-208 17 -328 144.5t-120 320.5zM340 465q0 -320 186 -381v754q-38 -10 -68.5 -31.5t-49.5 -45.5t-33 -59t-20.5 -62 t-10 -66t-4 -58t-0.5 -51z" />
<glyph unicode="&#xa3;" horiz-adv-x="1779" d="M129 162q0 53 31 90t85.5 56.5t113.5 27.5t130 8q94 0 195 -33q-4 41 -15.5 89.5t-22 80.5t-30.5 90t-28 82h-305v99h276q-22 80 -22 157q0 135 67.5 249.5t183 180.5t250.5 66q113 0 212.5 -42t162 -122.5t62.5 -181.5q0 -54 -38 -91.5t-91 -37.5q-54 0 -91.5 37.5 t-37.5 91.5q0 51 32 87t82 42q-45 56 -123.5 87.5t-169.5 31.5q-84 0 -146.5 -58.5t-92 -147t-29.5 -192.5q0 -65 18 -157h383v-99h-358q10 -34 32 -105.5t34 -113.5t23.5 -104t12.5 -115q107 -47 189.5 -72.5t167.5 -25.5q73 0 135 20t103.5 63t41.5 103h99 q0 -95 -28 -176.5t-86.5 -135.5t-137.5 -54q-38 0 -75 4.5t-78.5 17.5t-68.5 21.5t-75 31.5t-66 31.5t-73.5 38t-67.5 35.5q-20 -38 -60.5 -65t-86.5 -41t-113.5 -22t-120.5 -10t-129 -2q-103 0 -179.5 50t-76.5 135zM227 162q0 -32 24.5 -52t58 -27t75.5 -7q110 0 193.5 34 t103.5 103q-101 33 -193 33q-40 0 -61.5 -0.5t-58 -2.5t-57 -7.5t-43 -14.5t-32.5 -24t-10 -35z" />
<glyph unicode="&#xa4;" horiz-adv-x="1830" d="M340.5 -9q-3.5 16 5 32t15 23.5t18.5 19.5l149 149q-102 133 -102 297q0 166 102 299l-151 152q-12 12 -17.5 18.5t-14 22t-5 31.5t19.5 32q44 45 105 -16l151 -152q136 102 299 102q166 0 299 -100l148 148q12 12 19.5 18t23 14.5t31.5 5t32 -19.5q44 -44 -18 -106 l-147 -148q102 -136 102 -301q0 -166 -102 -299l149 -150q11 -11 17 -18.5t14 -22.5t4.5 -31t-19.5 -32q-44 -44 -104 16l-150 150q-133 -102 -299 -102t-299 102l-149 -148q-63 -63 -107 -18q-16 16 -19.5 32zM549 512q0 -152 107 -259.5t259 -107.5t259.5 107.5 t107.5 259.5t-107.5 259.5t-259.5 107.5t-259 -107.5t-107 -259.5z" />
<glyph unicode="&#xa5;" horiz-adv-x="1779" d="M39 1309v96q72 -6 338 -6q291 0 375 6v-96h-174l391 -574h49l358 529q7 9 15 24q-56 21 -156 21v96q76 -6 270 -6l234 6v-96h-43q-54 0 -107 -6q-51 -7 -63 -15q-9 -7 -17 -20l-362 -533h278v-98h-346l-51 -76v-174h397v-98h-397v-193h223v-96q-78 6 -362 6 q-287 0 -361 -6v96h222v193h-394v98h394v174l-52 76h-342v98h275l-391 574h-201z" />
<glyph unicode="&#xa6;" horiz-adv-x="653" d="M264 326q0 21 19 35t45 14q24 0 42.5 -14t18.5 -35v-748q0 -17 -1 -28t-6.5 -27.5t-19.5 -25.5t-36 -9q-62 0 -62 90v748zM264 698v748q0 17 1.5 28t6.5 27.5t19.5 25.5t36.5 9q21 0 35 -9t19 -26t6 -28t1 -27v-748q0 -21 -18.5 -35t-42.5 -14q-26 0 -45 14t-19 35z" />
<glyph unicode="&#xa7;" horiz-adv-x="1423" d="M129 614q0 88 54.5 157.5t144.5 107.5q-70 96 -70 206q0 108 64.5 194.5t168 132.5t222.5 46q107 0 199 -45.5t148 -128.5t56 -184q0 -54 -37.5 -91.5t-91.5 -37.5t-91.5 37.5t-37.5 91.5q0 45 28 80.5t70 44.5q-85 73 -243 73q-103 0 -178.5 -60t-75.5 -153 q0 -30 14.5 -55.5t33 -42.5t53.5 -34t59 -25.5t65 -22.5l246 -78q159 -53 262.5 -162.5t103.5 -254.5q0 -89 -54.5 -158.5t-143.5 -106.5q69 -98 69 -206t-64 -194.5t-167.5 -132.5t-222.5 -46q-165 0 -284.5 103t-119.5 255q0 54 37.5 91.5t91.5 37.5t91.5 -37.5 t37.5 -91.5q0 -45 -28 -80.5t-70 -44.5q85 -73 244 -73q103 0 178.5 60t75.5 153q0 30 -14.5 55.5t-33.5 42.5t-54 34t-58.5 25.5t-65.5 22.5l-245 78q-159 53 -263 162.5t-104 254.5zM354 614q0 -126 213 -194l246 -78q117 -39 201 -109q57 60 57 177q0 126 -213 194 l-246 78q-121 41 -200 106q-58 -58 -58 -174z" />
<glyph unicode="&#xa8;" d="M182 1243q0 60 42 101.5t102 41.5t101.5 -41.5t41.5 -101.5q0 -59 -41.5 -101t-101.5 -42t-102 42t-42 101zM709 1243q0 60 41.5 101.5t101.5 41.5t101.5 -41.5t41.5 -101.5q0 -59 -41.5 -101t-101.5 -42t-101.5 42t-41.5 101z" />
<glyph unicode="&#xa9;" horiz-adv-x="1404" d="M0 702q0 143 55.5 273.5t150 224.5t224 149.5t272.5 55.5q191 0 353 -94t256 -256t94 -353q0 -143 -55.5 -272.5t-149.5 -224t-224.5 -150t-273.5 -55.5q-114 0 -221 35.5t-193.5 100.5t-151.5 151.5t-100.5 193.5t-35.5 221zM123 702q0 -117 46 -224.5t123.5 -185 t185 -123.5t224.5 -46q157 0 290.5 77.5t211.5 211t78 290.5t-78 290.5t-211.5 211.5t-290.5 78t-290.5 -78t-211 -211.5t-77.5 -290.5zM346 702q0 140 98 230t263 90q103 0 178 -61l59 53q11 8 19 8q10 0 12 -5.5t2 -21.5v-192q0 -19 -3 -22t-20 -3t-19.5 2.5t-4.5 16.5 q-15 84 -72 133t-131 49q-114 0 -184 -70q-60 -62 -60 -207q0 -136 54 -200q67 -76 192 -76q76 0 139.5 46t67.5 130q0 10 4.5 12t15.5 2q7 0 9.5 -0.5t6 -2t4.5 -5t1 -10.5q0 -84 -74.5 -149.5t-195.5 -65.5q-165 0 -263 89.5t-98 229.5z" />
<glyph unicode="&#xaa;" horiz-adv-x="1015" d="M55 934q0 199 544 224q10 1 15 1v47q0 170 -190 170q-62 0 -123 -10q4 -1 12 -9t16.5 -25t8.5 -36q0 -43 -32 -66.5t-75 -23.5q-41 0 -74.5 23.5t-33.5 66.5q0 131 309 131q186 0 282.5 -60t96.5 -161v-307q0 -16 2 -22.5t11 -15t31 -11.5t60 -4q15 0 23 -1t15.5 -9 t7.5 -23q0 -24 -12.5 -29.5t-43.5 -5.5h-82q-52 0 -88 8t-53.5 17.5t-27 27.5t-10.5 28.5t-1 29.5q-32 -50 -96.5 -84.5t-159.5 -34.5q-53 0 -103.5 6.5t-105.5 23t-89 51t-34 83.5zM104 674q0 14 15 24.5t35 10.5h708q20 0 34.5 -10.5t14.5 -24.5t-14.5 -24.5t-34.5 -10.5 h-708q-20 0 -35 10.5t-15 24.5zM256 934q0 -46 46 -79.5t112 -33.5q22 0 50.5 5.5t65 20.5t60.5 48.5t24 81.5v137q-37 -2 -71.5 -5t-90.5 -15t-96 -30t-70 -52t-30 -78z" />
<glyph unicode="&#xab;" horiz-adv-x="1308" d="M256 483.5q0 13.5 10 22.5q209 185 312 442q6 19 26 19h17q13 0 21.5 -10.5t6.5 -22.5q-47 -239 -155 -451q108 -212 155 -448q2 -14 -6.5 -24.5t-21.5 -10.5h-17q-19 0 -26 18q-105 262 -312 445q-10 7 -10 20.5zM654 483.5q0 13.5 10 22.5q208 183 311 442q6 19 26 19 h17q13 0 22 -10.5t7 -22.5q-46 -236 -156 -451q110 -215 156 -448q2 -14 -7 -24.5t-22 -10.5h-17q-19 0 -26 18q-105 263 -311 445q-10 7 -10 20.5z" />
<glyph unicode="&#xac;" horiz-adv-x="1830" d="M131 743q0 26 18 44t44 18h1443q26 0 44 -18t18 -44v-460q0 -26 -18 -44t-44 -18t-43.5 18t-17.5 44v399h-1382q-26 0 -44 17.5t-18 43.5z" />
<glyph unicode="&#xad;" horiz-adv-x="784" d="M27 356v199h624v-199h-624z" />
<glyph unicode="&#xae;" horiz-adv-x="1404" d="M0 702q0 143 55.5 273.5t150 224.5t224 149.5t272.5 55.5q191 0 353 -94t256 -256t94 -353q0 -143 -55.5 -272.5t-149.5 -224t-224.5 -150t-273.5 -55.5q-114 0 -221 35.5t-193.5 100.5t-151.5 151.5t-100.5 193.5t-35.5 221zM123 702q0 -117 46 -224.5t123.5 -185 t185 -123.5t224.5 -46q157 0 290.5 77.5t211.5 211t78 290.5t-78 290.5t-211.5 211.5t-290.5 78t-290.5 -78t-211 -211.5t-77.5 -290.5zM365 399v41h96v535h-96v41h342q123 0 195.5 -48t72.5 -118q0 -47 -38 -86.5t-112 -58.5q86 -31 101 -105q0 -28 10 -78q2 -19 4.5 -32 t9 -31t19.5 -27.5t32 -9.5q51 0 60 61q0 6 0.5 8.5t2 6t6 5t11.5 1.5q21 0 21 -21q0 -8 -4 -21t-14 -31t-34 -30t-57 -12q-81 0 -131 23q-42 21 -52.5 50t-10.5 85q0 53 -4 72.5t-25 42.5q-28 30 -80 30h-106v-252h98v-41q-33 2 -160 2q-124 0 -157 -2zM584 723h104 q43 0 73 9t44.5 20.5t22.5 31.5t9 32.5t1 33.5q0 27 -3 43t-16 38t-45.5 33t-83.5 11h-106v-252z" />
<glyph unicode="&#xaf;" d="M166 1190v106h848v-106h-848z" />
<glyph unicode="&#xb0;" horiz-adv-x="882" d="M115 1077q0 137 95.5 232.5t231.5 95.5q135 0 230.5 -96t95.5 -232q0 -135 -95.5 -230t-230.5 -95q-136 0 -231.5 95t-95.5 230zM238 1077q0 -85 59.5 -144t144.5 -59t144 59t59 144t-59 145t-144 60t-144.5 -60t-59.5 -145z" />
<glyph unicode="&#xb1;" horiz-adv-x="1830" d="M131 61q0 64 88 64h633v522h-633q-88 0 -88 62q0 22 9 36t25.5 19.5t27 6.5t26.5 1h633v561q0 86 63 86q62 0 62 -86v-561h633q16 0 26.5 -1t27 -6.5t25.5 -19.5t9 -36q0 -62 -88 -62h-633v-522h633q88 0 88 -64q0 -61 -88 -61h-1391q-88 0 -88 61z" />
<glyph unicode="&#xb2;" horiz-adv-x="845" d="M84 623v22q0 19 2.5 25t15.5 16l297 252q160 135 160 256q0 73 -51.5 124.5t-142.5 51.5q-88 0 -152 -43q15 -3 31.5 -10t34.5 -28t18 -50q0 -42 -33.5 -65t-73.5 -23q-21 0 -43.5 7t-42.5 28.5t-20 54.5q0 82 91 134t226 52q158 0 259.5 -63.5t101.5 -167.5 q0 -25 -6.5 -47.5t-15 -40t-30 -39t-36 -34.5t-50 -37.5t-56 -37t-68.5 -42.5q-90 -56 -213 -142h217q135 0 151 8q21 8 37 111h70l-45 -272h-633z" />
<glyph unicode="&#xb3;" horiz-adv-x="845" d="M72 795q0 44 32 69t80 25q50 0 81.5 -25.5t31.5 -66.5q0 -37 -23.5 -60.5t-62.5 -31.5q84 -43 186 -43q44 0 75 14.5t46 33t23 48.5t9 46t1 42q0 22 -1 35.5t-5 38.5t-14.5 41t-27.5 33t-46 25.5t-68 8.5h-65q-17 0 -23.5 1t-12 6t-5.5 16q0 20 18 20q5 2 70 6 q43 2 75 21t46.5 41.5t23 53t9.5 44t1 25.5q0 21 -3 36t-14 36.5t-39 33.5t-71 12q-95 0 -161 -45q8 0 25.5 -5.5t39 -27t21.5 -53.5q0 -35 -28 -59.5t-77 -24.5q-42 0 -71 23.5t-29 62.5q0 75 80.5 125.5t208.5 50.5q151 0 236 -48t85 -122t-62 -126.5t-149 -75.5 q76 -13 130 -38t80 -56.5t37 -59.5t11 -57q0 -43 -22 -83.5t-65 -75t-117 -55t-169 -20.5q-144 0 -237.5 51.5t-93.5 133.5z" />
<glyph unicode="&#xb4;" d="M440 1118l230 271q17 18 26.5 27t28.5 17.5t41 8.5q49 0 86 -39.5t37 -87.5q0 -30 -14.5 -53.5t-27 -32t-36.5 -21.5l-309 -166z" />
<glyph unicode="&#xb5;" horiz-adv-x="1308" d="M92 -301h141v1026q0 61 -20.5 72.5t-120.5 11.5v96l375 17v-697q0 -51 3 -75t18.5 -48t49 -32.5t91.5 -8.5q116 0 186 75.5t70 203.5v385q0 61 -21 72.5t-121 11.5v96l375 17v-742q0 -61 21 -72.5t121 -11.5v-96q-70 -4 -117 -4q-114 0 -246 -8v159q-95 -159 -295 -159 q-84 0 -135 8v-297h141v-96q-105 6 -258 6q-156 0 -258 -6v96z" />
<glyph unicode="&#xb6;" horiz-adv-x="1439" d="M131 936q0 138 82 250.5t216.5 173.5t289.5 61h561q18 0 29 -1t28 -6.5t26 -19.5t9 -36q0 -62 -92 -62h-104v-1603q0 -17 -1.5 -28t-6.5 -27.5t-19.5 -25.5t-36.5 -9q-21 0 -35 9t-19 26t-6 27.5t-1 27.5v1603h-164v-1603q0 -17 -1.5 -28t-6.5 -27.5t-19.5 -25.5 t-36.5 -9q-21 0 -35 9t-19 26t-6 27.5t-1 27.5v758q-283 17 -457 149t-174 336z" />
<glyph unicode="&#xb7;" horiz-adv-x="1830" d="M756 702q0 66 46.5 113t112.5 47t113 -47t47 -113t-47 -112.5t-113 -46.5t-112.5 46.5t-46.5 112.5z" />
<glyph unicode="&#xb8;" horiz-adv-x="1046" d="M209 -311h49q50 0 73.5 0.5t69 2t69.5 6t52 12.5t40.5 21t12.5 31q0 72 -149 72v176h197v-78q86 0 150.5 -48t64.5 -122q0 -25 -7.5 -46.5t-25 -37.5t-35.5 -29t-49.5 -22t-56.5 -15.5t-66.5 -10.5t-68.5 -6.5t-74.5 -3.5t-73 -1h-74.5h-98v99z" />
<glyph unicode="&#xb9;" horiz-adv-x="854" d="M125 1292v58h31q184 0 295 69q14 8 32 8q19 0 27.5 -4.5t10 -11t1.5 -22.5v-709h207v-57q-66 4 -295 4q-227 0 -293 -4v57h205v637q-86 -25 -190 -25h-31z" />
<glyph unicode="&#xba;" horiz-adv-x="987" d="M55 1092q0 147 116.5 241t322.5 94q205 0 321.5 -94t116.5 -241q0 -139 -115 -230.5t-323 -91.5t-323.5 91t-115.5 231zM104 674q0 14 15 24.5t35 10.5h680q21 0 35 -10.5t14 -24.5t-14 -24.5t-35 -10.5h-680q-20 0 -35 10.5t-15 24.5zM274 1106q0 -36 0.5 -55.5t5 -53.5 t12.5 -54t24 -45t38.5 -38.5t58 -23t81.5 -9.5t81 9.5t58 23t39 38.5t24 44.5t12 54t4.5 54t0.5 55.5q0 48 -1 74t-10 63t-26 60q-53 73 -182 73q-63 0 -113.5 -22t-75.5 -62q-14 -22 -21.5 -57t-8.5 -59.5t-1 -69.5z" />
<glyph unicode="&#xbb;" horiz-adv-x="1308" d="M262 35q46 233 156 448q-110 215 -156 451q-3 12 6 22.5t23 10.5h16q21 0 27 -19q99 -255 311 -442q9 -9 9 -22t-9 -21q-210 -186 -311 -445q-7 -18 -27 -18h-16q-14 0 -23 11t-6 24zM659 35q46 233 156 448q-110 215 -156 451q-3 12 6 22.5t23 10.5h17q20 0 26 -19 q99 -255 311 -442q9 -9 9 -22t-9 -21q-210 -186 -311 -445q-7 -18 -26 -18h-17q-14 0 -23 11t-6 24z" />
<glyph unicode="&#xbc;" horiz-adv-x="2013" d="M125 1292v58h31q184 0 295 69q14 8 32 8q19 0 27.5 -4.5t10 -11t1.5 -22.5v-709h207v-57q-66 4 -295 4q-227 0 -293 -4v57h205v637q-86 -25 -190 -25h-31zM573 41q0 19 13 35l942 1323q16 26 49 26q26 0 43.5 -17.5t17.5 -43.5q0 -18 -10 -35l-942 -1323q-20 -26 -51 -26 q-25 0 -43.5 17.5t-18.5 43.5zM1135 193v57l516 536q13 14 20 17.5t29 3.5q30 0 37.5 -7t7.5 -34v-516h141v-57h-141v-136h141v-57q-51 4 -237 4q-199 0 -254 -4v57h166v136h-426zM1212 250h365v381z" />
<glyph unicode="&#xbd;" horiz-adv-x="2013" d="M125 1292v58h31q184 0 295 69q14 8 32 8q19 0 27.5 -4.5t10 -11t1.5 -22.5v-709h207v-57q-66 4 -295 4q-227 0 -293 -4v57h205v637q-86 -25 -190 -25h-31zM473 41q0 20 12 35l942 1323q16 26 50 26q26 0 43.5 -17.5t17.5 -43.5q0 -18 -10 -35l-942 -1323q-20 -26 -51 -26 q-25 0 -43.5 17.5t-18.5 43.5zM1208 0v23q0 19 3 24t18 16l295 252q159 135 159 256q0 73 -51.5 125t-142.5 52q-88 0 -152 -43q84 -22 84 -89q0 -42 -33 -66t-73 -24q-37 0 -72 21.5t-35 70.5q0 82 91.5 134.5t226.5 52.5q159 0 259.5 -63.5t100.5 -168.5 q0 -34 -12.5 -64.5t-30 -53.5t-56.5 -52.5t-70 -49.5t-93 -58l-211 -141h215q136 0 152 8q6 2 11 11.5t9.5 24t7.5 26.5t6.5 28.5t4.5 19.5h67l-45 -272h-633z" />
<glyph unicode="&#xbe;" horiz-adv-x="2013" d="M141 795q0 44 33 69t82 25q48 0 79.5 -25.5t31.5 -66.5q0 -37 -23.5 -60.5t-60.5 -31.5q81 -43 184 -43q44 0 75 14.5t46 33t23 48.5t9 46t1 42q0 27 -1 43.5t-9.5 46t-24 47t-47.5 31.5t-78 14h-66q-17 0 -23.5 1t-12 6t-5.5 16q0 20 17 20q7 2 71 6q43 2 75 21t47 41.5 t23.5 53t9.5 44t1 25.5q0 20 -3.5 36t-14.5 37t-39 33t-70 12q-96 0 -164 -45q8 0 25.5 -5.5t39 -27t21.5 -53.5q0 -35 -27 -59.5t-75 -24.5q-44 0 -73.5 23.5t-29.5 62.5q0 75 80.5 125.5t210.5 50.5q151 0 235.5 -48t84.5 -122t-61.5 -126.5t-147.5 -75.5 q76 -13 129.5 -38t79 -56.5t36.5 -59.5t11 -57q0 -43 -21.5 -83.5t-64.5 -75t-116.5 -55t-168.5 -20.5q-144 0 -239 51.5t-95 133.5zM573 41q0 19 13 35l942 1323q16 26 49 26q26 0 43.5 -17.5t17.5 -43.5q0 -18 -10 -35l-942 -1323q-20 -26 -51 -26q-25 0 -43.5 17.5 t-18.5 43.5zM1135 193v57l516 536q13 14 20 17.5t29 3.5q30 0 37.5 -7t7.5 -34v-516h141v-57h-141v-136h141v-57q-51 4 -237 4q-199 0 -254 -4v57h166v136h-426zM1212 250h365v381z" />
<glyph unicode="&#xbf;" horiz-adv-x="1112" d="M131 -145q0 44 12 80.5t33.5 61.5t35.5 37t34 25q47 33 84.5 70t61 68.5t40.5 69t25 63t12.5 59.5t5 50t0.5 42v25q0 36 7 45.5t40 9.5q36 0 42.5 -11.5t6.5 -64.5q0 -127 -26.5 -239t-108.5 -234q-25 -37 -34 -68t-9 -106q0 -33 0.5 -48.5t3 -38.5t7.5 -33t15 -23 t25 -18t36.5 -9t51.5 -4q27 0 60 2t104.5 18t116.5 46q-35 12 -62.5 42t-27.5 81q0 60 38 94.5t91 34.5q47 0 87 -33t40 -99q0 -119 -117.5 -189.5t-341.5 -70.5q-26 0 -46 0.5t-63.5 6t-76.5 14.5t-73 29t-66.5 47t-45 70.5t-18.5 97.5zM362 864q0 66 47 113t113 47 t113 -47t47 -113t-47 -112.5t-113 -46.5t-113 46.5t-47 112.5z" />
<glyph unicode="&#xc0;" horiz-adv-x="1779" d="M84 0v96h43q75 0 112 6t46 14t16 27l508 1233q12 31 26 42.5t54 11.5q22 0 33 -2t24.5 -14.5t24.5 -37.5l524 -1280h199v-96q-72 6 -334 6q-283 0 -361 -6v96h195l-123 299h-549l-102 -248l-8 -24q0 -12 45.5 -18.5t90.5 -7.5l46 -1v-96q-76 6 -270 6zM563 492h467 l-233 569zM571 1714q-12 57 24.5 102.5t94.5 45.5q33 0 84 -37q35 -27 142.5 -117.5t132.5 -110.5l-50 -86l-331 111q-20 7 -30 11t-26.5 14t-26.5 27t-14 40z" />
<glyph unicode="&#xc1;" horiz-adv-x="1779" d="M84 0v96h43q75 0 112 6t46 14t16 27l508 1233q12 31 26 42.5t54 11.5q22 0 33 -2t24.5 -14.5t24.5 -37.5l524 -1280h199v-96q-72 6 -334 6q-283 0 -361 -6v96h195l-123 299h-549l-102 -248l-8 -24q0 -12 45.5 -18.5t90.5 -7.5l46 -1v-96q-76 6 -270 6zM563 492h467 l-233 569zM731 1597q25 20 132.5 110.5t142.5 117.5q51 37 84 37q58 0 94 -45.5t24 -102.5q-4 -23 -13.5 -40t-26 -27t-26.5 -14.5t-30 -10.5l-332 -111z" />
<glyph unicode="&#xc2;" horiz-adv-x="1779" d="M84 0v96h43q75 0 112 6t46 14t16 27l508 1233q12 31 26 42.5t54 11.5q22 0 33 -2t24.5 -14.5t24.5 -37.5l524 -1280h199v-96q-72 6 -334 6q-283 0 -361 -6v96h195l-123 299h-549l-102 -248l-8 -24q0 -12 45.5 -18.5t90.5 -7.5l46 -1v-96q-76 6 -270 6zM532 1540l359 289 l358 -289l-32 -49l-328 119l-328 -119zM563 492h467l-233 569z" />
<glyph unicode="&#xc3;" horiz-adv-x="1779" d="M84 0v96h43q75 0 112 6t46 14t16 27l508 1233q12 31 26 42.5t54 11.5q22 0 33 -2t24.5 -14.5t24.5 -37.5l524 -1280h199v-96q-72 6 -334 6q-283 0 -361 -6v96h195l-123 299h-549l-102 -248l-8 -24q0 -12 45.5 -18.5t90.5 -7.5l46 -1v-96q-76 6 -270 6zM500 1542 q12 12 50.5 54t49.5 53q63 63 148 63q55 0 161 -35t164 -35q95 0 156 70l53 -51q-11 -11 -49.5 -53t-50.5 -54q-63 -63 -148 -63q-56 0 -162 35t-163 35q-95 0 -156 -70zM563 492h467l-233 569z" />
<glyph unicode="&#xc4;" horiz-adv-x="1779" d="M84 0v96h43q75 0 112 6t46 14t16 27l508 1233q12 31 26 42.5t54 11.5q22 0 33 -2t24.5 -14.5t24.5 -37.5l524 -1280h199v-96q-72 6 -334 6q-283 0 -361 -6v96h195l-123 299h-549l-102 -248l-8 -24q0 -12 45.5 -18.5t90.5 -7.5l46 -1v-96q-76 6 -270 6zM436 1634 q0 60 42 102t102 42t101.5 -42t41.5 -102q0 -59 -41.5 -101t-101.5 -42t-102 42t-42 101zM563 492h467l-233 569zM1057 1634q0 60 41.5 102t101.5 42t101.5 -42t41.5 -102q0 -59 -41.5 -101t-101.5 -42t-101.5 42t-41.5 101z" />
<glyph unicode="&#xc5;" horiz-adv-x="1779" d="M84 0v96h43q75 0 112 6t46 14t16 27l508 1233q12 31 26 42.5t54 11.5q22 0 33 -2t24.5 -14.5t24.5 -37.5l524 -1280h199v-96q-72 6 -334 6q-283 0 -361 -6v96h195l-123 299h-549l-102 -248l-8 -24q0 -12 45.5 -18.5t90.5 -7.5l46 -1v-96q-76 6 -270 6zM563 492h467 l-233 569zM647 1604q0 66 59 118t185 52q123 0 183.5 -51.5t60.5 -123.5q0 -66 -59 -117.5t-185 -51.5q-124 0 -184 51.5t-60 122.5zM758 1602q0 -56 31.5 -72.5t101.5 -16.5t101.5 16.5t31.5 72.5q0 24 -7 40.5t-18 26t-30 14.5t-35.5 6t-42.5 1t-42.5 -1t-35.5 -6 t-30 -14.5t-18 -26t-7 -40.5z" />
<glyph unicode="&#xc6;" horiz-adv-x="2134" d="M84 0v96h43q53 0 104 6q40 4 50 10.5t22 32.5l492 1164h-160v96h1302l64 -494h-96q-6 46 -11 77.5t-14 69.5t-19 63.5t-26 54t-36.5 47t-48.5 36.5t-62.5 28t-79 16t-97.5 6h-254v-586h129q59 0 100 11.5t64.5 29.5t36 50.5t16 65t3.5 83.5h96v-576h-96q0 64 -6.5 102.5 t-28.5 73t-67 49.5t-118 15h-129v-531h263q105 0 181 24.5t120 59t75 102.5t44.5 124t29.5 155h96l-94 -561h-1151v96h166v531h-362l-213 -508q55 -23 182 -23v-96q-76 6 -268 6zM666 723h321v586h-76z" />
<glyph unicode="&#xc7;" horiz-adv-x="1701" d="M131 702q0 157 57.5 290.5t162.5 229.5t260 150.5t343 54.5q231 0 404 -139l135 121q21 18 39 18q26 0 31.5 -11.5t5.5 -45.5v-440q0 -40 -8.5 -49t-47.5 -9q-35 0 -42.5 6.5t-12.5 36.5q-33 191 -162 303.5t-299 112.5q-262 0 -417 -157q-136 -142 -136 -472 q0 -150 26.5 -260.5t94.5 -193.5q75 -89 192 -131.5t247 -42.5q64 0 127 15t123.5 47t107 78t77 113t34.5 146q1 24 11.5 29.5t35.5 5.5q29 0 39 -7t10 -36q0 -83 -37 -164t-104 -148t-169.5 -113.5t-224.5 -57.5v-50q86 0 150.5 -48t64.5 -122q0 -25 -7.5 -46.5t-25 -37.5 t-35.5 -29t-49.5 -22t-56 -15.5t-66 -10.5t-68.5 -6.5t-74.5 -3.5t-73 -1h-74.5h-98v99h49q50 0 73.5 0.5t69 2t69.5 6t52 12.5t40.5 21t12.5 31q0 72 -149 72v150q-327 32 -517 228.5t-190 489.5z" />
<glyph unicode="&#xc8;" horiz-adv-x="1548" d="M80 0v96h221v1200h-221v97h1272l63 -494h-96q-8 59 -16 100.5t-23 86t-35 74.5t-50.5 57.5t-70.5 43.5t-95.5 25.5t-125.5 9.5h-311v-526h113q73 0 117.5 15t66 49.5t27.5 72.5t6 103h96v-576h-96q0 65 -6.5 103t-28 72.5t-66 49.5t-116.5 15h-113v-578h311 q80 0 143.5 11.5t109.5 30.5t81.5 52.5t58 68t40 87.5t27.5 99.5t21 115.5h97l-95 -561h-1306zM455 1714q-12 57 24 102.5t94 45.5q33 0 84 -37q35 -27 142.5 -117.5t132.5 -110.5l-49 -86l-332 111q-20 6 -30 10.5t-26.5 14.5t-26 27t-13.5 40z" />
<glyph unicode="&#xc9;" horiz-adv-x="1548" d="M80 0v96h221v1200h-221v97h1272l63 -494h-96q-8 59 -16 100.5t-23 86t-35 74.5t-50.5 57.5t-70.5 43.5t-95.5 25.5t-125.5 9.5h-311v-526h113q73 0 117.5 15t66 49.5t27.5 72.5t6 103h96v-576h-96q0 65 -6.5 103t-28 72.5t-66 49.5t-116.5 15h-113v-578h311 q80 0 143.5 11.5t109.5 30.5t81.5 52.5t58 68t40 87.5t27.5 99.5t21 115.5h97l-95 -561h-1306zM614 1597q25 20 132.5 110.5t142.5 117.5q51 37 84 37q58 0 94.5 -45.5t24.5 -102.5q-4 -23 -14 -40t-26.5 -27t-26.5 -14t-30 -11l-331 -111z" />
<glyph unicode="&#xca;" horiz-adv-x="1548" d="M80 0v96h221v1200h-221v97h1272l63 -494h-96q-8 59 -16 100.5t-23 86t-35 74.5t-50.5 57.5t-70.5 43.5t-95.5 25.5t-125.5 9.5h-311v-526h113q73 0 117.5 15t66 49.5t27.5 72.5t6 103h96v-576h-96q0 65 -6.5 103t-28 72.5t-66 49.5t-116.5 15h-113v-578h311 q80 0 143.5 11.5t109.5 30.5t81.5 52.5t58 68t40 87.5t27.5 99.5t21 115.5h97l-95 -561h-1306zM416 1540l358 289l359 -289l-33 -49l-328 119l-328 -119z" />
<glyph unicode="&#xcb;" horiz-adv-x="1548" d="M80 0v96h221v1200h-221v97h1272l63 -494h-96q-8 59 -16 100.5t-23 86t-35 74.5t-50.5 57.5t-70.5 43.5t-95.5 25.5t-125.5 9.5h-311v-526h113q73 0 117.5 15t66 49.5t27.5 72.5t6 103h96v-576h-96q0 65 -6.5 103t-28 72.5t-66 49.5t-116.5 15h-113v-578h311 q80 0 143.5 11.5t109.5 30.5t81.5 52.5t58 68t40 87.5t27.5 99.5t21 115.5h97l-95 -561h-1306zM319 1634q0 60 42 102t102 42t101.5 -42t41.5 -102q0 -59 -41.5 -101t-101.5 -42t-102 42t-42 101zM940 1634q0 60 41.5 102t101.5 42t102 -42t42 -102q0 -59 -42 -101t-102 -42 t-101.5 42t-41.5 101z" />
<glyph unicode="&#xcc;" horiz-adv-x="892" d="M68 0v96h233v1213h-233v96q84 -6 378 -6q295 0 379 6v-96h-233v-1213h233v-96q-84 6 -379 6q-294 0 -378 -6zM129 1714q-12 57 24.5 102.5t94.5 45.5q33 0 84 -37q35 -27 142 -117.5t132 -110.5l-49 -86l-332 111q-20 6 -30 10.5t-26.5 14.5t-26 27t-13.5 40z" />
<glyph unicode="&#xcd;" horiz-adv-x="892" d="M68 0v96h233v1213h-233v96q84 -6 378 -6q295 0 379 6v-96h-233v-1213h233v-96q-84 6 -379 6q-294 0 -378 -6zM289 1597q25 20 132 110.5t142 117.5q51 37 84 37q58 0 94.5 -45.5t24.5 -102.5q-4 -23 -13.5 -40t-26 -27t-26.5 -14.5t-30 -10.5l-332 -111z" />
<glyph unicode="&#xce;" horiz-adv-x="892" d="M68 0v96h233v1213h-233v96q84 -6 378 -6q295 0 379 6v-96h-233v-1213h233v-96q-84 6 -379 6q-294 0 -378 -6zM90 1540l359 289l358 -289l-33 -49l-328 119l-327 -119z" />
<glyph unicode="&#xcf;" horiz-adv-x="892" d="M-6 1634q0 60 41.5 102t101.5 42t102 -42t42 -102q0 -59 -42 -101t-102 -42t-101.5 42t-41.5 101zM68 0v96h233v1213h-233v96q84 -6 378 -6q295 0 379 6v-96h-233v-1213h233v-96q-84 6 -379 6q-294 0 -378 -6zM614 1634q0 60 42 102t102 42t101.5 -42t41.5 -102 q0 -59 -41.5 -101t-101.5 -42t-102 42t-42 101z" />
<glyph unicode="&#xd0;" horiz-adv-x="1806" d="M80 0v96h221v557h-221v99h221v557h-221v96h881q152 0 282.5 -49t226 -139t149.5 -225.5t54 -301.5q0 -214 -94 -372t-253.5 -238t-362.5 -80h-883zM580 96h299q72 0 139.5 13t142.5 53.5t121 105.5q50 69 70 163.5t20 260.5q0 155 -18.5 258t-69.5 176q-69 98 -178 140.5 t-227 42.5h-299v-557h323v-99h-323v-557z" />
<glyph unicode="&#xd1;" horiz-adv-x="1843" d="M80 0v96h51q62 0 111 6q42 4 50.5 12t8.5 42v1153h-221v96h469q31 0 40 -4t27 -23l816 -958v829q0 34 -9 42t-53 12q-56 6 -108 6h-52v96q84 -6 277 -6q196 0 274 6v-96h-51q-62 0 -111 -6q-42 -4 -50.5 -12t-8.5 -42v-1183q0 -22 -1 -31t-6 -19t-16.5 -13t-31.5 -3 q-24 0 -32 4t-23 23l-1020 1200v-1071q0 -34 8.5 -42t52.5 -12q55 -6 109 -6h51v-96q-84 6 -277 6q-196 0 -274 -6zM532 1542q11 11 50 53t51 54q63 63 147 63q56 0 162 -35t164 -35q95 0 156 70l53 -51q-11 -12 -50 -54t-51 -53q-63 -63 -147 -63q-56 0 -162 35t-164 35 q-94 0 -155 -70z" />
<glyph unicode="&#xd2;" horiz-adv-x="1769" d="M131 694q0 161 52.5 296t148.5 232t238 151t315 54q341 0 546 -200.5t205 -532.5q0 -157 -52 -289t-147.5 -227t-237.5 -148t-316 -53q-172 0 -313.5 52.5t-237.5 147t-148.5 227t-52.5 290.5zM444 725q0 -145 18 -252.5t66 -196.5q59 -109 156 -161t199 -52 q96 0 189.5 46t156.5 149q40 66 62 155t27 156t5 156q0 131 -16.5 235.5t-69.5 192.5q-59 96 -154 144.5t-200 48.5q-98 0 -190 -44t-152 -133q-60 -93 -78.5 -203t-18.5 -241zM565 1714q-12 57 24.5 102.5t94.5 45.5q33 0 84 -37q35 -27 142 -117.5t132 -110.5l-49 -86 l-331 111q-20 7 -30 11t-26.5 14t-26.5 27t-14 40z" />
<glyph unicode="&#xd3;" horiz-adv-x="1769" d="M131 694q0 161 52.5 296t148.5 232t238 151t315 54q341 0 546 -200.5t205 -532.5q0 -157 -52 -289t-147.5 -227t-237.5 -148t-316 -53q-172 0 -313.5 52.5t-237.5 147t-148.5 227t-52.5 290.5zM444 725q0 -145 18 -252.5t66 -196.5q59 -109 156 -161t199 -52 q96 0 189.5 46t156.5 149q40 66 62 155t27 156t5 156q0 131 -16.5 235.5t-69.5 192.5q-59 96 -154 144.5t-200 48.5q-98 0 -190 -44t-152 -133q-60 -93 -78.5 -203t-18.5 -241zM725 1597q25 20 132 110.5t142 117.5q51 37 84 37q58 0 94.5 -45.5t24.5 -102.5 q-4 -23 -13.5 -40t-26 -27t-26.5 -14.5t-30 -10.5l-332 -111z" />
<glyph unicode="&#xd4;" horiz-adv-x="1769" d="M131 694q0 161 52.5 296t148.5 232t238 151t315 54q341 0 546 -200.5t205 -532.5q0 -157 -52 -289t-147.5 -227t-237.5 -148t-316 -53q-172 0 -313.5 52.5t-237.5 147t-148.5 227t-52.5 290.5zM444 725q0 -145 18 -252.5t66 -196.5q59 -109 156 -161t199 -52 q96 0 189.5 46t156.5 149q40 66 62 155t27 156t5 156q0 131 -16.5 235.5t-69.5 192.5q-59 96 -154 144.5t-200 48.5q-98 0 -190 -44t-152 -133q-60 -93 -78.5 -203t-18.5 -241zM526 1540l359 289l358 -289l-33 -49l-327 119l-328 -119z" />
<glyph unicode="&#xd5;" horiz-adv-x="1769" d="M131 694q0 161 52.5 296t148.5 232t238 151t315 54q341 0 546 -200.5t205 -532.5q0 -157 -52 -289t-147.5 -227t-237.5 -148t-316 -53q-172 0 -313.5 52.5t-237.5 147t-148.5 227t-52.5 290.5zM444 725q0 -145 18 -252.5t66 -196.5q59 -109 156 -161t199 -52 q96 0 189.5 46t156.5 149q40 66 62 155t27 156t5 156q0 131 -16.5 235.5t-69.5 192.5q-59 96 -154 144.5t-200 48.5q-98 0 -190 -44t-152 -133q-60 -93 -78.5 -203t-18.5 -241zM494 1542l49.5 54t50.5 53q63 63 147 63q56 0 162 -35t164 -35q95 0 156 70l53 -51 q-12 -11 -50.5 -53l-49.5 -54q-63 -63 -148 -63q-56 0 -162 35t-164 35q-94 0 -155 -70z" />
<glyph unicode="&#xd6;" horiz-adv-x="1769" d="M131 694q0 161 52.5 296t148.5 232t238 151t315 54q341 0 546 -200.5t205 -532.5q0 -157 -52 -289t-147.5 -227t-237.5 -148t-316 -53q-172 0 -313.5 52.5t-237.5 147t-148.5 227t-52.5 290.5zM430 1634q0 60 41.5 102t101.5 42t102 -42t42 -102q0 -59 -42 -101t-102 -42 t-101.5 42t-41.5 101zM444 725q0 -145 18 -252.5t66 -196.5q59 -109 156 -161t199 -52q96 0 189.5 46t156.5 149q40 66 62 155t27 156t5 156q0 131 -16.5 235.5t-69.5 192.5q-59 96 -154 144.5t-200 48.5q-98 0 -190 -44t-152 -133q-60 -93 -78.5 -203t-18.5 -241z M1051 1634q0 60 41.5 102t101.5 42t101.5 -42t41.5 -102q0 -59 -41.5 -101t-101.5 -42t-101.5 42t-41.5 101z" />
<glyph unicode="&#xd7;" horiz-adv-x="1830" d="M340.5 -9q-3.5 16 5 32t15 23.5t18.5 19.5l446 448l-448 449q-12 12 -17.5 18.5t-14 22t-5 31.5t19.5 32q44 45 105 -16l450 -449l447 447q12 12 19.5 18t23 14.5t31.5 5t32 -19.5q44 -44 -18 -106l-446 -447l448 -451q11 -11 17 -18.5t14 -22.5t4.5 -31t-19.5 -32 q-44 -44 -104 16l-449 449l-448 -447q-63 -63 -107 -18q-16 16 -19.5 32z" />
<glyph unicode="&#xd8;" horiz-adv-x="1830" d="M131 696q0 153 51 284.5t147.5 231.5t247 157.5t338.5 57.5q225 0 400 -84l131 185l65 -47l-125 -178q83 -52 145.5 -124.5t97.5 -154.5t52 -163.5t17 -164.5q0 -155 -53 -287t-151.5 -228t-247.5 -150t-333 -54q-220 0 -401 82l-129 -182q-2 1 -15.5 11t-29.5 21.5 t-21 14.5l123 176q-87 55 -150.5 129.5t-96.5 155.5t-47.5 157t-14.5 154zM422 696q0 -55 0.5 -88t6 -94t15.5 -104.5t31 -95.5t51 -91l717 1018q-134 113 -330 113q-121 0 -227.5 -48.5t-169.5 -142.5q-32 -50 -52.5 -106.5t-28.5 -122.5t-10.5 -115t-2.5 -123zM586 162 q129 -111 329 -111q38 0 77.5 5t98 21t116 55t100.5 97q35 48 57.5 108t30.5 131t10 114.5t2 113.5q0 163 -20 277.5t-87 206.5z" />
<glyph unicode="&#xd9;" horiz-adv-x="1812" d="M80 1309v96q78 -6 366 -6q289 0 367 6v-96h-221v-852q0 -35 1 -58.5t8.5 -67t20.5 -74.5t39.5 -68t64 -60t96 -39t132.5 -16q70 0 132.5 12.5t121 42.5t100.5 75t67.5 115t25.5 158v772q0 34 -9 42t-53 12q-56 6 -108 6h-51v96q84 -6 276 -6q197 0 275 6v-96h-52 q-61 0 -110 -6q-43 -4 -51.5 -12t-8.5 -42v-780q0 -97 -34 -183.5t-100.5 -156.5t-177 -111t-251.5 -41q-155 0 -279 39t-203 107t-121 157.5t-42 192.5v836h-221zM643 1714q-12 57 24.5 102.5t94.5 45.5q33 0 84 -37q35 -27 142 -117.5t132 -110.5l-49 -86l-332 111 q-20 6 -30 10.5t-26.5 14.5t-26 27t-13.5 40z" />
<glyph unicode="&#xda;" horiz-adv-x="1812" d="M80 1309v96q78 -6 366 -6q289 0 367 6v-96h-221v-852q0 -35 1 -58.5t8.5 -67t20.5 -74.5t39.5 -68t64 -60t96 -39t132.5 -16q70 0 132.5 12.5t121 42.5t100.5 75t67.5 115t25.5 158v772q0 34 -9 42t-53 12q-56 6 -108 6h-51v96q84 -6 276 -6q197 0 275 6v-96h-52 q-61 0 -110 -6q-43 -4 -51.5 -12t-8.5 -42v-780q0 -97 -34 -183.5t-100.5 -156.5t-177 -111t-251.5 -41q-155 0 -279 39t-203 107t-121 157.5t-42 192.5v836h-221zM803 1597q25 20 132 110.5t142 117.5q51 37 84 37q58 0 94.5 -45.5t24.5 -102.5q-4 -23 -13.5 -40t-26 -27 t-26.5 -14.5t-30 -10.5l-332 -111z" />
<glyph unicode="&#xdb;" horiz-adv-x="1812" d="M80 1309v96q78 -6 366 -6q289 0 367 6v-96h-221v-852q0 -35 1 -58.5t8.5 -67t20.5 -74.5t39.5 -68t64 -60t96 -39t132.5 -16q70 0 132.5 12.5t121 42.5t100.5 75t67.5 115t25.5 158v772q0 34 -9 42t-53 12q-56 6 -108 6h-51v96q84 -6 276 -6q197 0 275 6v-96h-52 q-61 0 -110 -6q-43 -4 -51.5 -12t-8.5 -42v-780q0 -97 -34 -183.5t-100.5 -156.5t-177 -111t-251.5 -41q-155 0 -279 39t-203 107t-121 157.5t-42 192.5v836h-221zM604 1540l359 289l358 -289l-33 -49l-327 119l-328 -119z" />
<glyph unicode="&#xdc;" horiz-adv-x="1812" d="M80 1309v96q78 -6 366 -6q289 0 367 6v-96h-221v-852q0 -35 1 -58.5t8.5 -67t20.5 -74.5t39.5 -68t64 -60t96 -39t132.5 -16q70 0 132.5 12.5t121 42.5t100.5 75t67.5 115t25.5 158v772q0 34 -9 42t-53 12q-56 6 -108 6h-51v96q84 -6 276 -6q197 0 275 6v-96h-52 q-61 0 -110 -6q-43 -4 -51.5 -12t-8.5 -42v-780q0 -97 -34 -183.5t-100.5 -156.5t-177 -111t-251.5 -41q-155 0 -279 39t-203 107t-121 157.5t-42 192.5v836h-221zM508 1634q0 60 41.5 102t101.5 42t102 -42t42 -102q0 -59 -42 -101t-102 -42t-101.5 42t-41.5 101z M1128 1634q0 60 42 102t102 42t101.5 -42t41.5 -102q0 -59 -41.5 -101t-101.5 -42t-102 42t-42 101z" />
<glyph unicode="&#xdd;" horiz-adv-x="1779" d="M39 1309v96q72 -6 338 -6q291 0 375 6v-96h-174l415 -609l383 564q7 9 15 24q-56 21 -156 21v96q76 -6 270 -6l234 6v-96h-43q-54 0 -107 -6q-51 -7 -63 -15q-9 -7 -17 -20l-481 -707v-465h223v-96q-78 6 -362 6q-287 0 -361 -6v96h222v465l-510 748h-201zM731 1597 q25 20 132.5 110.5t142.5 117.5q51 37 84 37q58 0 94 -45.5t24 -102.5q-4 -23 -13.5 -40t-26 -27t-26.5 -14.5t-30 -10.5l-332 -111z" />
<glyph unicode="&#xde;" horiz-adv-x="1609" d="M68 0v96h233v1213h-233v96q84 -6 378 -6q295 0 379 6v-96h-233v-213h342q249 0 396 -113.5t147 -286.5q0 -117 -71.5 -206t-189.5 -135t-262 -46h-362v-213h233v-96q-84 6 -379 6q-294 0 -378 -6zM580 399h274q64 0 114 10t82.5 24t55 40.5t33.5 47.5t16.5 58.5t6.5 59 t1 63.5q0 59 -2 90t-18 79t-46 72t-91 43.5t-150 19.5h-276v-607z" />
<glyph unicode="&#xdf;" horiz-adv-x="1222" d="M76 0v96h141v717h-141v96h141v230q0 144 118.5 219.5t313.5 75.5q116 0 204 -25t138 -66.5t74.5 -90t24.5 -101.5q0 -25 -5 -50.5t-21.5 -59.5t-43 -63.5t-73.5 -60t-109 -51.5q138 -52 227.5 -182.5t89.5 -314.5q0 -121 -60 -209t-156 -130t-214 -42q-101 0 -160 53 t-59 123q0 38 19 63t40.5 33t42.5 8q41 0 72 -29t31 -73q0 -26 -14 -51.5t-38 -38.5q30 -15 60 -15q194 0 194 306q0 446 -307 469h-6q-5 1 -6 1.5t-5.5 1t-5.5 1.5t-4.5 3t-4 4.5t-2.5 6t-2.5 8t-0.5 10.5q0 17 6.5 25t13.5 9.5t25 2.5q71 4 119.5 26.5t72 58.5t33 74 t9.5 85q0 17 -0.5 28.5t-4.5 35.5t-11 40.5t-22 37.5t-35.5 34t-53.5 22t-74 9q-43 0 -77.5 -9.5t-55.5 -23t-36.5 -35.5t-23 -39.5t-11.5 -42t-4.5 -37t-0.5 -30.5v-1143q-82 6 -133 6z" />
<glyph unicode="&#xe0;" horiz-adv-x="1144" d="M66 221q0 294 665 322v69q0 242 -225 242q-82 0 -148 -14q6 -4 15 -14t19.5 -35t10.5 -52q0 -61 -38.5 -95t-90.5 -34q-48 0 -87.5 33.5t-39.5 95.5q0 189 367 189q221 0 336 -87t115 -229v-440q0 -22 2 -32t13 -22t37.5 -16.5t72.5 -5.5q18 0 27 -1.5t17.5 -12.5 t8.5 -33q0 -18 -4 -28.5t-14.5 -14.5t-19.5 -5t-28 -1h-98q-61 0 -103.5 11.5t-63.5 25.5t-32 39t-12.5 40.5t-1.5 41.5q-38 -73 -114.5 -121.5t-190.5 -48.5q-62 0 -122.5 9.5t-126 32.5t-106 72.5t-40.5 118.5zM272 1315q0 48 37 87.5t86 39.5q22 0 41 -8.5t29.5 -18 t26.5 -26.5l229 -271l-62 -76l-309 166q-24 13 -36.5 21.5t-27 32t-14.5 53.5zM305 223q0 -68 54.5 -115t132.5 -47q20 0 45 4t61 18.5t64 37.5t48.5 65.5t20.5 98.5v194q-35 -2 -68 -6t-87 -13.5t-97.5 -28t-85 -45t-65 -68.5t-23.5 -95z" />
<glyph unicode="&#xe1;" horiz-adv-x="1144" d="M66 221q0 294 665 322v69q0 242 -225 242q-82 0 -148 -14q6 -4 15 -14t19.5 -35t10.5 -52q0 -61 -38.5 -95t-90.5 -34q-48 0 -87.5 33.5t-39.5 95.5q0 189 367 189q221 0 336 -87t115 -229v-440q0 -22 2 -32t13 -22t37.5 -16.5t72.5 -5.5q18 0 27 -1.5t17.5 -12.5 t8.5 -33q0 -18 -4 -28.5t-14.5 -14.5t-19.5 -5t-28 -1h-98q-61 0 -103.5 11.5t-63.5 25.5t-32 39t-12.5 40.5t-1.5 41.5q-38 -73 -114.5 -121.5t-190.5 -48.5q-62 0 -122.5 9.5t-126 32.5t-106 72.5t-40.5 118.5zM305 223q0 -68 54.5 -115t132.5 -47q20 0 45 4t61 18.5 t64 37.5t48.5 65.5t20.5 98.5v194q-35 -2 -68 -6t-87 -13.5t-97.5 -28t-85 -45t-65 -68.5t-23.5 -95zM424 1118l229 271q16 17 26.5 26.5t29.5 18t41 8.5q49 0 85.5 -39.5t36.5 -87.5q0 -30 -14 -53.5t-26.5 -32t-36.5 -21.5l-310 -166z" />
<glyph unicode="&#xe2;" horiz-adv-x="1144" d="M66 221q0 294 665 322v69q0 242 -225 242q-82 0 -148 -14q6 -4 15 -14t19.5 -35t10.5 -52q0 -61 -38.5 -95t-90.5 -34q-48 0 -87.5 33.5t-39.5 95.5q0 189 367 189q221 0 336 -87t115 -229v-440q0 -22 2 -32t13 -22t37.5 -16.5t72.5 -5.5q18 0 27 -1.5t17.5 -12.5 t8.5 -33q0 -18 -4 -28.5t-14.5 -14.5t-19.5 -5t-28 -1h-98q-61 0 -103.5 11.5t-63.5 25.5t-32 39t-12.5 40.5t-1.5 41.5q-38 -73 -114.5 -121.5t-190.5 -48.5q-62 0 -122.5 9.5t-126 32.5t-106 72.5t-40.5 118.5zM211 1075l362 379l363 -379l-41 -45l-324 203l-323 -203z M305 223q0 -68 54.5 -115t132.5 -47q20 0 45 4t61 18.5t64 37.5t48.5 65.5t20.5 98.5v194q-35 -2 -68 -6t-87 -13.5t-97.5 -28t-85 -45t-65 -68.5t-23.5 -95z" />
<glyph unicode="&#xe3;" horiz-adv-x="1144" d="M66 221q0 294 665 322v69q0 242 -225 242q-82 0 -148 -14q6 -4 15 -14t19.5 -35t10.5 -52q0 -61 -38.5 -95t-90.5 -34q-48 0 -87.5 33.5t-39.5 95.5q0 189 367 189q221 0 336 -87t115 -229v-440q0 -22 2 -32t13 -22t37.5 -16.5t72.5 -5.5q18 0 27 -1.5t17.5 -12.5 t8.5 -33q0 -18 -4 -28.5t-14.5 -14.5t-19.5 -5t-28 -1h-98q-61 0 -103.5 11.5t-63.5 25.5t-32 39t-12.5 40.5t-1.5 41.5q-38 -73 -114.5 -121.5t-190.5 -48.5q-62 0 -122.5 9.5t-126 32.5t-106 72.5t-40.5 118.5zM182 1184q12 12 51 53.5t50 52.5q64 64 147 64q56 0 162 -35 t164 -35q94 0 155 70l54 -51q-11 -11 -50 -53t-51 -54q-63 -63 -147 -63q-59 0 -162 34q-106 35 -164 35q-95 0 -155 -69zM305 223q0 -68 54.5 -115t132.5 -47q20 0 45 4t61 18.5t64 37.5t48.5 65.5t20.5 98.5v194q-35 -2 -68 -6t-87 -13.5t-97.5 -28t-85 -45t-65 -68.5 t-23.5 -95z" />
<glyph unicode="&#xe4;" horiz-adv-x="1144" d="M66 221q0 294 665 322v69q0 242 -225 242q-82 0 -148 -14q6 -4 15 -14t19.5 -35t10.5 -52q0 -61 -38.5 -95t-90.5 -34q-48 0 -87.5 33.5t-39.5 95.5q0 189 367 189q221 0 336 -87t115 -229v-440q0 -22 2 -32t13 -22t37.5 -16.5t72.5 -5.5q18 0 27 -1.5t17.5 -12.5 t8.5 -33q0 -18 -4 -28.5t-14.5 -14.5t-19.5 -5t-28 -1h-98q-61 0 -103.5 11.5t-63.5 25.5t-32 39t-12.5 40.5t-1.5 41.5q-38 -73 -114.5 -121.5t-190.5 -48.5q-62 0 -122.5 9.5t-126 32.5t-106 72.5t-40.5 118.5zM166 1243q0 60 41.5 101.5t101.5 41.5t102 -41.5t42 -101.5 q0 -59 -42 -101t-102 -42t-101.5 42t-41.5 101zM305 223q0 -68 54.5 -115t132.5 -47q20 0 45 4t61 18.5t64 37.5t48.5 65.5t20.5 98.5v194q-35 -2 -68 -6t-87 -13.5t-97.5 -28t-85 -45t-65 -68.5t-23.5 -95zM692 1243q0 60 42 101.5t102 41.5t101.5 -41.5t41.5 -101.5 q0 -59 -41.5 -101t-101.5 -42t-102 42t-42 101z" />
<glyph unicode="&#xe5;" horiz-adv-x="1144" d="M66 221q0 294 665 322v69q0 242 -225 242q-82 0 -148 -14q6 -4 15 -14t19.5 -35t10.5 -52q0 -61 -38.5 -95t-90.5 -34q-48 0 -87.5 33.5t-39.5 95.5q0 189 367 189q221 0 336 -87t115 -229v-440q0 -22 2 -32t13 -22t37.5 -16.5t72.5 -5.5q18 0 27 -1.5t17.5 -12.5 t8.5 -33q0 -18 -4 -28.5t-14.5 -14.5t-19.5 -5t-28 -1h-98q-61 0 -103.5 11.5t-63.5 25.5t-32 39t-12.5 40.5t-1.5 41.5q-38 -73 -114.5 -121.5t-190.5 -48.5q-62 0 -122.5 9.5t-126 32.5t-106 72.5t-40.5 118.5zM305 223q0 -68 54.5 -115t132.5 -47q20 0 45 4t61 18.5 t64 37.5t48.5 65.5t20.5 98.5v194q-35 -2 -68 -6t-87 -13.5t-97.5 -28t-85 -45t-65 -68.5t-23.5 -95zM330 1241q0 30 12.5 58t39.5 54t76 42t115 16q124 0 184 -51.5t60 -122.5q0 -66 -59 -118t-185 -52q-123 0 -183 51t-60 123zM440 1239q0 -56 31.5 -72t101.5 -16 q71 0 102.5 16t31.5 72q0 24 -7.5 40.5t-18 26t-29.5 14.5t-36 6t-43 1t-42.5 -1t-35.5 -6t-30 -14.5t-18 -26t-7 -40.5z" />
<glyph unicode="&#xe6;" horiz-adv-x="1701" d="M76 211q0 82 64.5 144t172.5 96q94 29 166 38t254 19v104q0 242 -225 242q-81 0 -150 -14q6 -4 15 -14t19.5 -35t10.5 -52q0 -61 -38.5 -95t-90.5 -34q-48 0 -87.5 33.5t-39.5 95.5q0 189 369 189q119 0 203 -24.5t153 -78.5l13 -8q6 0 16 10q136 101 326 101 q203 0 305 -115q102 -116 102 -309q0 -39 -12.5 -48.5t-52.5 -9.5h-602q1 -34 2.5 -54t8.5 -64.5t18 -73.5t34 -67t54 -61t79.5 -39.5t108.5 -16.5q82 0 155.5 41.5t106.5 126.5q10 24 18 31t33 7q49 0 49 -36q0 -15 -11.5 -42t-40 -64t-69.5 -69t-109 -54.5t-149 -22.5 q-109 0 -209 33t-174 100q-115 -133 -405 -133q-72 0 -135 10t-124 33t-96.5 69t-35.5 111zM315 211q0 -61 50.5 -105.5t130.5 -44.5q112 0 194 58t82 135q0 13 -6 29q-30 83 -33 155q-114 -2 -206 -26.5t-152 -76.5t-60 -124zM967 514h473q-2 36 -3.5 54.5t-7 60t-14 66.5 t-24.5 59t-37.5 53t-54.5 33t-74 14q-15 0 -32.5 -2.5t-48.5 -11.5t-62.5 -32t-55.5 -58q-55 -79 -59 -236z" />
<glyph unicode="&#xe7;" horiz-adv-x="1046" d="M78 455q0 92 30 174.5t90.5 150.5t163 108t234.5 40q356 0 356 -189q0 -61 -38.5 -95t-90.5 -34q-48 0 -87.5 33.5t-39.5 95.5q0 58 41 95q-54 12 -133 12q-54 0 -97.5 -16t-70.5 -38.5t-46.5 -60t-29 -67.5t-14.5 -74.5t-5.5 -66.5t-0.5 -58q0 -395 285 -395 q187 0 256 168q8 21 15 25.5t34 4.5q15 0 22.5 -0.5t17 -7.5t9.5 -20q0 -7 -7 -27t-28 -54t-52.5 -66t-89 -60.5t-128.5 -38.5v-62q88 0 152.5 -48t64.5 -122q0 -25 -7.5 -46.5t-25 -37.5t-36 -29t-50 -22t-56.5 -15.5t-66.5 -10.5t-68.5 -6.5t-74.5 -3.5t-72.5 -1h-74h-98 v99h49q50 0 73.5 0.5t69.5 2t70 6t52 12.5t40.5 21t12.5 31q0 72 -152 72v162q-186 29 -292.5 153t-106.5 306z" />
<glyph unicode="&#xe8;" horiz-adv-x="1079" d="M66 461q0 97 33.5 181t95.5 148t159 101t217 37q212 0 326 -111q47 -47 74.5 -114.5t34 -112.5t6.5 -88q0 -38 -13.5 -47t-52.5 -9h-618q0 -33 0.5 -54.5t6.5 -64.5t16 -73.5t31.5 -67.5t51.5 -60.5t77 -39.5t107 -16q100 0 180.5 45t112.5 118q10 27 18.5 35t33.5 8 q49 0 49 -36q0 -13 -11 -39.5t-41.5 -64t-74 -70t-119 -55.5t-166.5 -23q-244 0 -389 132t-145 341zM240 1315q0 48 36.5 87.5t85.5 39.5q22 0 41 -8.5t29.5 -18t26.5 -26.5l229 -271l-61 -76l-310 166q-24 13 -36.5 21.5t-26.5 32t-14 53.5zM328 514h489q-9 340 -246 340 q-52 0 -105 -25t-89 -81q-20 -32 -31 -77.5t-13 -71t-5 -85.5z" />
<glyph unicode="&#xe9;" horiz-adv-x="1079" d="M66 461q0 97 33.5 181t95.5 148t159 101t217 37q212 0 326 -111q47 -47 74.5 -114.5t34 -112.5t6.5 -88q0 -38 -13.5 -47t-52.5 -9h-618q0 -33 0.5 -54.5t6.5 -64.5t16 -73.5t31.5 -67.5t51.5 -60.5t77 -39.5t107 -16q100 0 180.5 45t112.5 118q10 27 18.5 35t33.5 8 q49 0 49 -36q0 -13 -11 -39.5t-41.5 -64t-74 -70t-119 -55.5t-166.5 -23q-244 0 -389 132t-145 341zM328 514h489q-9 340 -246 340q-52 0 -105 -25t-89 -81q-20 -32 -31 -77.5t-13 -71t-5 -85.5zM391 1118l230 271q17 18 26.5 27t28.5 17.5t41 8.5q49 0 86 -39.5t37 -87.5 q0 -30 -14.5 -53.5t-27 -32t-36.5 -21.5l-309 -166z" />
<glyph unicode="&#xea;" horiz-adv-x="1079" d="M66 461q0 97 33.5 181t95.5 148t159 101t217 37q212 0 326 -111q47 -47 74.5 -114.5t34 -112.5t6.5 -88q0 -38 -13.5 -47t-52.5 -9h-618q0 -33 0.5 -54.5t6.5 -64.5t16 -73.5t31.5 -67.5t51.5 -60.5t77 -39.5t107 -16q100 0 180.5 45t112.5 118q10 27 18.5 35t33.5 8 q49 0 49 -36q0 -13 -11 -39.5t-41.5 -64t-74 -70t-119 -55.5t-166.5 -23q-244 0 -389 132t-145 341zM178 1075l363 379l362 -379l-41 -45l-323 203l-324 -203zM328 514h489q-9 340 -246 340q-52 0 -105 -25t-89 -81q-20 -32 -31 -77.5t-13 -71t-5 -85.5z" />
<glyph unicode="&#xeb;" horiz-adv-x="1079" d="M66 461q0 97 33.5 181t95.5 148t159 101t217 37q212 0 326 -111q47 -47 74.5 -114.5t34 -112.5t6.5 -88q0 -38 -13.5 -47t-52.5 -9h-618q0 -33 0.5 -54.5t6.5 -64.5t16 -73.5t31.5 -67.5t51.5 -60.5t77 -39.5t107 -16q100 0 180.5 45t112.5 118q10 27 18.5 35t33.5 8 q49 0 49 -36q0 -13 -11 -39.5t-41.5 -64t-74 -70t-119 -55.5t-166.5 -23q-244 0 -389 132t-145 341zM133 1243q0 60 41.5 101.5t101.5 41.5t102 -41.5t42 -101.5q0 -59 -42 -101t-102 -42t-101.5 42t-41.5 101zM328 514h489q-9 340 -246 340q-52 0 -105 -25t-89 -81 q-20 -32 -31 -77.5t-13 -71t-5 -85.5zM659 1243q0 60 42 101.5t102 41.5t101.5 -41.5t41.5 -101.5q0 -59 -41.5 -101t-101.5 -42t-102 42t-42 101z" />
<glyph unicode="&#xec;" horiz-adv-x="653" d="M27 1315q0 48 37 87.5t86 39.5q22 0 41 -8.5t28.5 -17.5t26.5 -27l229 -271l-61 -76l-310 166q-24 13 -36.5 21.5t-26.5 32t-14 53.5zM96 0v96h142v633q0 58 -21 69t-115 11v96l357 17v-826h127v-96l-240 6z" />
<glyph unicode="&#xed;" horiz-adv-x="653" d="M96 0v96h142v633q0 58 -21 69t-115 11v96l357 17v-826h127v-96l-240 6zM178 1118l230 271q17 18 26.5 27t28.5 17.5t41 8.5q49 0 86 -39.5t37 -87.5q0 -30 -14.5 -53.5t-27 -32t-36.5 -21.5l-309 -166z" />
<glyph unicode="&#xee;" horiz-adv-x="653" d="M-35 1075l363 379l362 -379l-41 -45l-323 203l-324 -203zM96 0v96h142v633q0 58 -21 69t-115 11v96l357 17v-826h127v-96l-240 6z" />
<glyph unicode="&#xef;" horiz-adv-x="653" d="M-80 1243q0 60 41.5 101.5t101.5 41.5t102 -41.5t42 -101.5q0 -59 -42 -101t-102 -42t-101.5 42t-41.5 101zM96 0v96h142v633q0 58 -21 69t-115 11v96l357 17v-826h127v-96l-240 6zM446 1243q0 60 42 101.5t102 41.5t101.5 -41.5t41.5 -101.5q0 -59 -41.5 -101 t-101.5 -42t-102 42t-42 101z" />
<glyph unicode="&#xf0;" d="M66 446q0 102 35 190t99.5 153t164.5 102t223 37q157 0 274 -60q-20 203 -86 322l-119 -115l-67 70l123 121q-72 63 -183 63v98q148 0 265 -84l127 125l67 -71l-121 -119q121 -132 181.5 -354.5t60.5 -477.5q0 -92 -33.5 -176.5t-97.5 -146.5q-141 -135 -391 -135 q-247 0 -384.5 129.5t-137.5 328.5zM328 469q0 -40 0.5 -61t2.5 -60.5t6.5 -62t13.5 -55.5t21.5 -52.5t32.5 -43t45.5 -35.5t60.5 -20.5t77 -8.5t77 8.5t60.5 20.5t45.5 35.5t32.5 43t21.5 52.5t13.5 55.5t6.5 62t2.5 60.5t0.5 61q0 67 -1.5 104.5t-11.5 91t-30 85.5 q-32 52 -90.5 78t-126.5 26q-76 0 -136.5 -31.5t-89.5 -87.5q-16 -32 -24 -83.5t-9 -84t-1 -98.5z" />
<glyph unicode="&#xf1;" horiz-adv-x="1308" d="M92 0v96h141v633q0 58 -21 69t-120 11v96l352 17v-222q22 43 52 79.5t73 70t103.5 53t130.5 19.5q159 0 237 -69t78 -226v-531h142v-96l-259 6l-258 -6v96h142v553q0 111 -28.5 155t-84.5 44q-51 0 -102.5 -20t-98 -58t-75.5 -102t-29 -144v-428h141v-96l-258 6z M264 1184q12 12 51 53.5t50 52.5q64 64 147 64q56 0 162 -35t164 -35q94 0 155 70l54 -51q-11 -11 -50 -53t-51 -54q-63 -63 -147 -63q-59 0 -162 34q-106 35 -164 35q-96 0 -156 -69z" />
<glyph unicode="&#xf2;" d="M66 446q0 102 35 190t99.5 153t164.5 102t223 37q244 0 383 -135t139 -347q0 -96 -34 -178.5t-97.5 -145t-164 -98.5t-226.5 -36q-247 0 -384.5 129.5t-137.5 328.5zM289 1315q0 48 37 87.5t86 39.5q22 0 41 -8.5t28.5 -17.5t26.5 -27l229 -271l-61 -76l-309 166 q-24 13 -36.5 21.5t-27 32t-14.5 53.5zM328 469q0 -40 0.5 -61t2.5 -60.5t6.5 -62t13.5 -55.5t21.5 -52.5t32.5 -43t45.5 -35.5t60.5 -20.5t77 -8.5t77 8.5t60.5 20.5t45.5 35.5t32.5 43t21.5 52.5t13.5 55.5t6.5 62t2.5 60.5t0.5 61q0 67 -1.5 104.5t-11.5 91t-30 85.5 q-32 52 -90.5 78t-126.5 26q-76 0 -136.5 -31.5t-89.5 -87.5q-16 -32 -24 -83.5t-9 -84t-1 -98.5z" />
<glyph unicode="&#xf3;" d="M66 446q0 102 35 190t99.5 153t164.5 102t223 37q244 0 383 -135t139 -347q0 -96 -34 -178.5t-97.5 -145t-164 -98.5t-226.5 -36q-247 0 -384.5 129.5t-137.5 328.5zM328 469q0 -40 0.5 -61t2.5 -60.5t6.5 -62t13.5 -55.5t21.5 -52.5t32.5 -43t45.5 -35.5t60.5 -20.5 t77 -8.5t77 8.5t60.5 20.5t45.5 35.5t32.5 43t21.5 52.5t13.5 55.5t6.5 62t2.5 60.5t0.5 61q0 67 -1.5 104.5t-11.5 91t-30 85.5q-32 52 -90.5 78t-126.5 26q-76 0 -136.5 -31.5t-89.5 -87.5q-16 -32 -24 -83.5t-9 -84t-1 -98.5zM440 1118l230 271q17 18 26.5 27t28.5 17.5 t41 8.5q49 0 86 -39.5t37 -87.5q0 -30 -14.5 -53.5t-27 -32t-36.5 -21.5l-309 -166z" />
<glyph unicode="&#xf4;" d="M66 446q0 102 35 190t99.5 153t164.5 102t223 37q244 0 383 -135t139 -347q0 -96 -34 -178.5t-97.5 -145t-164 -98.5t-226.5 -36q-247 0 -384.5 129.5t-137.5 328.5zM227 1075l363 379l362 -379l-41 -45l-323 203l-324 -203zM328 469q0 -40 0.5 -61t2.5 -60.5t6.5 -62 t13.5 -55.5t21.5 -52.5t32.5 -43t45.5 -35.5t60.5 -20.5t77 -8.5t77 8.5t60.5 20.5t45.5 35.5t32.5 43t21.5 52.5t13.5 55.5t6.5 62t2.5 60.5t0.5 61q0 67 -1.5 104.5t-11.5 91t-30 85.5q-32 52 -90.5 78t-126.5 26q-76 0 -136.5 -31.5t-89.5 -87.5q-16 -32 -24 -83.5 t-9 -84t-1 -98.5z" />
<glyph unicode="&#xf5;" d="M66 446q0 102 35 190t99.5 153t164.5 102t223 37q244 0 383 -135t139 -347q0 -96 -34 -178.5t-97.5 -145t-164 -98.5t-226.5 -36q-247 0 -384.5 129.5t-137.5 328.5zM199 1184q11 11 49.5 52.5t50.5 53.5q64 64 147 64q56 0 162 -35t164 -35q95 0 156 70l53 -51 q-12 -12 -50.5 -54t-49.5 -53q-63 -63 -148 -63q-59 0 -162 34q-106 35 -163 35q-96 0 -156 -69zM328 469q0 -40 0.5 -61t2.5 -60.5t6.5 -62t13.5 -55.5t21.5 -52.5t32.5 -43t45.5 -35.5t60.5 -20.5t77 -8.5t77 8.5t60.5 20.5t45.5 35.5t32.5 43t21.5 52.5t13.5 55.5t6.5 62 t2.5 60.5t0.5 61q0 67 -1.5 104.5t-11.5 91t-30 85.5q-32 52 -90.5 78t-126.5 26q-76 0 -136.5 -31.5t-89.5 -87.5q-16 -32 -24 -83.5t-9 -84t-1 -98.5z" />
<glyph unicode="&#xf6;" d="M66 446q0 102 35 190t99.5 153t164.5 102t223 37q244 0 383 -135t139 -347q0 -96 -34 -178.5t-97.5 -145t-164 -98.5t-226.5 -36q-247 0 -384.5 129.5t-137.5 328.5zM182 1243q0 60 42 101.5t102 41.5t101.5 -41.5t41.5 -101.5q0 -59 -41.5 -101t-101.5 -42t-102 42 t-42 101zM328 469q0 -40 0.5 -61t2.5 -60.5t6.5 -62t13.5 -55.5t21.5 -52.5t32.5 -43t45.5 -35.5t60.5 -20.5t77 -8.5t77 8.5t60.5 20.5t45.5 35.5t32.5 43t21.5 52.5t13.5 55.5t6.5 62t2.5 60.5t0.5 61q0 67 -1.5 104.5t-11.5 91t-30 85.5q-32 52 -90.5 78t-126.5 26 q-76 0 -136.5 -31.5t-89.5 -87.5q-16 -32 -24 -83.5t-9 -84t-1 -98.5zM709 1243q0 60 41.5 101.5t101.5 41.5t101.5 -41.5t41.5 -101.5q0 -59 -41.5 -101t-101.5 -42t-101.5 42t-41.5 101z" />
<glyph unicode="&#xf7;" horiz-adv-x="1830" d="M131 512q0 22 9.5 36t27 19.5t29 6.5t28.5 1h1379q18 0 29 -1t28.5 -6.5t27 -19.5t9.5 -36q0 -61 -84 -61h-1399q-84 0 -84 61zM756 -4q0 66 46.5 113t112.5 47t113 -47t47 -113t-47 -113t-113 -47t-112.5 47t-46.5 113zM756 1032q0 66 46.5 113t112.5 47t113 -47 t47 -113t-47 -113t-113 -47t-112.5 47t-46.5 113z" />
<glyph unicode="&#xf8;" d="M66 446q0 102 35 190t99.5 153t164.5 102t223 37q121 0 227 -37l148 239l61 -40l-143 -232q116 -62 172.5 -173.5t56.5 -238.5q0 -96 -34 -178.5t-97.5 -145t-164 -98.5t-226.5 -36q-124 0 -226 35l-149 -242l-61 41l143 231q-65 35 -112 84t-71.5 103t-35 104.5 t-10.5 101.5zM299 449q0 -69 2 -107.5t16 -94t41 -89.5l404 649q-68 47 -174 47q-83 0 -141 -29.5t-86 -66.5t-43 -102t-17 -103.5t-2 -103.5zM416 106q68 -45 172 -45q83 0 141 27.5t86 62.5t43 97t17 99t2 102q0 72 -3 115.5t-17 97.5t-42 92z" />
<glyph unicode="&#xf9;" horiz-adv-x="1308" d="M92 809v96l375 17v-699q0 -49 3.5 -73.5t19 -48t49.5 -32t92 -8.5q113 0 183.5 76t70.5 201v391q0 58 -21.5 69t-120.5 11v96l375 17v-746q0 -58 21.5 -69t120.5 -11v-96l-363 -12v159q-93 -159 -295 -159q-83 0 -144.5 11t-115 38.5t-81.5 81.5t-28 133v477q0 58 -21 69 t-120 11zM354 1315q0 48 37 87.5t86 39.5q22 0 41 -8.5t28.5 -17.5t26.5 -27l230 -271l-62 -76l-309 166q-24 13 -36.5 21.5t-27 32t-14.5 53.5z" />
<glyph unicode="&#xfa;" horiz-adv-x="1308" d="M92 809v96l375 17v-699q0 -49 3.5 -73.5t19 -48t49.5 -32t92 -8.5q113 0 183.5 76t70.5 201v391q0 58 -21.5 69t-120.5 11v96l375 17v-746q0 -58 21.5 -69t120.5 -11v-96l-363 -12v159q-93 -159 -295 -159q-83 0 -144.5 11t-115 38.5t-81.5 81.5t-28 133v477q0 58 -21 69 t-120 11zM506 1118l229 271q17 18 26.5 27t28.5 17.5t41 8.5q49 0 86 -39.5t37 -87.5q0 -30 -14 -53.5t-26.5 -32t-36.5 -21.5l-310 -166z" />
<glyph unicode="&#xfb;" horiz-adv-x="1308" d="M92 809v96l375 17v-699q0 -49 3.5 -73.5t19 -48t49.5 -32t92 -8.5q113 0 183.5 76t70.5 201v391q0 58 -21.5 69t-120.5 11v96l375 17v-746q0 -58 21.5 -69t120.5 -11v-96l-363 -12v159q-93 -159 -295 -159q-83 0 -144.5 11t-115 38.5t-81.5 81.5t-28 133v477q0 58 -21 69 t-120 11zM293 1075l362 379l363 -379l-41 -45l-324 203l-323 -203z" />
<glyph unicode="&#xfc;" horiz-adv-x="1308" d="M92 809v96l375 17v-699q0 -49 3.5 -73.5t19 -48t49.5 -32t92 -8.5q113 0 183.5 76t70.5 201v391q0 58 -21.5 69t-120.5 11v96l375 17v-746q0 -58 21.5 -69t120.5 -11v-96l-363 -12v159q-93 -159 -295 -159q-83 0 -144.5 11t-115 38.5t-81.5 81.5t-28 133v477q0 58 -21 69 t-120 11zM248 1243q0 60 41.5 101.5t101.5 41.5t102 -41.5t42 -101.5q0 -59 -42 -101t-102 -42t-101.5 42t-41.5 101zM774 1243q0 60 42 101.5t102 41.5t101.5 -41.5t41.5 -101.5q0 -59 -41.5 -101t-101.5 -42t-102 42t-42 101z" />
<glyph unicode="&#xfd;" horiz-adv-x="1243" d="M45 -221q0 56 35 87.5t82 31.5q52 0 85.5 -33t33.5 -84q0 -33 -14 -58.5t-26.5 -35t-25.5 -15.5q21 -8 49 -8q42 0 78.5 16.5t61 38t49.5 59t37 61t30 63.5l47 98l-383 813h-131v96l234 -6l254 6v-96h-111l260 -553l236 504l10 24q0 11 -24 17.5t-48 6.5l-24 1v96l186 -6 q88 0 162 6v-96q-63 0 -95 -5.5t-40 -12.5t-17 -25l-440 -936q-47 -100 -134.5 -172t-197.5 -72q-92 0 -155.5 55.5t-63.5 133.5zM473 1118l229 271q16 17 26.5 26.5t29.5 18t41 8.5q49 0 86 -39.5t37 -87.5q0 -30 -14.5 -53.5t-27 -32t-36.5 -21.5l-309 -166z" />
<glyph unicode="&#xfe;" horiz-adv-x="1308" d="M76 -301h141v1530q0 58 -21 69t-120 11v96l362 16v-600q49 38 128.5 69.5t181.5 31.5q219 0 350 -129.5t131 -335.5q0 -213 -142.5 -341t-373.5 -128q-150 0 -262 92v-381h141v-96l-258 6l-258 -6v96zM451 203q12 -18 28 -36.5t46 -45t74.5 -43.5t94.5 -17q59 0 119 25 t100 82q25 37 37.5 92t14.5 94t2 103q0 43 -0.5 67.5t-5.5 71.5t-13.5 76t-27 66t-44.5 58.5t-66.5 36.5t-92.5 15q-81 0 -151.5 -37t-114.5 -94v-514z" />
<glyph unicode="&#xff;" horiz-adv-x="1243" d="M45 -221q0 56 35 87.5t82 31.5q52 0 85.5 -33t33.5 -84q0 -33 -14 -58.5t-26.5 -35t-25.5 -15.5q21 -8 49 -8q42 0 78.5 16.5t61 38t49.5 59t37 61t30 63.5l47 98l-383 813h-131v96l234 -6l254 6v-96h-111l260 -553l236 504l10 24q0 11 -24 17.5t-48 6.5l-24 1v96l186 -6 q88 0 162 6v-96q-63 0 -95 -5.5t-40 -12.5t-17 -25l-440 -936q-47 -100 -134.5 -172t-197.5 -72q-92 0 -155.5 55.5t-63.5 133.5zM215 1243q0 60 41.5 101.5t101.5 41.5t102 -41.5t42 -101.5q0 -59 -42 -101t-102 -42t-101.5 42t-41.5 101zM741 1243q0 60 42 101.5t102 41.5 t101.5 -41.5t41.5 -101.5q0 -59 -41.5 -101t-101.5 -42t-102 42t-42 101z" />
<glyph unicode="&#x152;" horiz-adv-x="2394" d="M170 696q0 152 51.5 284t148 232t247 157.5t337.5 57.5q64 0 160 -8q164 -14 215 -14h869l63 -494h-96q-8 59 -15 98.5t-21 85.5t-32.5 75t-48 58t-69 45t-95 26t-125.5 10h-291v-531h183q142 0 194.5 50.5t52.5 189.5h97v-576h-97q0 139 -52.5 189.5t-194.5 50.5h-183 v-586h297q68 0 123.5 8t98 25.5t75 38.5t57 55t41.5 66t30.5 80.5t21.5 90t18 101.5h97l-95 -561h-903q-61 0 -172 -10q-140 -13 -203 -13q-184 0 -333 54t-247 150t-151 228t-53 287zM471 727q0 -161 37.5 -290.5t103.5 -213t155.5 -128t195.5 -44.5q72 0 117.5 12t71 42 t37 65t19.5 96q9 71 9 436l-3 250q0 51 -1 84.5t-3.5 72.5t-6 63t-10.5 51t-16.5 43t-23.5 33t-32 25.5t-41.5 16t-52 10.5t-64.5 3q-104 0 -192.5 -39.5t-156 -115.5t-105.5 -197.5t-38 -274.5z" />
<glyph unicode="&#x153;" horiz-adv-x="1830" d="M66 459q0 207 138.5 338t377.5 131q243 0 395 -148q145 148 379 148q203 0 305 -115q102 -116 102 -309q0 -39 -12.5 -48.5t-52.5 -9.5h-602q1 -34 2.5 -54t8.5 -64.5t18 -73.5t34 -67t54 -61t79.5 -39.5t108.5 -16.5q82 0 155.5 41.5t106.5 126.5q10 24 18 31t33 7 q49 0 49 -36q0 -15 -11.5 -42t-40 -64t-69.5 -69t-109 -54.5t-149 -22.5q-137 0 -240 44t-163 109q-58 -62 -156.5 -107.5t-242.5 -45.5q-241 0 -378.5 132.5t-137.5 338.5zM305 469q0 -105 10 -166.5t37 -112.5q30 -58 92 -93.5t138 -35.5q45 0 83.5 11t65.5 27t48.5 43 t35 51t23 59t14 59.5t7 60.5t3 52.5t0.5 44.5t-0.5 44t-3 50.5t-7 57t-14 56t-23 55.5t-35 47t-48.5 40t-65.5 25t-83.5 10q-63 0 -126 -27.5t-102 -87.5q-23 -37 -34.5 -91t-13 -88t-1.5 -91zM1096 514h473q-2 36 -3.5 54.5t-7 60t-14 66.5t-24.5 59t-37.5 53t-54.5 33 t-74 14q-15 0 -32.5 -2.5t-48.5 -11.5t-62.5 -32t-55.5 -58q-55 -79 -59 -236z" />
<glyph unicode="&#x178;" horiz-adv-x="1779" d="M39 1309v96q72 -6 338 -6q291 0 375 6v-96h-174l415 -609l383 564q7 9 15 24q-56 21 -156 21v96q76 -6 270 -6l234 6v-96h-43q-54 0 -107 -6q-51 -7 -63 -15q-9 -7 -17 -20l-481 -707v-465h223v-96q-78 6 -362 6q-287 0 -361 -6v96h222v465l-510 748h-201zM436 1634 q0 60 42 102t102 42t101.5 -42t41.5 -102q0 -59 -41.5 -101t-101.5 -42t-102 42t-42 101zM1057 1634q0 60 41.5 102t101.5 42t101.5 -42t41.5 -102q0 -59 -41.5 -101t-101.5 -42t-101.5 42t-41.5 101z" />
<glyph unicode="&#x2c6;" d="M227 1075l363 379l362 -379l-41 -45l-323 203l-324 -203z" />
<glyph unicode="&#x2dc;" d="M199 1184q11 11 49.5 52.5t50.5 53.5q64 64 147 64q56 0 162 -35t164 -35q95 0 156 70l53 -51q-12 -12 -50.5 -54t-49.5 -53q-63 -63 -148 -63q-59 0 -162 34q-106 35 -163 35q-96 0 -156 -69z" />
<glyph unicode="&#x2000;" horiz-adv-x="931" />
<glyph unicode="&#x2001;" horiz-adv-x="1862" />
<glyph unicode="&#x2002;" horiz-adv-x="931" />
<glyph unicode="&#x2003;" horiz-adv-x="1862" />
<glyph unicode="&#x2004;" horiz-adv-x="620" />
<glyph unicode="&#x2005;" horiz-adv-x="465" />
<glyph unicode="&#x2006;" horiz-adv-x="310" />
<glyph unicode="&#x2007;" horiz-adv-x="310" />
<glyph unicode="&#x2008;" horiz-adv-x="232" />
<glyph unicode="&#x2009;" horiz-adv-x="372" />
<glyph unicode="&#x200a;" horiz-adv-x="103" />
<glyph unicode="&#x2010;" horiz-adv-x="784" d="M27 356v199h624v-199h-624z" />
<glyph unicode="&#x2011;" horiz-adv-x="784" d="M27 356v199h624v-199h-624z" />
<glyph unicode="&#x2012;" horiz-adv-x="784" d="M27 356v199h624v-199h-624z" />
<glyph unicode="&#x2013;" d="M0 524v74h1176v-74h-1176z" />
<glyph unicode="&#x2014;" horiz-adv-x="2355" d="M0 524v74h2353v-74h-2353z" />
<glyph unicode="&#x2018;" horiz-adv-x="653" d="M133 961q0 81 23.5 157.5t57 129t70 93.5t64 60.5t37.5 19.5q13 0 26 -13.5t13 -27.5t-16 -26q-189 -147 -201 -377q50 47 119 47q74 0 116.5 -47t42.5 -113q0 -67 -44 -113t-113 -46q-87 0 -141 74t-54 182z" />
<glyph unicode="&#x2019;" horiz-adv-x="653" d="M166 1262q0 67 44.5 113t113.5 46q87 0 140.5 -73.5t53.5 -182.5q0 -81 -23.5 -157.5t-57 -129t-70 -93.5t-64 -60.5t-37.5 -19.5q-13 0 -26 13t-13 27t17 27q188 146 200 377q-50 -47 -118 -47q-74 0 -117 47t-43 113z" />
<glyph unicode="&#x201a;" horiz-adv-x="653" d="M152 156q0 67 44 113t113 46q87 0 141 -74t54 -182q0 -81 -23.5 -157.5t-57 -129t-70 -93.5t-64 -60.5t-37.5 -19.5q-12 0 -25.5 13.5t-13.5 27.5t16 26q189 147 201 377q-50 -47 -119 -47q-74 0 -116.5 47t-42.5 113z" />
<glyph unicode="&#x201c;" horiz-adv-x="1169" d="M133 961q0 81 23.5 157.5t57 129t70 93.5t64 60.5t37.5 19.5q13 0 26 -13.5t13 -27.5t-16 -26q-189 -147 -201 -377q50 47 119 47q74 0 116.5 -47t42.5 -113q0 -67 -44 -113t-113 -46q-87 0 -141 74t-54 182zM649 961q0 81 23.5 157.5t57 129t70 93.5t64 60.5t37.5 19.5 q13 0 26 -13.5t13 -27.5t-16 -26q-189 -147 -201 -377q50 47 119 47q74 0 116.5 -47t42.5 -113q0 -67 -44 -113t-113 -46q-87 0 -141 74t-54 182z" />
<glyph unicode="&#x201d;" horiz-adv-x="1169" d="M168 1262q0 67 44.5 113t113.5 46q87 0 140.5 -73.5t53.5 -182.5q0 -81 -23.5 -157.5t-57 -129t-70 -93.5t-64 -60.5t-37.5 -19.5q-13 0 -26 13t-13 27t17 27q188 146 200 377q-50 -47 -118 -47q-74 0 -117 47t-43 113zM684 1262q0 67 44.5 113t113.5 46 q87 0 140.5 -73.5t53.5 -182.5q0 -81 -23.5 -157.5t-57 -129t-70 -93.5t-64 -60.5t-37.5 -19.5q-13 0 -26 13t-13 27t17 27q189 147 201 377q-50 -47 -119 -47q-74 0 -117 47t-43 113z" />
<glyph unicode="&#x201e;" horiz-adv-x="1169" d="M168 156q0 67 44.5 113t113.5 46q87 0 140.5 -73.5t53.5 -182.5q0 -81 -23.5 -157.5t-57 -129t-70 -93.5t-64 -60.5t-37.5 -19.5q-12 0 -25.5 13.5t-13.5 27.5q0 13 17 26q188 146 200 377q-50 -47 -118 -47q-74 0 -117 47t-43 113zM684 156q0 67 44.5 113t113.5 46 q87 0 140.5 -73.5t53.5 -182.5q0 -81 -23.5 -157.5t-57 -129t-70 -93.5t-64 -60.5t-37.5 -19.5q-12 0 -25.5 13.5t-13.5 27.5q0 13 17 26q189 147 201 377q-50 -47 -119 -47q-74 0 -117 47t-43 113z" />
<glyph unicode="&#x2022;" horiz-adv-x="1830" d="M604 469q0 129 91 220t220 91t220.5 -91t91.5 -220t-91.5 -220t-220.5 -91t-220 91t-91 220z" />
<glyph unicode="&#x2026;" horiz-adv-x="1716" d="M168 160q0 66 47 112.5t113 46.5t112.5 -46.5t46.5 -112.5t-46.5 -113t-112.5 -47t-113 47t-47 113zM698 160q0 66 47 112.5t113 46.5t113 -46.5t47 -112.5t-47 -113t-113 -47t-113 47t-47 113zM1229 160q0 66 47 112.5t113 46.5t112.5 -46.5t46.5 -112.5t-46.5 -113 t-112.5 -47t-113 47t-47 113z" />
<glyph unicode="&#x202f;" horiz-adv-x="372" />
<glyph unicode="&#x2039;" horiz-adv-x="911" d="M256 483.5q0 13.5 10 22.5q209 185 312 442q6 19 26 19h17q13 0 21.5 -10.5t6.5 -22.5q-47 -239 -155 -451q108 -212 155 -448q2 -14 -6.5 -24.5t-21.5 -10.5h-17q-19 0 -26 18q-105 262 -312 445q-10 7 -10 20.5z" />
<glyph unicode="&#x203a;" horiz-adv-x="911" d="M262 35q46 233 156 448q-110 215 -156 451q-3 12 6 22.5t23 10.5h16q21 0 27 -19q99 -255 311 -442q9 -9 9 -22t-9 -21q-210 -186 -311 -445q-7 -18 -27 -18h-16q-14 0 -23 11t-6 24z" />
<glyph unicode="&#x205f;" horiz-adv-x="465" />
<glyph unicode="&#x20ac;" horiz-adv-x="1474" d="M125 555l14 41q7 20 27 20h100q-4 58 -4 86t4 86h-112q-15 0 -23.5 11.5t-5.5 25.5l14 41q7 21 27 21h115q41 206 168 342q93 98 222 148t273 50q133 0 242 -67l98 63q8 4 16 4h15q12 0 20 -8t8 -20v-281q0 -12 -8 -20t-20 -8h-49q-11 0 -19.5 7t-9.5 17 q-12 92 -82.5 153.5t-163.5 61.5q-99 0 -185.5 -42t-139.5 -120q-72 -106 -86 -280h600q14 0 22 -12t4 -25l-12 -41q-7 -21 -29 -21h-592v-86v-86h521q14 0 22 -11.5t4 -24.5l-12 -41q-7 -21 -29 -21h-499q14 -174 86 -280q53 -78 139.5 -120t185.5 -42q93 0 163.5 61.5 t82.5 153.5q1 10 9.5 17t19.5 7h49q12 0 20 -8t8 -20v-281q0 -12 -8 -20.5t-20 -8.5h-15q-6 0 -16 5l-98 63q-111 -68 -242 -68q-144 0 -273 50t-222 149q-127 136 -168 342h-127q-15 0 -23.5 11.5t-5.5 25.5z" />
<glyph unicode="&#x2122;" horiz-adv-x="2324" d="M51 1110l27 295h827l25 -295h-58q-3 37 -5.5 57.5t-8.5 50t-14.5 45.5t-23 34.5t-34 28t-48.5 16t-66 6.5h-92v-715h186v-58q-83 5 -274 5q-192 0 -275 -5v58h186v715h-94q-37 0 -66 -6.5t-48.5 -16t-34 -28.5t-23 -35t-14.5 -45.5t-8.5 -49.5t-5.5 -57h-58zM979 575v58 h31q36 0 67 4q25 3 30 8t5 25v692h-133v57h272q18 0 25 -1t15.5 -7.5t15.5 -21.5l295 -652l294 652q6 15 14.5 21.5t15.5 7.5t24 1h272v-57h-133v-729h133v-58q-56 5 -211 5q-153 0 -209 -5v58h133v729h-2l-342 -756q-10 -31 -39 -31q-27 0 -39 31l-335 740v-676 q0 -21 4.5 -25.5t31.5 -7.5q46 -4 66 -4h31v-58q-64 5 -166 5q-107 0 -166 -5z" />
<glyph unicode="&#x25fc;" horiz-adv-x="911" d="M0 0v911h911v-911h-911z" />
</font>
</defs>
</svg>
